<?xml version="1.0" standalone="no"?>
<!DOCTYPE svg PUBLIC "-//W3C//DTD SVG 1.1//EN" "http://www.w3.org/Graphics/SVG/1.1/DTD/svg11.dtd" >
<svg>
<metadata>
Created by FontForge 20090622 at Mon Aug 20 09:25:38 2018
 By deploy user
Copyright (c) 2009 by Neil Summerour. All rights reserved.
</metadata>
<defs>
<font id="Magneta-Book" horiz-adv-x="678" >
  <font-face 
    font-family="Magneta-Book"
    font-weight="400"
    font-stretch="normal"
    units-per-em="1000"
    panose-1="2 0 5 3 8 0 0 2 0 3"
    ascent="748"
    descent="-252"
    x-height="480"
    cap-height="700"
    bbox="-138 -297.4 1333 1024.4"
    underline-thickness="50"
    underline-position="-50"
    unicode-range="U+0020-U+FB06"
  />
<missing-glyph horiz-adv-x="240" 
 />
    <glyph glyph-name="f_f" unicode="ff" horiz-adv-x="644" 
d="M630 480v-33h-114v-339q0 -28 3 -45t13 -26.5t30 -13t54 -3.5v-20h-264v20q28 0 45 3.5t26 13t11.5 26.5t2.5 45v339h-243v-339q0 -28 3 -45t13 -26.5t30 -13t54 -3.5v-20h-264v20q28 0 45 3.5t26 13t11.5 26.5t2.5 45v339h-75v33h75v18q0 47 19 87.5t47 70.5t60 47
t58 17q4 0 13 -1.5t14.5 -9.5t3.5 -25t-21 -47l-28 21t-34 13q-11 0 -20.5 -7.5t-16.5 -28.5t-11.5 -58.5t-4.5 -96.5h243v18q0 47 19 87.5t47 70.5t60 47t58 17q4 0 13 -1.5t14.5 -9.5t3.5 -25t-21 -47l-28 21t-34 13q-11 0 -20.5 -7.5t-16.5 -28.5t-11.5 -58.5t-4.5 -96.5
h114z" />
    <glyph glyph-name="f_i" unicode="fi" horiz-adv-x="594" 
d="M468 569q-20 14 -36 30t-30 36q29 39 66 65q37 -26 66 -65q-14 -20 -30.5 -36t-35.5 -30zM194 447v-339q0 -28 3 -45t13 -26.5t30 -13t54 -3.5v-20h-264v20q28 0 45 3.5t26 13t11.5 26.5t2.5 45v339h-75v33h75v18q0 47 19 87.5t47 70.5t60 47t58 17q4 0 13 -1.5
t14.5 -9.5t3.5 -25t-21 -47l-28 21t-34 13q-11 0 -20.5 -7.5t-16.5 -28.5t-11.5 -58.5t-4.5 -96.5h320l-3 -98v-274q0 -28 2 -45t9.5 -26.5t22 -13t39.5 -3.5v-20h-232v20q28 0 44 3.5t24 13t10 26.5t2 45v259q0 24 -1.5 39.5t-8.5 24.5t-22 12.5t-43 3.5h-163z" />
    <glyph glyph-name="f_l" unicode="fl" horiz-adv-x="594" 
d="M511 108q0 -28 2 -45t9.5 -26.5t22 -13t39.5 -3.5v-20h-232v20q28 0 44 3.5t24 13t10 26.5t2 45v552q-18 13 -44.5 20.5t-55 8t-56 -5t-48.5 -18.5q-8 -7 -14 -19.5t-10.5 -34t-7 -53.5t-2.5 -78h114v-33h-114v-339q0 -28 3 -45t13 -26.5t30 -13t54 -3.5v-20h-264v20
q28 0 45 3.5t26 13t11.5 26.5t2.5 45v339h-75v33h75v18q0 57 22.5 100t59.5 71t85 42t99 14q34 0 67 -4t63 -11v-602z" />
    <glyph glyph-name="f_f_i" unicode="ffi" horiz-adv-x="916" 
d="M516 447v-339q0 -28 3 -45t13 -26.5t30 -13t54 -3.5v-20h-264v20q28 0 45 3.5t26 13t11.5 26.5t2.5 45v339h-243v-339q0 -28 3 -45t13 -26.5t30 -13t54 -3.5v-20h-264v20q28 0 45 3.5t26 13t11.5 26.5t2.5 45v339h-75v33h75v18q0 47 19 87.5t47 70.5t60 47t58 17
q4 0 13 -1.5t14.5 -9.5t3.5 -25t-21 -47l-28 21t-34 13q-11 0 -20.5 -7.5t-16.5 -28.5t-11.5 -58.5t-4.5 -96.5h243v18q0 47 19 87.5t47 70.5t60 47t58 17q4 0 13 -1.5t14.5 -9.5t3.5 -25t-21 -47l-28 21t-34 13q-11 0 -20.5 -7.5t-16.5 -28.5t-11.5 -58.5t-4.5 -96.5h320
l-3 -98v-274q0 -28 2 -45t9.5 -26.5t22 -13t39.5 -3.5v-20h-232v20q28 0 44 3.5t24 13t10 26.5t2 45v259q0 24 -1.5 39.5t-8.5 24.5t-22 12.5t-43 3.5h-163zM790 569q-20 14 -36 30t-30 36q29 39 66 65q37 -26 66 -65q-14 -20 -30.5 -36t-35.5 -30z" />
    <glyph glyph-name="f_f_l" unicode="ffl" horiz-adv-x="916" 
d="M833 108q0 -28 2 -45t9.5 -26.5t22 -13t39.5 -3.5v-20h-232v20q28 0 44 3.5t24 13t10 26.5t2 45v552q-18 13 -44.5 20.5t-55 8t-56 -5t-48.5 -18.5q-8 -7 -14 -19.5t-10.5 -34t-7 -53.5t-2.5 -78h114v-33h-114v-339q0 -28 3 -45t13 -26.5t30 -13t54 -3.5v-20h-264v20
q28 0 45 3.5t26 13t11.5 26.5t2.5 45v339h-243v-339q0 -28 3 -45t13 -26.5t30 -13t54 -3.5v-20h-264v20q28 0 45 3.5t26 13t11.5 26.5t2.5 45v339h-75v33h75v18q0 47 19 87.5t47 70.5t60 47t58 17q4 0 13 -1.5t14.5 -9.5t3.5 -25t-21 -47l-28 21t-34 13q-11 0 -20.5 -7.5
t-16.5 -28.5t-11.5 -58.5t-4.5 -96.5h243v18q0 57 22.5 100t59.5 71t85 42t99 14q34 0 67 -4t63 -11v-602z" />
    <glyph glyph-name="f_b" unicode="fb" horiz-adv-x="861" 
d="M484 416q32 32 74.5 53t88.5 21q36 0 67.5 -16.5t55.5 -46.5t37.5 -73t13.5 -95q0 -77 -20.5 -128.5t-52 -82.5t-70 -44.5t-75.5 -13.5q-50 0 -88.5 14.5t-63.5 31.5l-25 -41h-19v665q-18 13 -40.5 20.5t-46.5 8t-47.5 -5t-44.5 -18.5q-8 -7 -14 -19.5t-10.5 -34
t-7 -53.5t-2.5 -78h106v-33h-106v-339q0 -28 3 -45t13 -26.5t30 -13t54 -3.5v-20h-264v20q28 0 45 3.5t26 13t11.5 26.5t2.5 45v339h-75v33h75v18q0 55 21 97t56 70.5t80 43.5t93 15q29 0 59 -3.5t62 -10.5zM598 20q46 0 73.5 26.5t42.5 64t19.5 78.5t4.5 70q0 28 -6.5 60.5
t-20.5 60.5t-36.5 46t-54.5 18q-3 0 -15.5 -1t-30.5 -6.5t-41 -18t-47 -34.5v-254q0 -12 2 -30.5t12.5 -36.5t33.5 -30.5t64 -12.5z" />
    <glyph glyph-name="f_f_b" unicode="ffb" horiz-adv-x="1183" 
d="M806 416q32 32 74.5 53t88.5 21q36 0 67.5 -16.5t55.5 -46.5t37.5 -73t13.5 -95q0 -77 -20.5 -128.5t-52 -82.5t-70 -44.5t-75.5 -13.5q-50 0 -88.5 14.5t-63.5 31.5l-25 -41h-19v665q-18 13 -40.5 20.5t-46.5 8t-47.5 -5t-44.5 -18.5q-8 -7 -14 -19.5t-10.5 -34
t-7 -53.5t-2.5 -78h106v-33h-106v-339q0 -28 3 -45t13 -26.5t30 -13t54 -3.5v-20h-264v20q28 0 45 3.5t26 13t11.5 26.5t2.5 45v339h-243v-339q0 -28 3 -45t13 -26.5t30 -13t54 -3.5v-20h-264v20q28 0 45 3.5t26 13t11.5 26.5t2.5 45v339h-75v33h75v18q0 47 19 87.5t47 70.5
t60 47t58 17q4 0 13 -1.5t14.5 -9.5t3.5 -25t-21 -47l-28 21t-34 13q-11 0 -20.5 -7.5t-16.5 -28.5t-11.5 -58.5t-4.5 -96.5h243v18q0 55 21 97t56 70.5t80 43.5t93 15q29 0 59 -3.5t62 -10.5zM920 20q46 0 73.5 26.5t42.5 64t19.5 78.5t4.5 70q0 28 -6.5 60.5t-20.5 60.5
t-36.5 46t-54.5 18q-3 0 -15.5 -1t-30.5 -6.5t-41 -18t-47 -34.5v-254q0 -12 2 -30.5t12.5 -36.5t33.5 -30.5t64 -12.5z" />
    <glyph glyph-name="f_h" unicode="fh" horiz-adv-x="897" 
d="M508 382q17 25 41 45t50.5 34t54 21.5t50.5 7.5q43 0 73 -28.5t30 -92.5v-261q0 -28 2 -45t10.5 -26.5t24.5 -13t43 -3.5v-20h-231v20q25 0 39 3.5t21.5 13t9.5 26.5t2 45v236q0 50 -20.5 74t-50.5 24q-32 0 -73.5 -25.5t-72.5 -76.5v-232q0 -28 2 -45t9.5 -26.5t22 -13
t39.5 -3.5v-20h-232v20q28 0 44 3.5t24 13t10 26.5t2 45v552q-18 13 -44.5 20.5t-55 8t-56 -5t-48.5 -18.5q-8 -7 -14 -19.5t-10.5 -34t-7 -53.5t-2.5 -78h119v-33h-119v-339q0 -28 3 -45t13 -26.5t30 -13t54 -3.5v-20h-264v20q28 0 45 3.5t26 13t11.5 26.5t2.5 45v339h-75
v33h75v18q0 57 22.5 100t59.5 71t85 42t99 14q34 0 67 -4t63 -11z" />
    <glyph glyph-name="f_f_h" unicode="ffh" horiz-adv-x="1219" 
d="M830 382q17 25 41 45t50.5 34t54 21.5t50.5 7.5q43 0 73 -28.5t30 -92.5v-261q0 -28 2 -45t10.5 -26.5t24.5 -13t43 -3.5v-20h-231v20q25 0 39 3.5t21.5 13t9.5 26.5t2 45v236q0 50 -20.5 74t-50.5 24q-32 0 -73.5 -25.5t-72.5 -76.5v-232q0 -28 2 -45t9.5 -26.5t22 -13
t39.5 -3.5v-20h-232v20q28 0 44 3.5t24 13t10 26.5t2 45v552q-18 13 -44.5 20.5t-55 8t-56 -5t-48.5 -18.5q-8 -7 -14 -19.5t-10.5 -34t-7 -53.5t-2.5 -78h119v-33h-119v-339q0 -28 3 -45t13 -26.5t30 -13t54 -3.5v-20h-264v20q28 0 45 3.5t26 13t11.5 26.5t2.5 45v339h-243
v-339q0 -28 3 -45t13 -26.5t30 -13t54 -3.5v-20h-264v20q28 0 45 3.5t26 13t11.5 26.5t2.5 45v339h-75v33h75v18q0 47 19 87.5t47 70.5t60 47t58 17q4 0 13 -1.5t14.5 -9.5t3.5 -25t-21 -47l-28 21t-34 13q-11 0 -20.5 -7.5t-16.5 -28.5t-11.5 -58.5t-4.5 -96.5h243v18
q0 57 22.5 100t59.5 71t85 42t99 14q34 0 67 -4t63 -11z" />
    <glyph glyph-name="f_j" unicode="fj" horiz-adv-x="595" 
d="M194 447v-339q0 -28 3 -45t13 -26.5t30 -13t54 -3.5v-20h-264v20q28 0 45 3.5t26 13t11.5 26.5t2.5 45v339h-75v33h75v18q0 47 19 87.5t47 70.5t60 47t58 17q4 0 13 -1.5t14.5 -9.5t3.5 -25t-21 -47l-28 21t-34 13q-11 0 -20.5 -7.5t-16.5 -28.5t-11.5 -58.5t-4.5 -96.5
h321l-3 -98v-351q0 -54 -15 -95.5t-38.5 -73t-52.5 -55.5t-58 -44l-11 14q18 13 35 32.5t30.5 48t22 66.5t8.5 89v354q0 24 -1.5 39.5t-8.5 24.5t-22 12.5t-43 3.5h-164zM468 569q-20 14 -36 30t-30 36q29 39 66 65q37 -26 66 -65q-14 -20 -30.5 -36t-35.5 -30z" />
    <glyph glyph-name="f_f_j" unicode="ffj" horiz-adv-x="917" 
d="M516 447v-339q0 -28 3 -45t13 -26.5t30 -13t54 -3.5v-20h-264v20q28 0 45 3.5t26 13t11.5 26.5t2.5 45v339h-243v-339q0 -28 3 -45t13 -26.5t30 -13t54 -3.5v-20h-264v20q28 0 45 3.5t26 13t11.5 26.5t2.5 45v339h-75v33h75v18q0 47 19 87.5t47 70.5t60 47t58 17
q4 0 13 -1.5t14.5 -9.5t3.5 -25t-21 -47l-28 21t-34 13q-11 0 -20.5 -7.5t-16.5 -28.5t-11.5 -58.5t-4.5 -96.5h243v18q0 47 19 87.5t47 70.5t60 47t58 17q4 0 13 -1.5t14.5 -9.5t3.5 -25t-21 -47l-28 21t-34 13q-11 0 -20.5 -7.5t-16.5 -28.5t-11.5 -58.5t-4.5 -96.5h321
l-3 -98v-351q0 -54 -15 -95.5t-38.5 -73t-52.5 -55.5t-58 -44l-11 14q18 13 35 32.5t30.5 48t22 66.5t8.5 89v354q0 24 -1.5 39.5t-8.5 24.5t-22 12.5t-43 3.5h-164zM790 569q-20 14 -36 30t-30 36q29 39 66 65q37 -26 66 -65q-14 -20 -30.5 -36t-35.5 -30z" />
    <glyph glyph-name="f_k" unicode="fk" horiz-adv-x="880" 
d="M511 253h28l149 154q10 11 14.5 21t0 17t-20 11t-44.5 4v20h211v-20q-23 0 -39 -2.5t-29.5 -8t-25 -15t-24.5 -24.5l-127 -133l157 -194q16 -20 30 -32.5t26.5 -19.5t25.5 -9t27 -2v-20q-40 1 -80 0.5t-75 -0.5q-12 28 -55 82l-114 145h-35v-119q0 -28 2 -45t9.5 -26.5
t22 -13t39.5 -3.5v-20h-232v20q28 0 44 3.5t24 13t10 26.5t2 45v552q-18 13 -44.5 20.5t-55 8t-56 -5t-48.5 -18.5q-8 -7 -14 -19.5t-10.5 -34t-7 -53.5t-2.5 -78h114v-33h-114v-339q0 -28 3 -45t13 -26.5t30 -13t54 -3.5v-20h-264v20q28 0 45 3.5t26 13t11.5 26.5t2.5 45
v339h-75v33h75v18q0 57 22.5 100t59.5 71t85 42t99 14q34 0 67 -4t63 -11v-457z" />
    <glyph glyph-name="f_f_k" unicode="ffk" horiz-adv-x="1202" 
d="M833 253h28l149 154q10 11 14.5 21t0 17t-20 11t-44.5 4v20h211v-20q-23 0 -39 -2.5t-29.5 -8t-25 -15t-24.5 -24.5l-127 -133l157 -194q16 -20 30 -32.5t26.5 -19.5t25.5 -9t27 -2v-20q-40 1 -80 0.5t-75 -0.5q-12 28 -55 82l-114 145h-35v-119q0 -28 2 -45t9.5 -26.5
t22 -13t39.5 -3.5v-20h-232v20q28 0 44 3.5t24 13t10 26.5t2 45v552q-18 13 -44.5 20.5t-55 8t-56 -5t-48.5 -18.5q-8 -7 -14 -19.5t-10.5 -34t-7 -53.5t-2.5 -78h114v-33h-114v-339q0 -28 3 -45t13 -26.5t30 -13t54 -3.5v-20h-264v20q28 0 45 3.5t26 13t11.5 26.5t2.5 45
v339h-243v-339q0 -28 3 -45t13 -26.5t30 -13t54 -3.5v-20h-264v20q28 0 45 3.5t26 13t11.5 26.5t2.5 45v339h-75v33h75v18q0 47 19 87.5t47 70.5t60 47t58 17q4 0 13 -1.5t14.5 -9.5t3.5 -25t-21 -47l-28 21t-34 13q-11 0 -20.5 -7.5t-16.5 -28.5t-11.5 -58.5t-4.5 -96.5
h243v18q0 57 22.5 100t59.5 71t85 42t99 14q34 0 67 -4t63 -11v-457z" />
    <glyph glyph-name="f_r" unicode="fr" horiz-adv-x="731" 
d="M514 480l-3 -113q16 28 36.5 52.5t43.5 41.5t47.5 25t47.5 2q4 -1 12 -7t11.5 -18t-3.5 -30t-33 -42q-13 8 -31 14t-39 2.5t-44.5 -20t-47.5 -53.5v-226q0 -28 3 -45t13 -26.5t30 -13t53 -3.5v-20h-258v20q28 0 44 3.5t24 13t10 26.5t2 45v289q0 21 -10 35.5t-42 14.5
h-186v-339q0 -28 3 -45t13 -26.5t30 -13t54 -3.5v-20h-264v20q28 0 45 3.5t26 13t11.5 26.5t2.5 45v339h-75v33h75v18q0 47 19 87.5t47 70.5t60 47t58 17q4 0 13 -1.5t14.5 -9.5t3.5 -25t-21 -47l-28 21t-34 13q-11 0 -20.5 -7.5t-16.5 -28.5t-11.5 -58.5t-4.5 -96.5h320z
" />
    <glyph glyph-name="f_f_r" unicode="ffr" horiz-adv-x="1053" 
d="M836 480l-3 -113q16 28 36.5 52.5t43.5 41.5t47.5 25t47.5 2q4 -1 12 -7t11.5 -18t-3.5 -30t-33 -42q-13 8 -31 14t-39 2.5t-44.5 -20t-47.5 -53.5v-226q0 -28 3 -45t13 -26.5t30 -13t53 -3.5v-20h-258v20q28 0 44 3.5t24 13t10 26.5t2 45v289q0 21 -10 35.5t-42 14.5
h-186v-339q0 -28 3 -45t13 -26.5t30 -13t54 -3.5v-20h-264v20q28 0 45 3.5t26 13t11.5 26.5t2.5 45v339h-243v-339q0 -28 3 -45t13 -26.5t30 -13t54 -3.5v-20h-264v20q28 0 45 3.5t26 13t11.5 26.5t2.5 45v339h-75v33h75v18q0 47 19 87.5t47 70.5t60 47t58 17q4 0 13 -1.5
t14.5 -9.5t3.5 -25t-21 -47l-28 21t-34 13q-11 0 -20.5 -7.5t-16.5 -28.5t-11.5 -58.5t-4.5 -96.5h243v18q0 47 19 87.5t47 70.5t60 47t58 17q4 0 13 -1.5t14.5 -9.5t3.5 -25t-21 -47l-28 21t-34 13q-11 0 -20.5 -7.5t-16.5 -28.5t-11.5 -58.5t-4.5 -96.5h320z" />
    <glyph glyph-name="f_t" unicode="ft" horiz-adv-x="653" 
d="M491 480h129v-33h-129v-294q0 -47 10 -75.5t29.5 -40.5t47.5 -9t65 18l10 -18q-58 -29 -98 -35t-67 2.5t-42 27.5t-22.5 40.5t-9.5 40.5t-2 28v315h-218v-339q0 -28 3 -45t13 -26.5t30 -13t54 -3.5v-20h-264v20q28 0 45 3.5t26 13t11.5 26.5t2.5 45v339h-75v33h75v18
q0 47 19 87.5t47 70.5t60 47t58 17q4 0 13 -1.5t14.5 -9.5t3.5 -25t-21 -47l-28 21t-34 13q-11 0 -20.5 -7.5t-16.5 -28.5t-11.5 -58.5t-4.5 -96.5h201q35 9 53.5 37.5t32.5 79.5h10v-117z" />
    <glyph glyph-name="f_f_t" unicode="fft" horiz-adv-x="975" 
d="M813 480h129v-33h-129v-294q0 -47 10 -75.5t29.5 -40.5t47.5 -9t65 18l10 -18q-58 -29 -98 -35t-67 2.5t-42 27.5t-22.5 40.5t-9.5 40.5t-2 28v315h-218v-339q0 -28 3 -45t13 -26.5t30 -13t54 -3.5v-20h-264v20q28 0 45 3.5t26 13t11.5 26.5t2.5 45v339h-243v-339
q0 -28 3 -45t13 -26.5t30 -13t54 -3.5v-20h-264v20q28 0 45 3.5t26 13t11.5 26.5t2.5 45v339h-75v33h75v18q0 47 19 87.5t47 70.5t60 47t58 17q4 0 13 -1.5t14.5 -9.5t3.5 -25t-21 -47l-28 21t-34 13q-11 0 -20.5 -7.5t-16.5 -28.5t-11.5 -58.5t-4.5 -96.5h243v18
q0 47 19 87.5t47 70.5t60 47t58 17q4 0 13 -1.5t14.5 -9.5t3.5 -25t-21 -47l-28 21t-34 13q-11 0 -20.5 -7.5t-16.5 -28.5t-11.5 -58.5t-4.5 -96.5h201q35 9 53.5 37.5t32.5 79.5h10v-117z" />
    <glyph glyph-name="f_t_y" unicode="fty" horiz-adv-x="1165" 
d="M491 480h385v-20q-26 0 -39 -4.5t-17 -13t-1 -22t10 -31.5l101 -292l112 292q14 37 4.5 54t-57.5 17v20h166v-20q-22 0 -34.5 -5.5t-20.5 -15.5t-13 -23l-11 -29l-155 -392q-15 -38 -35.5 -80t-45.5 -77t-54 -58t-60 -23q-4 0 -13.5 4t-16 14.5t-5 29t20.5 48.5
q15 -4 36 -4.5t44.5 13t49 47t51.5 97.5l-173 441h-229v-294q0 -47 10 -75.5t29.5 -40.5t47.5 -9t65 18l10 -18q-58 -29 -98 -35t-67 2.5t-42 27.5t-22.5 40.5t-9.5 40.5t-2 28v315h-218v-339q0 -28 3 -45t13 -26.5t30 -13t54 -3.5v-20h-264v20q28 0 45 3.5t26 13t11.5 26.5
t2.5 45v339h-75v33h75v18q0 47 19 87.5t47 70.5t60 47t58 17q4 0 13 -1.5t14.5 -9.5t3.5 -25t-21 -47l-28 21t-34 13q-11 0 -20.5 -7.5t-16.5 -28.5t-11.5 -58.5t-4.5 -96.5h201q35 9 53.5 37.5t32.5 79.5h10v-117z" />
    <glyph glyph-name="t_t" unicode="tt" horiz-adv-x="662" 
d="M169 480h235q35 9 53.5 37.5t32.5 79.5h10v-117h129v-33h-129v-294q0 -47 10 -75.5t29.5 -40.5t47.5 -9t65 18l10 -18q-58 -29 -98 -35t-67 2.5t-42 27.5t-22.5 40.5t-9.5 40.5t-2 28v315h-252v-294q0 -47 10 -75.5t29.5 -40.5t47.5 -9t65 18l10 -18q-58 -29 -98 -35
t-67 2.5t-42 27.5t-22.5 40.5t-9.5 40.5t-2 28v315h-60v28q30 0 50.5 7t35 22t24.5 38t19 55h10v-117z" />
    <glyph glyph-name="t_f" unicode="tf" horiz-adv-x="653" 
d="M169 480h277v18q0 47 19 87.5t47 70.5t60 47t58 17q4 0 13 -1.5t14.5 -9.5t3.5 -25t-21 -47l-28 21t-34 13q-11 0 -20.5 -7.5t-16.5 -28.5t-11.5 -58.5t-4.5 -96.5h114v-33h-114v-339q0 -28 3 -45t13 -26.5t30 -13t54 -3.5v-20h-264v20q28 0 45 3.5t26 13t11.5 26.5
t2.5 45v339h-277v-294q0 -47 10 -75.5t29.5 -40.5t47.5 -9t65 18l10 -18q-58 -29 -98 -35t-67 2.5t-42 27.5t-22.5 40.5t-9.5 40.5t-2 28v315h-60v28q30 0 50.5 7t35 22t24.5 38t19 55h10v-117z" />
    <glyph glyph-name="t_t_f" unicode="ttf" horiz-adv-x="984" 
d="M169 480h235q35 9 53.5 37.5t32.5 79.5h10v-117h277v18q0 47 19 87.5t47 70.5t60 47t58 17q4 0 13 -1.5t14.5 -9.5t3.5 -25t-21 -47l-28 21t-34 13q-11 0 -20.5 -7.5t-16.5 -28.5t-11.5 -58.5t-4.5 -96.5h114v-33h-114v-339q0 -28 3 -45t13 -26.5t30 -13t54 -3.5v-20
h-264v20q28 0 45 3.5t26 13t11.5 26.5t2.5 45v339h-277v-294q0 -47 10 -75.5t29.5 -40.5t47.5 -9t65 18l10 -18q-58 -29 -98 -35t-67 2.5t-42 27.5t-22.5 40.5t-9.5 40.5t-2 28v315h-252v-294q0 -47 10 -75.5t29.5 -40.5t47.5 -9t65 18l10 -18q-58 -29 -98 -35t-67 2.5
t-42 27.5t-22.5 40.5t-9.5 40.5t-2 28v315h-60v28q30 0 50.5 7t35 22t24.5 38t19 55h10v-117z" />
    <glyph glyph-name="t_i" unicode="ti" horiz-adv-x="603" 
d="M523 480l-3 -98v-274q0 -28 2 -45t9.5 -26.5t22 -13t39.5 -3.5v-20h-232v20q28 0 44 3.5t24 13t10 26.5t2 45v259q0 28 -1.5 44t-8.5 24t-22 10t-43 2h-197v-294q0 -47 10 -75.5t29.5 -40.5t47.5 -9t65 18l10 -18q-58 -29 -98 -35t-67 2.5t-42 27.5t-22.5 40.5t-9.5 40.5
t-2 28v315h-60v28q30 0 50.5 7t35 22t24.5 38t19 55h10v-117h354zM477 569q-20 14 -36 30t-30 36q29 39 66 65q37 -26 66 -65q-14 -20 -30.5 -36t-35.5 -30z" />
    <glyph glyph-name="t_t_i" unicode="tti" horiz-adv-x="934" 
d="M169 480h235q35 9 53.5 37.5t32.5 79.5h10v-117h354l-3 -98v-274q0 -28 2 -45t9.5 -26.5t22 -13t39.5 -3.5v-20h-232v20q28 0 44 3.5t24 13t10 26.5t2 45v259q0 28 -1.5 44t-8.5 24t-22 10t-43 2h-197v-294q0 -47 10 -75.5t29.5 -40.5t47.5 -9t65 18l10 -18
q-58 -29 -98 -35t-67 2.5t-42 27.5t-22.5 40.5t-9.5 40.5t-2 28v315h-252v-294q0 -47 10 -75.5t29.5 -40.5t47.5 -9t65 18l10 -18q-58 -29 -98 -35t-67 2.5t-42 27.5t-22.5 40.5t-9.5 40.5t-2 28v315h-60v28q30 0 50.5 7t35 22t24.5 38t19 55h10v-117zM808 569
q-20 14 -36 30t-30 36q29 39 66 65q37 -26 66 -65q-14 -20 -30.5 -36t-35.5 -30z" />
    <glyph glyph-name="t_r" unicode="tr" horiz-adv-x="740" 
d="M169 447v-294q0 -47 10 -75.5t29.5 -40.5t47.5 -9t65 18l10 -18q-58 -29 -98 -35t-67 2.5t-42 27.5t-22.5 40.5t-9.5 40.5t-2 28v315h-60v28q30 0 50.5 7t35 22t24.5 38t19 55h10v-117h354l-3 -113q16 28 36.5 52.5t43.5 41.5t47.5 25t47.5 2q4 -1 12 -7t11.5 -18
t-3.5 -30t-33 -42q-13 8 -31 14t-39 2.5t-44.5 -20t-47.5 -53.5v-226q0 -28 3 -45t13 -26.5t30 -13t53 -3.5v-20h-258v20q28 0 44 3.5t24 13t10 26.5t2 45v259q0 28 -1.5 44t-8.5 24t-22 10t-43 2h-197z" />
    <glyph glyph-name="t_t_r" unicode="ttr" horiz-adv-x="1071" 
d="M169 480h235q35 9 53.5 37.5t32.5 79.5h10v-117h354l-3 -113q16 28 36.5 52.5t43.5 41.5t47.5 25t47.5 2q4 -1 12 -7t11.5 -18t-3.5 -30t-33 -42q-13 8 -31 14t-39 2.5t-44.5 -20t-47.5 -53.5v-226q0 -28 3 -45t13 -26.5t30 -13t53 -3.5v-20h-258v20q28 0 44 3.5t24 13
t10 26.5t2 45v259q0 28 -1.5 44t-8.5 24t-22 10t-43 2h-197v-294q0 -47 10 -75.5t29.5 -40.5t47.5 -9t65 18l10 -18q-58 -29 -98 -35t-67 2.5t-42 27.5t-22.5 40.5t-9.5 40.5t-2 28v315h-252v-294q0 -47 10 -75.5t29.5 -40.5t47.5 -9t65 18l10 -18q-58 -29 -98 -35t-67 2.5
t-42 27.5t-22.5 40.5t-9.5 40.5t-2 28v315h-60v28q30 0 50.5 7t35 22t24.5 38t19 55h10v-117z" />
    <glyph glyph-name="t_y" unicode="ty" horiz-adv-x="843" 
d="M599 -5q-15 -38 -35.5 -80t-45.5 -77t-54 -58t-60 -23q-4 0 -13.5 4t-16 14.5t-5 29t20.5 48.5q15 -4 36 -4.5t44.5 13t49 47t51.5 97.5l-172 441h-230v-294q0 -47 10 -75.5t29.5 -40.5t47.5 -9t65 18l10 -18q-58 -29 -98 -35t-67 2.5t-42 27.5t-22.5 40.5t-9.5 40.5
t-2 28v315h-60v28q30 0 50.5 7t35 22t24.5 38t19 55h10v-117h385v-20q-26 0 -39 -4.5t-17 -13t-1 -22t10 -31.5l101 -292l112 292q14 37 4.5 54t-57.5 17v20h166v-20q-22 0 -34.5 -5.5t-20.5 -15.5t-13 -23l-11 -29z" />
    <glyph glyph-name="t_t_y" unicode="tty" horiz-adv-x="1174" 
d="M169 480h235q35 9 53.5 37.5t32.5 79.5h10v-117h385v-20q-26 0 -39 -4.5t-17 -13t-1 -22t10 -31.5l101 -292l112 292q14 37 4.5 54t-57.5 17v20h166v-20q-22 0 -34.5 -5.5t-20.5 -15.5t-13 -23l-11 -29l-155 -392q-15 -38 -35.5 -80t-45.5 -77t-54 -58t-60 -23
q-4 0 -13.5 4t-16 14.5t-5 29t20.5 48.5q15 -4 36 -4.5t44.5 13t49 47t51.5 97.5l-173 441h-229v-294q0 -47 10 -75.5t29.5 -40.5t47.5 -9t65 18l10 -18q-58 -29 -98 -35t-67 2.5t-42 27.5t-22.5 40.5t-9.5 40.5t-2 28v315h-252v-294q0 -47 10 -75.5t29.5 -40.5t47.5 -9
t65 18l10 -18q-58 -29 -98 -35t-67 2.5t-42 27.5t-22.5 40.5t-9.5 40.5t-2 28v315h-60v28q30 0 50.5 7t35 22t24.5 38t19 55h10v-117z" />
    <glyph glyph-name="T_h" unicode="Th" horiz-adv-x="1101" 
d="M788 0h-232v20q28 0 44 3.5t24 13t10 26.5t2 45v559h-257v-555q0 -27 4 -44.5t16.5 -28t35.5 -15t62 -4.5v-20h-318v20q39 0 62 4.5t35.5 15t16.5 28t4 44.5v555h-116q-39 0 -64 -2t-40 -12.5t-23 -33t-14 -62.5h-20l5 143h536l154 10l-3 -328q17 25 41 45t50.5 34
t54 21.5t50.5 7.5q43 0 73 -28.5t30 -92.5v-261q0 -28 2 -45t10.5 -26.5t24.5 -13t43 -3.5v-20h-231v20q25 0 39 3.5t21.5 13t9.5 26.5t2 45v236q0 50 -20.5 74t-50.5 24q-32 0 -73.5 -25.5t-72.5 -76.5v-232q0 -28 2 -45t9.5 -26.5t22 -13t39.5 -3.5v-20z" />
    <glyph glyph-name="T_h.caron" unicode="&#x164;h" horiz-adv-x="1101" 
d="M788 0h-232v20q28 0 44 3.5t24 13t10 26.5t2 45v559h-257v-555q0 -27 4 -44.5t16.5 -28t35.5 -15t62 -4.5v-20h-318v20q39 0 62 4.5t35.5 15t16.5 28t4 44.5v555h-116q-39 0 -64 -2t-40 -12.5t-23 -33t-14 -62.5h-20l5 143h536l154 10l-3 -328q17 25 41 45t50.5 34
t54 21.5t50.5 7.5q43 0 73 -28.5t30 -92.5v-261q0 -28 2 -45t10.5 -26.5t24.5 -13t43 -3.5v-20h-231v20q25 0 39 3.5t21.5 13t9.5 26.5t2 45v236q0 50 -20.5 74t-50.5 24q-32 0 -73.5 -25.5t-72.5 -76.5v-232q0 -28 2 -45t9.5 -26.5t22 -13t39.5 -3.5v-20zM489 913
l-125 -167h-54l-123 167h24l126 -104l127 104h25z" />
    <glyph glyph-name="T_h.commaaccent" unicode="&#x162;h" horiz-adv-x="1101" 
d="M788 0h-232v20q28 0 44 3.5t24 13t10 26.5t2 45v559h-257v-555q0 -27 4 -44.5t16.5 -28t35.5 -15t62 -4.5v-20h-318v20q39 0 62 4.5t35.5 15t16.5 28t4 44.5v555h-116q-39 0 -64 -2t-40 -12.5t-23 -33t-14 -62.5h-20l5 143h536l154 10l-3 -328q17 25 41 45t50.5 34
t54 21.5t50.5 7.5q43 0 73 -28.5t30 -92.5v-261q0 -28 2 -45t10.5 -26.5t24.5 -13t43 -3.5v-20h-231v20q25 0 39 3.5t21.5 13t9.5 26.5t2 45v236q0 50 -20.5 74t-50.5 24q-32 0 -73.5 -25.5t-72.5 -76.5v-232q0 -28 2 -45t9.5 -26.5t22 -13t39.5 -3.5v-20zM281 -271
q23 19 35.5 42t18.5 46q-18 14 -32.5 28.5t-28.5 32.5q14 17 29 31.5t32 28.5q17 -14 32 -28.5t29 -31.5q0 -43 -22.5 -85t-76.5 -81z" />
    <glyph glyph-name=".notdef" horiz-adv-x="240" 
 />
    <glyph glyph-name=".null" horiz-adv-x="0" 
 />
    <glyph glyph-name="nonmarkingreturn" horiz-adv-x="240" 
 />
    <glyph glyph-name="space" unicode=" " horiz-adv-x="240" 
 />
    <glyph glyph-name="exclam" unicode="!" horiz-adv-x="312" 
d="M143 201q0 25 -3 66.5t-8 91l-10.5 102.5l-10.5 100.5t-8 84.5t-3 54h112q0 -18 -3.5 -54.5l-8 -84t-10.5 -100.5t-10.5 -102.5l-8 -91t-3.5 -66.5h-25zM156 -10q-23 17 -41 35t-35 41q17 22 35.5 40t40.5 35q22 -17 40.5 -35t35.5 -40q-17 -23 -35.5 -41t-40.5 -35z" />
    <glyph glyph-name="quotedbl" unicode="&#x22;" horiz-adv-x="412" 
d="M102 473l-22 262h90l-22 -262h-46zM264 473l-22 262h90l-22 -262h-46z" />
    <glyph glyph-name="numbersign" unicode="#" horiz-adv-x="564" 
d="M416 430l-29 -164h120l-8 -46h-120l-38 -213h-46l38 213h-146l-38 -213h-46l37 213h-120l8 46h120l29 164h-120l9 47h119l38 213h46l-37 -213h146l38 213h46l-38 -213h120l-8 -47h-120zM370 430h-146l-29 -164h146z" />
    <glyph glyph-name="dollar" unicode="$" horiz-adv-x="510" 
d="M236 -60v68q-64 1 -108.5 16.5t-77.5 36.5l6 133h20q4 -48 19 -78.5t37.5 -47.5t50 -23t57.5 -6q35 0 60.5 10.5t42 28.5t24.5 41t8 47q0 43 -24 72t-59.5 50.5t-77.5 40t-77.5 42.5t-59.5 57.5t-24 83.5q0 42 15 73t40 52t58.5 33t69.5 17v73h33v-70q99 0 159 -33
l-8 -121h-20q1 30 -9 53t-27.5 38.5t-40 23.5t-46.5 8q-26 0 -50.5 -8t-44.5 -24t-32 -40.5t-12 -57.5q0 -41 24 -67t59.5 -45.5t77.5 -37t77.5 -40.5t59.5 -56t24 -84q0 -80 -50 -131t-141 -59v-69h-33z" />
    <glyph glyph-name="percent" unicode="%" horiz-adv-x="761" 
d="M580 720l33 -20l-433 -717l-33 20zM701 161q0 -36 -12.5 -67t-34 -54.5t-50.5 -36.5t-63 -13t-63 13t-50.5 36.5t-34 54.5t-12.5 67t12.5 67t34 54.5t50.5 36.5t63 13t63 -13t50.5 -36.5t34 -54.5t12.5 -67zM453 161q0 -29 4 -55t14.5 -45t27 -30t42.5 -11q25 0 42 11
t27 30t14.5 45t4.5 55t-4.5 55t-14.5 45t-27 30t-42 11q-26 0 -42.5 -11t-27 -30t-14.5 -45t-4 -55zM380 539q0 -36 -12.5 -67t-34 -54.5t-50.5 -36.5t-63 -13t-63 13t-50.5 36.5t-34 54.5t-12.5 67t12.5 67t34 54.5t50.5 36.5t63 13t63 -13t50.5 -36.5t34 -54.5t12.5 -67z
M132 539q0 -29 4 -55t14.5 -45t27 -30t42.5 -11q25 0 42 11t27 30t14.5 45t4.5 55t-4.5 55t-14.5 45t-27 30t-42 11q-26 0 -42.5 -11t-27 -30t-14.5 -45t-4 -55z" />
    <glyph glyph-name="ampersand" unicode="&#x26;" horiz-adv-x="764" 
d="M462 573q0 -28 -12.5 -51t-35.5 -43t-54.5 -38t-68.5 -35q19 -35 42.5 -71t49 -70.5t52.5 -66t54 -57.5q48 45 78.5 102.5t34.5 111.5q0 13 -9.5 21.5t-44.5 8.5v20h181v-20q-32 0 -52.5 -5.5t-25.5 -25.5q-16 -71 -49.5 -133t-79.5 -111q32 -26 60.5 -41t53.5 -15
q32 0 54 12t39 29l15 -10q-31 -45 -67.5 -68t-85.5 -23q-30 0 -63.5 16t-68.5 44q-43 -32 -89.5 -49t-93.5 -17q-54 0 -94.5 16.5t-67.5 43.5t-40.5 62t-13.5 73q0 30 7 58t23.5 54.5t43 51.5t66.5 49q-23 48 -36 90t-13 74q0 24 10 48.5t29.5 45t49.5 33.5t71 13
q45 0 74 -12.5t46.5 -31t24 -41t6.5 -42.5zM296 57q32 0 63 8.5t60 24.5q-56 54 -108.5 125.5t-90.5 143.5q-14 -15 -27 -33.5t-24 -38.5t-17.5 -41.5t-6.5 -41.5q0 -69 41 -108t110 -39zM223 590q0 -27 14 -66.5t38 -86.5q50 29 82.5 63.5t32.5 73.5q0 12 -3.5 30t-12 34
t-24 27.5t-39.5 11.5t-41 -8.5t-27.5 -21t-15 -28t-4.5 -29.5z" />
    <glyph glyph-name="quotesingle" unicode="'" horiz-adv-x="250" 
d="M102 473l-22 262h90l-22 -262h-46z" />
    <glyph glyph-name="parenleft" unicode="(" horiz-adv-x="344" 
d="M80 268q0 73 15 141t42 127t64.5 107t83.5 82l19 -20q-71 -73 -115 -186t-44 -251t44 -250.5t115 -185.5l-19 -20q-46 34 -83.5 82t-64.5 106.5t-42 126.5t-15 141z" />
    <glyph glyph-name="parenright" unicode=")" horiz-adv-x="345" 
d="M265 268q0 -74 -15 -141.5t-42 -126t-65 -106.5t-84 -82l-19 20q71 73 115 185.5t44 250.5t-44 251t-115 186l19 20q46 -34 84 -82t65 -107t42 -127t15 -141z" />
    <glyph glyph-name="asterisk" unicode="*" horiz-adv-x="455" 
d="M212 356l-9 141l-128 -63l-15 28l118 78l-118 79l15 27l128 -63l9 142h32l9 -142l127 63l15 -27l-118 -78l118 -79l-16 -27l-127 63l-9 -142h-31z" />
    <glyph glyph-name="plus" unicode="+" horiz-adv-x="593" 
d="M513 350v-50h-191v-192h-50v192h-192v50h192v192h50v-192h191z" />
    <glyph glyph-name="comma" unicode="," horiz-adv-x="312" 
d="M156 -10q-23 17 -41 35t-35 41q17 22 35.5 40t40.5 35q22 -17 40.5 -35t35.5 -40q0 -54 -28 -106t-95 -101l-20 21q28 23 43.5 52t23.5 58z" />
    <glyph glyph-name="hyphen" unicode="-" horiz-adv-x="446" 
d="M335 204h-235l11 65h235z" />
    <glyph glyph-name="period" unicode="." horiz-adv-x="312" 
d="M156 -10q-23 17 -41 35t-35 41q17 22 35.5 40t40.5 35q22 -17 40.5 -35t35.5 -40q-17 -23 -35.5 -41t-40.5 -35z" />
    <glyph glyph-name="slash" unicode="/" horiz-adv-x="444" 
d="M141 -12h-61l223 728h61z" />
    <glyph glyph-name="zero" unicode="0" horiz-adv-x="597" 
d="M150 350q0 -68 11 -127.5t30.5 -103.5t47 -70t60.5 -26t60 26t46.5 70t30.5 103.5t11 127.5t-11 127.5t-30.5 104t-46.5 70.5t-60 26t-60.5 -26t-47 -70.5t-30.5 -104t-11 -127.5zM537 350q0 -75 -17 -140.5t-48.5 -114t-75.5 -77t-97 -28.5q-54 0 -98 28.5t-75.5 77
t-48.5 114t-17 140.5t17 140.5t48.5 114.5t75.5 77t98 28q53 0 97 -28t75.5 -77t48.5 -114.5t17 -140.5z" />
    <glyph glyph-name="one" unicode="1" horiz-adv-x="373" 
d="M40 0v20q36 0 57 3.5t32.5 13.5t14.5 28t3 47v461q0 27 -3.5 43.5t-15 26.5t-32.5 13.5t-56 3.5v20l169 25h20v-593q0 -29 2 -47t12 -27.5t31 -13t59 -4.5v-20h-293z" />
    <glyph glyph-name="two" unicode="2" horiz-adv-x="547" 
d="M50 20l104.5 99t105 114.5t81.5 127t33 136.5q0 69 -38.5 107.5t-100.5 38.5q-44 0 -87 -26.5t-69 -76.5l-18 9q15 38 38.5 68t52.5 50.5t62.5 31.5t66.5 11q45 0 79.5 -14t57 -39.5t34 -60.5t11.5 -76q0 -44 -18.5 -89.5t-48 -89.5t-66 -85t-71.5 -75.5t-65.5 -61.5
l-47.5 -43h351l-18 -76h-409z" />
    <glyph glyph-name="three" unicode="3" horiz-adv-x="538" 
d="M271 710q36 0 68 -11.5t57 -32.5t39.5 -49.5t14.5 -62.5q0 -33 -12.5 -63t-33 -54t-47 -41.5t-55.5 -25.5v-2q45 -6 78.5 -22.5t55 -40.5t32 -52.5t10.5 -57.5q0 -50 -21.5 -88t-56.5 -64t-79 -39.5t-89 -13.5q-35 0 -67.5 8.5t-58 25t-41 41t-15.5 57.5q0 20 8 27.5
t20.5 6.5t27 -7.5t27.5 -14.5q-14 -53 15.5 -83.5t84.5 -30.5q38 0 67 15t48.5 40t29 56.5t9.5 63.5q0 30 -8.5 58.5t-25 50t-41.5 34.5t-59 13h-53v30h39q28 0 51.5 10.5t40.5 29t26.5 43.5t9.5 54q0 31 -11.5 54t-30.5 39t-43 24t-49 8q-39 0 -66.5 -11.5t-46.5 -28
t-31 -34t-19 -29.5l-18 9q11 31 32 60t50 51.5t64 36t73 13.5z" />
    <glyph glyph-name="four" unicode="4" horiz-adv-x="571" 
d="M427 182v-70q0 -29 2.5 -47t13 -28t31.5 -13.5t57 -3.5v-20h-293v20q35 0 56 3.5t32.5 13.5t15 28t3.5 47v70h-305v60l341 463h46v-463h93l-14 -60h-79zM345 242v352l-260 -352h260z" />
    <glyph glyph-name="five" unicode="5" horiz-adv-x="541" 
d="M232 -10q-35 0 -67.5 8.5t-58 25t-41 41t-15.5 57.5q0 20 8 27.5t20.5 6.5t27 -7.5t27.5 -14.5q-14 -53 15.5 -83.5t84.5 -30.5q23 0 52.5 8t55.5 28t43.5 52.5t17.5 82.5q0 52 -29 91.5t-74 67.5t-99 45.5t-103 26.5l15 278h345l-18 -76h-291l-7 -152q96 -6 161.5 -32.5
t105 -63t56.5 -78t17 -77.5q0 -62 -25 -106t-62.5 -71.5t-81 -40.5t-80.5 -13z" />
    <glyph glyph-name="six" unicode="6" horiz-adv-x="561" 
d="M422 689q-47 -17 -89.5 -44.5t-77.5 -68.5t-61 -97t-40 -130q37 34 76.5 50t78.5 16q38 0 73 -14.5t61.5 -42t42 -66.5t15.5 -88q0 -51 -20 -91t-52 -67.5t-71.5 -41.5t-79.5 -14q-56 0 -97 24t-68 61.5t-40 84t-13 92.5q0 71 18 130.5t47 108.5t66.5 87.5t76.5 65.5
t77 43.5t67 22.5zM269 368q-29 0 -60 -13.5t-59 -42.5q-6 -38 -4.5 -88t15.5 -95.5t43 -77t79 -31.5q18 0 40.5 7t42.5 25.5t33.5 50t13.5 81.5q0 42 -11.5 76t-31.5 58t-46 37t-55 13z" />
    <glyph glyph-name="seven" unicode="7" horiz-adv-x="502" 
d="M137 624q-21 0 -35.5 -1t-24.5 -8t-16.5 -21t-10.5 -41h-20l15 147h422l20 -20l-263 -680h-101l307 624h-293z" />
    <glyph glyph-name="eight" unicode="8" horiz-adv-x="543" 
d="M469 551q0 -33 -12 -61t-30.5 -50t-42 -38.5t-45.5 -27.5q19 -9 43.5 -25t47 -40.5t38 -58t15.5 -76.5q0 -38 -14.5 -71.5t-42.5 -58.5t-68 -39.5t-91 -14.5q-38 0 -75.5 8t-66.5 27.5t-47 53t-18 85.5q0 36 13 66t34.5 54t48.5 42t54 30q-15 8 -36.5 23.5t-42 38
t-35 51.5t-14.5 65q0 42 18 74.5t46.5 55t64 34.5t71.5 12q34 0 67.5 -10t60 -30t43 -49.5t16.5 -69.5zM164 555q0 -36 14.5 -62.5t35 -46t43.5 -32t40 -20.5q15 10 31 24.5t29 34t21 45t8 57.5q0 40 -13 64.5t-30.5 37.5t-36 17.5t-28.5 4.5q-6 0 -24.5 -4t-38.5 -16.5
t-35.5 -37t-15.5 -66.5zM271 20q20 0 42.5 7.5t41.5 24t31.5 43.5t12.5 66q0 31 -17.5 59t-42 51t-50.5 39.5t-44 25.5q-19 -11 -37 -27.5t-32.5 -37.5t-23 -47t-8.5 -56q0 -38 12 -66t31 -46t41 -27t43 -9z" />
    <glyph glyph-name="nine" unicode="9" horiz-adv-x="561" 
d="M139 11q47 17 89.5 44.5t77.5 68.5t61 97t40 130q-37 -34 -76.5 -50t-78.5 -16q-38 0 -73 14.5t-61.5 42t-42 66.5t-15.5 88q0 51 20 91t52 67.5t71.5 41.5t79.5 14q55 0 96 -24t68 -61.5t40.5 -84t13.5 -92.5q0 -71 -18 -130.5t-47 -108.5t-66.5 -87.5t-76.5 -65.5
t-77 -43.5t-67 -22.5zM292 332q29 0 60 13.5t59 42.5q4 25 4.5 56.5t-3 64t-12.5 63t-25.5 55t-40 39t-56.5 14.5q-18 0 -40.5 -7t-42.5 -25.5t-33.5 -50.5t-13.5 -81q0 -42 11.5 -76t31.5 -58t46 -37t55 -13z" />
    <glyph glyph-name="colon" unicode=":" horiz-adv-x="312" 
d="M156 283q-23 17 -41 35t-35 41q17 22 35.5 40t40.5 35q22 -17 40.5 -35t35.5 -40q-17 -23 -35.5 -41t-40.5 -35zM156 -10q-23 17 -41 35t-35 41q17 22 35.5 40t40.5 35q22 -17 40.5 -35t35.5 -40q-17 -23 -35.5 -41t-40.5 -35z" />
    <glyph glyph-name="semicolon" unicode=";" horiz-adv-x="312" 
d="M156 -10q-23 17 -41 35t-35 41q17 22 35.5 40t40.5 35q22 -17 40.5 -35t35.5 -40q0 -54 -28 -106t-95 -101l-20 21q28 23 43.5 52t23.5 58zM156 283q-23 17 -41 35t-35 41q17 22 35.5 40t40.5 35q22 -17 40.5 -35t35.5 -40q-17 -23 -35.5 -41t-40.5 -35z" />
    <glyph glyph-name="less" unicode="&#x3c;" horiz-adv-x="545" 
d="M465 31l-385 186v83l385 186v-67l-341 -161l341 -160v-67z" />
    <glyph glyph-name="equal" unicode="=" horiz-adv-x="593" 
d="M513 419v-50h-433v50h433zM513 236v-50h-433v50h433z" />
    <glyph glyph-name="greater" unicode="&#x3e;" horiz-adv-x="545" 
d="M80 98l341 160l-341 161v67l385 -186v-83l-385 -186v67z" />
    <glyph glyph-name="question" unicode="?" horiz-adv-x="518" 
d="M237 710q39 0 75.5 -17.5t64.5 -48.5t44.5 -72t16.5 -88q0 -45 -15.5 -76t-39.5 -53t-53.5 -36.5t-57.5 -26.5q-17 -7 -23.5 -20t-7 -26.5t1.5 -26t2 -18.5h-26l-33 164q38 0 75 10.5t66 30t47 46t18 58.5q0 26 -11.5 56t-31.5 55.5t-49 42.5t-63 17q-58 0 -73.5 -30.5
t-0.5 -84.5q-14 -9 -28.5 -15.5t-26.5 -6.5t-20 9t-8 33q0 40 15 64t38.5 37.5t51 18t52.5 4.5zM232 -10q-23 17 -41 35t-35 41q17 22 35.5 40t40.5 35q22 -17 40.5 -35t35.5 -40q-17 -23 -35.5 -41t-40.5 -35z" />
    <glyph glyph-name="at" unicode="@" horiz-adv-x="879" 
d="M570 -5q-26 0 -39.5 9t-19 24t-3.5 35.5t8 43.5q-9 -15 -24 -34.5t-34 -37t-41.5 -29t-47.5 -11.5q-45 0 -70.5 30t-25.5 85q0 44 16.5 90t46 83.5t69 61.5t86.5 24q13 0 35 -8.5t38 -38.5l41 47h20l-66 -285q-9 -39 -1.5 -49t30.5 -10q41 0 73 17.5t53.5 47t33 68
t11.5 79.5q0 48 -16.5 96.5t-51 87t-88 62.5t-126.5 24q-79 0 -139 -29t-100 -76t-60.5 -106.5t-20.5 -121.5q0 -78 26.5 -138.5t70.5 -102t101.5 -62.5t119.5 -21q42 0 83.5 10.5t81.5 33.5l14 -17q-51 -30 -105 -44.5t-108 -14.5q-71 0 -136 24t-115 68.5t-80 108.5
t-30 145q0 70 25 137.5t75 121t124.5 86.5t173.5 33q82 0 142.5 -26.5t100.5 -68.5t59 -95.5t19 -107.5q0 -48 -15 -93t-44 -79.5t-71.5 -55.5t-98.5 -21zM537 236q4 19 6 38t-3 34.5t-18.5 25t-38.5 9.5q-33 0 -60 -26.5t-45.5 -63.5t-28.5 -76.5t-10 -64.5q0 -14 2 -27.5
t7 -25t13 -18.5t21 -7q22 0 41 11t35.5 27.5t31 37t26.5 39.5z" />
    <glyph glyph-name="A" unicode="A" horiz-adv-x="740" 
d="M491 204h-282l-35 -92q-16 -45 0 -68.5t78 -23.5v-20h-242v20q28 0 46 4.5t31 15t23 28t21 44.5l235 598h12l234 -598q10 -27 19.5 -44.5t22.5 -28t31 -15t45 -4.5v-20h-275v20q32 0 50.5 5t25.5 16t5 28.5t-11 42.5zM221 237h257l-127 343z" />
    <glyph glyph-name="B" unicode="B" horiz-adv-x="635" 
d="M333 700q46 0 82 -13.5t61 -35t38 -50t13 -58.5q0 -24 -9 -49.5t-27 -49t-46 -42.5t-67 -30v-2q61 0 103 -15.5t67 -39.5t36 -53t11 -57q0 -51 -16 -86t-41 -58t-57 -35.5t-63.5 -18t-60.5 -6.5t-48 -1h-269v20q30 0 49 3.5t30 13.5t15 28t4 47v476q0 29 -4 47t-14.5 28
t-29.5 13.5t-50 3.5v20h293zM220 118q0 -51 21 -67t65 -16q21 0 54.5 3t66 18t55.5 46.5t23 87.5q0 32 -10.5 61t-34.5 51t-63 35t-97 13h-80v-232zM443 535q0 40 -12 65.5t-30.5 40t-40 19.5t-40.5 5h-100v-283h80q18 0 43 7t47 24.5t37.5 47t15.5 74.5z" />
    <glyph glyph-name="C" unicode="C" horiz-adv-x="672" 
d="M50 350q0 96 29 164t77.5 111.5t111 64t129.5 20.5q69 0 128.5 -21t109.5 -57l2 -173h-20q0 66 -21 108t-52.5 66t-69 33t-70.5 9q-59 0 -107.5 -23.5t-83 -66.5t-54 -102.5t-19.5 -132.5t19.5 -133t54 -102.5t83 -66t107.5 -23.5q33 0 70.5 9t69 33t52.5 66t21 108h20
l-2 -173q-50 -36 -109.5 -57t-128.5 -21q-67 0 -129.5 20t-111 63.5t-77.5 112t-29 164.5z" />
    <glyph glyph-name="D" unicode="D" horiz-adv-x="786" 
d="M40 20q35 0 54.5 5t29.5 16t12 28.5t2 42.5v476q0 27 -3 45t-13 28.5t-29.5 14.5t-52.5 4v20h263q35 0 80.5 -1.5t94 -11.5t94.5 -31t82.5 -60t59 -99t22.5 -147t-25.5 -147t-65.5 -99t-89 -60t-96.5 -31t-88 -11.5t-62.5 -1.5h-269v20zM311 33q29 0 65 1.5t73.5 10.5
t72.5 28t62.5 54t44.5 89.5t17 133.5q0 78 -20.5 132t-53 89.5t-72.5 54.5t-78 28t-70 10.5t-49 1.5h-83v-548q0 -39 19 -62t72 -23z" />
    <glyph glyph-name="E" unicode="E" horiz-adv-x="622" 
d="M40 20q33 0 52.5 4.5t29.5 15t13 28t3 44.5v476q0 25 -2 42.5t-11.5 28.5t-29 16t-55.5 5v20h502l5 -143h-20q-6 40 -14 62.5t-23 33t-40 12.5t-64 2h-166v-284h143q28 0 44.5 3t25.5 12t11.5 26.5t2.5 46.5h20v-212h-20q0 30 -2.5 48t-11.5 27.5t-25.5 12.5t-44.5 3
h-143v-232q0 -44 19 -64t72 -20h124q26 0 47 4t36.5 16.5t26.5 37.5t17 67h20l-10 -159h-532v20z" />
    <glyph glyph-name="F" unicode="F" horiz-adv-x="557" 
d="M40 0v20q33 0 52.5 4.5t29.5 15t13 28t3 44.5v476q0 25 -2 42.5t-11.5 28.5t-29 16t-55.5 5v20h502l5 -143h-20q-6 40 -14 62.5t-23 33t-40 12.5t-64 2h-166v-284h163q28 0 44.5 3t25.5 12t11.5 26.5t2.5 46.5h20v-212h-20q0 30 -2.5 48t-11.5 27.5t-25.5 12.5t-44.5 3
h-163v-238q0 -27 4 -44.5t16.5 -28t35.5 -15t62 -4.5v-20h-298z" />
    <glyph glyph-name="G" unicode="G" horiz-adv-x="757" 
d="M659 89q-54 -46 -123.5 -72.5t-138.5 -26.5q-67 0 -129.5 20t-111 63.5t-77.5 112t-29 164.5t29 164t77.5 111.5t111 64t129.5 20.5q69 0 128.5 -21t109.5 -57l2 -173h-20q0 66 -21 108t-52.5 66t-69 33t-70.5 9q-59 0 -107.5 -23.5t-83 -66.5t-54 -102.5t-19.5 -132.5
t19.5 -133t54 -102.5t83 -66t107.5 -23.5q23 0 47 4t46.5 14t43 27t36.5 43v75q0 27 -4 44.5t-16.5 28t-35.5 15t-62 4.5v20h278v-20q-28 0 -43.5 -4.5t-23 -15t-9.5 -28t-2 -44.5v-99z" />
    <glyph glyph-name="H" unicode="H" horiz-adv-x="853" 
d="M535 0v20q33 0 52.5 4.5t29.5 15t13 28t3 44.5v234h-413v-234q0 -27 3 -44.5t13 -28t29.5 -15t52.5 -4.5v-20h-278v20q33 0 52.5 4.5t29.5 15t13 28t3 44.5v476q0 25 -2 42.5t-11.5 28.5t-29 16t-55.5 5v20h278v-20q-36 0 -55.5 -5t-29 -16t-11.5 -28.5t-2 -42.5v-209
h413v209q0 25 -2 42.5t-11.5 28.5t-29 16t-55.5 5v20h278v-20q-36 0 -55.5 -5t-29 -16t-11.5 -28.5t-2 -42.5v-476q0 -27 3 -44.5t13 -28t29.5 -15t52.5 -4.5v-20h-278z" />
    <glyph glyph-name="I" unicode="I" horiz-adv-x="358" 
d="M40 0v20q33 0 52.5 4.5t29.5 15t13 28t3 44.5v476q0 25 -2 42.5t-11.5 28.5t-29 16t-55.5 5v20h278v-20q-36 0 -55.5 -5t-29 -16t-11.5 -28.5t-2 -42.5v-476q0 -27 3 -44.5t13 -28t29.5 -15t52.5 -4.5v-20h-278z" />
    <glyph glyph-name="J" unicode="J" horiz-adv-x="348" 
d="M220 31q0 -54 -15 -95.5t-39 -73t-53.5 -55.5t-58.5 -44l-11 14q18 13 35 32.5t30.5 48t21.5 66.5t8 89v575q0 25 -2 42.5t-11.5 28.5t-29 16t-55.5 5v20h278v-20q-36 0 -55.5 -5t-29 -16t-11.5 -28.5t-2 -42.5v-557z" />
    <glyph glyph-name="K" unicode="K" horiz-adv-x="719" 
d="M273 317h-53v-205q0 -27 3 -44.5t12 -28t26.5 -15t46.5 -4.5v-20h-268v20q33 0 52.5 4.5t29.5 15t13 28t3 44.5v476q0 25 -2 42.5t-11.5 28.5t-29 16t-55.5 5v20h268v-20q-32 0 -49.5 -5t-26 -16t-10.5 -28.5t-2 -42.5v-242h28l262 277q7 8 11.5 18t0 18.5t-19 14.5
t-44.5 6v20h222v-20q-23 0 -38.5 -3t-28.5 -10t-25 -18.5l-28 -27.5l-234 -243l277 -290q20 -21 35.5 -34.5t28.5 -21t25.5 -10t26.5 -2.5v-20h-160q-10 19 -29.5 44t-36.5 42z" />
    <glyph glyph-name="L" unicode="L" horiz-adv-x="602" 
d="M338 680q-39 0 -62 -4.5t-35.5 -15t-16.5 -28t-4 -44.5v-470q0 -44 19 -64t72 -20h124q26 0 47 4t36.5 16.5t26.5 37.5t17 67h20l-10 -159h-532v20q33 0 52.5 4.5t29.5 15t13 28t3 44.5v476q0 25 -2 42.5t-11.5 28.5t-29 16t-55.5 5v20h298v-20z" />
    <glyph glyph-name="M" unicode="M" horiz-adv-x="995" 
d="M295 0h-255v20q30 0 51.5 3.5t35.5 13.5t20.5 28t6.5 47v476q0 29 -4 47t-16.5 28t-35 13.5t-58.5 3.5v20h188l272 -583l284 583h171v-20q-31 0 -51.5 -3.5t-33 -13.5t-18 -28t-5.5 -47v-476q0 -29 5.5 -47t18 -28t33 -13.5t51.5 -3.5v-20h-287v20q31 0 50 3.5t29.5 13.5
t14 28t3.5 47v462l-284 -579h-12l-275 579v-462q0 -29 4 -47t15 -28t30.5 -13.5t51.5 -3.5v-20z" />
    <glyph glyph-name="N" unicode="N" horiz-adv-x="859" 
d="M697 588q0 28 -5 45.5t-16 28t-30.5 14.5t-47.5 4v20h231v-20q-53 0 -72.5 -20.5t-19.5 -71.5v-593h-17l-524 584v-467q0 -29 4 -47t16.5 -28t35.5 -13.5t60 -3.5v-20h-255v20q30 0 49.5 3.5t31 13.5t15.5 28t4 47v476q0 52 -25 72t-92 20v20h170l487 -551v439z" />
    <glyph glyph-name="O" unicode="O" horiz-adv-x="803" 
d="M402 -10q-77 0 -141.5 28t-111 76.5t-73 114t-26.5 141.5t26.5 141.5t73 114t111 76.5t141.5 28q76 0 140.5 -28t111.5 -76.5t73 -114t26 -141.5t-26 -141.5t-73 -114t-111.5 -76.5t-140.5 -28zM402 25q54 0 102 25.5t83 70t55.5 103.5t20.5 126t-20.5 126t-55.5 103.5
t-83 70t-102 25.5t-102 -25.5t-83.5 -70t-56 -103.5t-20.5 -126t20.5 -126t56 -103.5t83.5 -70t102 -25.5z" />
    <glyph glyph-name="P" unicode="P" horiz-adv-x="569" 
d="M220 286v-174q0 -27 4 -44.5t16.5 -28t35.5 -15t62 -4.5v-20h-298v20q33 0 52.5 4.5t29.5 15t13 28t3 44.5v476q0 25 -2 42.5t-11.5 28.5t-29 16t-55.5 5v20h234q59 0 111 -10t90.5 -33.5t61 -62.5t22.5 -98q0 -55 -21 -95t-60 -65.5t-95 -37.5t-126 -12h-37zM220 310h37
q27 0 63.5 4.5t69.5 23t56 56t23 102.5q0 55 -22 89.5t-54.5 53.5t-70 24.5t-68.5 3.5h-34v-357z" />
    <glyph glyph-name="Q" unicode="Q" horiz-adv-x="803" 
d="M753 350q0 -74 -25 -138.5t-70 -112.5t-107 -76.5t-136 -31.5q-13 -10 -27.5 -24t-28.5 -31q56 11 112.5 4.5t104 -23t81.5 -38.5t46 -42q2 -3 3.5 -13.5t-4.5 -21t-23.5 -18.5t-53.5 -6q-6 25 -32.5 52.5t-65.5 48t-88.5 28.5t-101.5 -4l-7 -14q-6 -13 -16.5 -13.5
t-18.5 6.5t-11 18.5t5 21.5q14 17 36.5 36t49.5 33q-71 5 -131 34.5t-103 77.5t-67 111.5t-24 135.5q0 76 26.5 141.5t73 114t111 76.5t141.5 28q76 0 140.5 -28t111.5 -76.5t73 -114t26 -141.5zM402 25q54 0 102 25.5t83 70t55.5 103.5t20.5 126t-20.5 126t-55.5 103.5
t-83 70t-102 25.5t-102 -25.5t-83.5 -70t-56 -103.5t-20.5 -126t20.5 -126t56 -103.5t83.5 -70t102 -25.5z" />
    <glyph glyph-name="R" unicode="R" horiz-adv-x="696" 
d="M559 526q0 -33 -13.5 -64t-38 -58t-59 -49t-75.5 -37l207 -230q19 -22 34 -35t28.5 -20.5t26.5 -10t27 -2.5v-20h-160q-10 19 -27 43.5t-32 42.5l-183 204h-74v-178q0 -27 4 -44.5t16.5 -28t35.5 -15t62 -4.5v-20h-298v20q33 0 52.5 4.5t29.5 15t13 28t3 44.5v476
q0 25 -2 42.5t-11.5 28.5t-29 16t-55.5 5v20h234q78 0 132 -14t88 -37.5t49.5 -55t15.5 -67.5zM220 320h60q93 26 141.5 76.5t48.5 122.5q0 67 -52.5 107.5t-163.5 40.5h-34v-347z" />
    <glyph glyph-name="S" unicode="S" horiz-adv-x="515" 
d="M425 556h-20q1 30 -9 53t-27.5 38.5t-40 23.5t-46.5 8q-26 0 -50.5 -8t-44.5 -24t-32 -40.5t-12 -57.5q0 -41 24 -70t59.5 -53t77.5 -46.5t77.5 -50t59.5 -63.5t24 -87q0 -43 -15 -78t-43 -60t-69 -39t-92 -14q-66 0 -111.5 16t-79.5 37l6 133h20q4 -48 19 -78.5
t37.5 -47.5t50 -23t57.5 -6q35 0 60.5 10.5t42 28.5t24.5 41t8 47q0 43 -24 74.5t-59.5 58t-77.5 50t-77.5 52t-59.5 64.5t-24 87q0 49 19.5 83t52 55t73.5 30.5t83 9.5q41 0 79 -8t68 -25z" />
    <glyph glyph-name="T" unicode="T" horiz-adv-x="676" 
d="M651 700l5 -143h-20q-6 40 -14 62.5t-23 33t-40 12.5t-64 2h-116v-555q0 -27 4 -44.5t16.5 -28t35.5 -15t62 -4.5v-20h-318v20q39 0 62 4.5t35.5 15t16.5 28t4 44.5v555h-116q-39 0 -64 -2t-40 -12.5t-23 -33t-14 -62.5h-20l5 143h626z" />
    <glyph glyph-name="U" unicode="U" horiz-adv-x="762" 
d="M653 253q0 -54 -11.5 -102t-41 -83.5t-81 -56.5t-132.5 -21q-75 0 -125.5 21.5t-81 59t-44 87t-13.5 105.5v325q0 24 -2.5 41.5t-13 29t-31 16.5t-56.5 5v20h279v-20q-35 0 -54 -5t-28 -16.5t-10.5 -29t-1.5 -41.5v-291q0 -74 14 -125t40.5 -83t64.5 -46.5t85 -14.5
q45 0 82.5 12t64.5 38.5t42 68.5t15 103v338q0 24 -3.5 41.5t-15.5 29t-33.5 16.5t-57.5 5v20h239v-20q-29 0 -46.5 -5t-27 -16t-12.5 -28.5t-3 -42.5v-335z" />
    <glyph glyph-name="V" unicode="V" horiz-adv-x="757" 
d="M404 117l177 472q7 19 10 35.5t-3 29t-23.5 19.5t-51.5 7v20h234v-20q-33 0 -53 -8.5t-33 -21.5t-20 -29.5l-13 -31.5l-231 -594h-29l-245 593l-14.5 32.5t-19.5 30t-30.5 21.5t-48.5 8v20h268v-20q-36 0 -52 -9t-19.5 -23t1.5 -30t10 -29z" />
    <glyph glyph-name="W" unicode="W" horiz-adv-x="1048" 
d="M715 130l157 459q6 19 9 35.5t-3 29t-23 19.5t-51 7v20h234v-20q-33 0 -53.5 -8.5t-33 -21.5t-19.5 -29.5l-13 -31.5l-211 -594h-29l-156 411l-146 -411h-29l-225 593q-6 16 -13.5 32.5t-19.5 30t-31 21.5t-49 8v20h238v-20q-23 0 -32.5 -9t-10.5 -23t3.5 -30t9.5 -29
l166 -459l115 338l-45 120q-6 16 -13.5 32.5t-19.5 30t-31 21.5t-49 8v20h268v-20q-36 0 -51.5 -9t-19 -23t1 -30t9.5 -29z" />
    <glyph glyph-name="X" unicode="X" horiz-adv-x="749" 
d="M359 313l-158 -210q-31 -41 -15.5 -62t90.5 -21v-20h-266v20q28 0 49 7t38.5 19t32.5 29.5t31 38.5l175 232l-190 242l-24.5 32t-27.5 29.5t-32.5 22t-40.5 8.5v20h280v-20q-39 0 -57 -7.5t-22 -19.5t3.5 -27.5t20.5 -31.5l139 -184l141 188q12 15 17.5 30t-0.5 26.5
t-25.5 18.5t-58.5 7v20h252v-20q-28 0 -48 -6.5t-36.5 -19t-31 -29.5t-30.5 -38l-158 -209l196 -265l19 -27t27.5 -30.5t38.5 -25t51 -10.5v-20h-288v20q36 0 53.5 6.5t22 18.5t-1.5 27.5t-19 33.5z" />
    <glyph glyph-name="Y" unicode="Y" 
d="M359 341l143 265q6 11 10 24t0.5 24t-18.5 18.5t-47 7.5v20h221v-20q-25 0 -43.5 -5t-33 -15.5t-27 -27t-25.5 -38.5l-160 -294v-188q0 -29 5.5 -47t19 -28t36.5 -13.5t57 -3.5v-20h-318v20q33 0 55.5 3.5t36.5 13.5t20 28t6 47v188l-178 308l-19 32.5t-19 22.5t-27.5 13
t-43.5 4v20h257v-20q-53 0 -64.5 -17.5t12.5 -61.5z" />
    <glyph glyph-name="Z" unicode="Z" horiz-adv-x="669" 
d="M607 680l-452 -637h290q43 0 71.5 5t46.5 18.5t28.5 38.5t17.5 65h20l-11 -170h-558l-20 20l453 638h-306q-37 0 -58 -8t-32 -23t-15.5 -36t-8.5 -46h-20l9 155h525z" />
    <glyph glyph-name="bracketleft" unicode="[" horiz-adv-x="313" 
d="M149 -85q0 -29 6 -45t20 -23.5t38 -8.5t60 -1v-27h-193v916h193v-27q-36 0 -60 -1t-38.5 -8.5t-20 -23.5t-5.5 -45v-706z" />
    <glyph glyph-name="backslash" unicode="\" horiz-adv-x="444" 
d="M80 716h61l223 -728h-61z" />
    <glyph glyph-name="bracketright" unicode="]" horiz-adv-x="313" 
d="M164 621q0 29 -5.5 45t-20 23.5t-38.5 8.5t-60 1v27h193v-916h-193v27q36 0 60 1t38.5 8.5t20 23.5t5.5 45v706z" />
    <glyph glyph-name="asciicircum" unicode="^" horiz-adv-x="558" 
d="M478 344h-47l-152 279l-152 -279h-47l173 356h52z" />
    <glyph glyph-name="underscore" unicode="_" horiz-adv-x="500" 
d="M0 -122v62h500v-62h-500z" />
    <glyph glyph-name="grave" unicode="`" horiz-adv-x="262" 
d="M50 700q17 8 42 6t47 -16l73 -164h-21z" />
    <glyph glyph-name="a" unicode="a" horiz-adv-x="454" 
d="M444 10q-45 -20 -79 -20q-25 0 -43.5 13t-28.5 45q-42 -32 -77 -45t-65 -13q-47 0 -79 35t-32 95q0 33 27 51.5t66 27.5t82.5 11.5l75.5 4.5v159q0 40 -15 64t-54 24q-32 0 -51.5 -12t-30 -29t-12 -37t3.5 -35q-30 -19 -46.5 -21.5t-24 3t-8.5 14.5t-1 13q0 26 19.5 50
t49.5 42t65 29t66 11q41 0 64.5 -10t35.5 -25t15.5 -33t3.5 -34v-316q0 -9 2 -20t8.5 -19t19 -10.5t33.5 5.5zM121 111q2 -32 14 -57.5t42 -25.5q26 0 58.5 12t55.5 33v120q-40 -3 -71.5 -6t-53.5 -10.5t-33.5 -22.5t-11.5 -43z" />
    <glyph glyph-name="b" unicode="b" horiz-adv-x="539" 
d="M162 416q32 32 74.5 53t88.5 21q36 0 67.5 -16.5t55.5 -46.5t37.5 -73t13.5 -95q0 -77 -20.5 -128.5t-52 -82.5t-70 -44.5t-75.5 -13.5q-50 0 -88.5 14.5t-63.5 31.5l-25 -41h-19v602q0 28 -1.5 44.5t-8.5 25t-22 11t-43 2.5v20l154 10zM276 20q46 0 73.5 26.5t42.5 64
t19.5 78.5t4.5 70q0 28 -6.5 60.5t-20.5 60.5t-36.5 46t-54.5 18q-3 0 -15.5 -1t-30.5 -6.5t-41 -18t-47 -34.5v-254q0 -12 2 -30.5t12.5 -36.5t33.5 -30.5t64 -12.5z" />
    <glyph glyph-name="c" unicode="c" horiz-adv-x="456" 
d="M259 490q25 0 52.5 -4.5t50.5 -18t38.5 -37.5t15.5 -64q0 -24 -8 -33t-20 -9t-27 6.5t-28 15.5q15 54 -0.5 84.5t-73.5 30.5q-39 0 -66 -23t-43.5 -57t-23.5 -71.5t-7 -66.5q0 -73 25.5 -120t66 -67t91.5 -12.5t102 43.5l10 -18q-67 -60 -134 -73.5t-120 11.5t-86.5 85.5
t-33.5 147.5q0 60 19 106.5t50 78.5t70.5 48.5t79.5 16.5z" />
    <glyph glyph-name="d" unicode="d" horiz-adv-x="530" 
d="M445 123q0 -28 1.5 -45t8.5 -26.5t22 -13t43 -3.5v-20l-154 -25v80q-27 -35 -64 -57.5t-91 -22.5q-36 0 -67 16.5t-54.5 46.5t-36.5 72.5t-13 95.5q0 76 20 128t51 83t69 44.5t75 13.5q34 0 61.5 -7.5t49.5 -18.5v133q0 28 -1.5 44.5t-8.5 25t-22 11t-43 2.5v20l154 10
v-587zM251 31q21 0 41.5 8t36.5 21.5t26 30t11 34.5v225q0 12 -1 30.5t-10.5 36.5t-31.5 30.5t-63 12.5q-46 0 -73 -26.5t-41.5 -64t-18.5 -78.5t-4 -70q0 -32 7 -65.5t22.5 -61t40 -45.5t58.5 -18z" />
    <glyph glyph-name="e" unicode="e" horiz-adv-x="457" 
d="M259 490q29 0 61.5 -10t57 -34t35 -63t-5.5 -97l-287 -16q-5 -81 18.5 -134t64.5 -76t94 -16.5t107 43.5l10 -18q-67 -60 -134 -73.5t-120 11.5t-86.5 85.5t-33.5 147.5q0 60 19 106.5t50 78.5t70.5 48.5t79.5 16.5zM259 461q-33 0 -58.5 -14t-42.5 -37t-26.5 -52
t-9.5 -59l202 11q9 30 11.5 57t-4 48t-24 33.5t-48.5 12.5z" />
    <glyph glyph-name="f" unicode="f" horiz-adv-x="322" 
d="M308 480v-33h-114v-339q0 -28 3 -45t13 -26.5t30 -13t54 -3.5v-20h-264v20q28 0 45 3.5t26 13t11.5 26.5t2.5 45v339h-75v33h75v18q0 47 19 87.5t47 70.5t60 47t58 17q4 0 13 -1.5t14.5 -9.5t3.5 -25t-21 -47l-28 21t-34 13q-11 0 -20.5 -7.5t-16.5 -28.5t-11.5 -58.5
t-4.5 -96.5h114z" />
    <glyph glyph-name="g" unicode="g" horiz-adv-x="492" 
d="M432 310q0 -37 -15 -70t-41.5 -57.5t-62 -38.5t-75.5 -14q-24 -1 -48 -4t-43 -8.5t-31 -12.5t-12 -16q0 -26 27 -36.5t68 -14t88.5 -6t88.5 -12.5t68 -33t27 -67q0 -40 -23.5 -70.5t-61 -51t-84.5 -31t-93 -10.5q-37 0 -71 7t-60.5 21t-42 35t-15.5 49q0 29 25 60.5
t67 60.5q-23 11 -37.5 30t-14.5 50q0 30 28 48t74 26q-53 20 -85.5 64.5t-32.5 101.5q0 37 15 70t41.5 57.5t61.5 38.5t76 14t76 -15q21 -2 37.5 4.5t28.5 18t18.5 25.5t8.5 28q23 3 37.5 2t23 -4.5t11.5 -8.5t3 -11q0 -21 -13 -35t-32 -23t-41 -13t-40 -5q35 -25 55.5 -62
t20.5 -81zM392 -80q0 21 -27 28.5t-66.5 10.5l-85 6.5t-81.5 16.5q-16 -22 -27 -49.5t-11 -55.5q0 -19 7 -36.5t23.5 -30.5t43 -20.5t66.5 -7.5q43 0 73 13.5t49 34t27.5 44.5t8.5 46zM127 310q0 -29 6 -56.5t19.5 -48.5t34.5 -33.5t51 -12.5t51 12.5t34.5 33.5t19.5 48.5
t6 56.5t-6.5 56.5t-20.5 48.5t-35 33.5t-49 12.5q-29 0 -49.5 -12.5t-34.5 -33.5t-20.5 -48.5t-6.5 -56.5z" />
    <glyph glyph-name="h" unicode="h" horiz-adv-x="575" 
d="M262 0h-232v20q28 0 44 3.5t24 13t10 26.5t2 45v489q0 28 -1.5 43.5t-8.5 23t-22 9.5t-43 2v20l154 15l-3 -328q17 25 41 45t50.5 34t54 21.5t50.5 7.5q43 0 73 -28.5t30 -92.5v-261q0 -28 2 -45t10.5 -26.5t24.5 -13t43 -3.5v-20h-231v20q25 0 39 3.5t21.5 13t9.5 26.5
t2 45v236q0 50 -20.5 74t-50.5 24q-32 0 -73.5 -25.5t-72.5 -76.5v-232q0 -28 2 -45t9.5 -26.5t22 -13t39.5 -3.5v-20z" />
    <glyph glyph-name="i" unicode="i" horiz-adv-x="272" 
d="M262 0h-232v20q28 0 44 3.5t24 13t10 26.5t2 45v259q0 28 -1.5 45t-8.5 26.5t-22 13t-43 3.5v20l157 10l-3 -103v-274q0 -28 2 -45t9.5 -26.5t22 -13t39.5 -3.5v-20zM146 569q-20 14 -36 30t-30 36q29 39 66 65q37 -26 66 -65q-14 -20 -30.5 -36t-35.5 -30z" />
    <glyph glyph-name="j" unicode="j" horiz-adv-x="273" 
d="M190 31q0 -54 -15 -95.5t-38.5 -73t-52.5 -55.5t-58 -44l-11 14q18 13 35 32.5t30.5 48t22 66.5t8.5 89v354q0 28 -1.5 45t-8.5 26.5t-22 13t-43 3.5v20l157 10l-3 -103v-351zM147 569q-20 14 -36 30t-30 36q29 39 66 65q37 -26 66 -65q-14 -20 -30.5 -36t-35.5 -30z" />
    <glyph glyph-name="k" unicode="k" horiz-adv-x="558" 
d="M262 0h-232v20q28 0 44 3.5t24 13t10 26.5t2 45v489q0 28 -1.5 44.5t-8.5 25t-22 11t-43 2.5v20l154 10v-457h28l149 154q10 11 14.5 21t0 17t-20 11t-44.5 4v20h211v-20q-23 0 -39 -2.5t-29.5 -8t-25 -15t-24.5 -24.5l-127 -133l157 -194q16 -20 30 -32.5t26.5 -19.5
t25.5 -9t27 -2v-20q-40 1 -80 0.5t-75 -0.5q-12 28 -55 82l-114 145h-35v-119q0 -28 2 -45t9.5 -26.5t22 -13t39.5 -3.5v-20z" />
    <glyph glyph-name="l" unicode="l" horiz-adv-x="272" 
d="M262 0h-232v20q28 0 44 3.5t24 13t10 26.5t2 45v489q0 28 -1.5 44.5t-8.5 25t-22 11t-43 2.5v20l154 10v-602q0 -28 2 -45t9.5 -26.5t22 -13t39.5 -3.5v-20z" />
    <glyph glyph-name="m" unicode="m" horiz-adv-x="843" 
d="M549 0h-227v20q25 0 39 3.5t21 13t8.5 26.5t1.5 45v236q0 50 -18.5 74t-48.5 24q-32 0 -68.5 -25.5t-67.5 -76.5v-232q0 -28 1.5 -45t8.5 -26.5t21.5 -13t39.5 -3.5v-20h-230v20q28 0 44 3.5t24 13t10 26.5t2 45v259q0 28 -1.5 45t-8.5 26.5t-22 13t-43 3.5v20l157 10
l-3 -103q34 50 85 79t98 29q41 0 68.5 -26t30.5 -83q17 24 39 44t46.5 34.5t49.5 22.5t48 8q43 0 71 -28.5t28 -92.5v-261q0 -28 2 -45t10.5 -26.5t24.5 -13t43 -3.5v-20h-229v20q25 0 39 3.5t21 13t8.5 26.5t1.5 45v236q0 50 -18.5 74t-48.5 24q-13 0 -30 -7t-35.5 -20
t-37 -31.5t-33.5 -42.5v-233q0 -28 2 -45t9.5 -26.5t23.5 -13t43 -3.5v-20z" />
    <glyph glyph-name="n" unicode="n" horiz-adv-x="575" 
d="M262 0h-232v20q28 0 44 3.5t24 13t10 26.5t2 45v259q0 28 -1.5 45t-8.5 26.5t-22 13t-43 3.5v20l157 10l-3 -103q17 25 40.5 45t49.5 34t53 21.5t50 7.5q43 0 73 -28.5t30 -92.5v-261q0 -28 2 -45t10.5 -26.5t24.5 -13t43 -3.5v-20h-231v20q25 0 39 3.5t21.5 13t9.5 26.5
t2 45v236q0 50 -20.5 74t-50.5 24q-32 0 -73.5 -25.5t-72.5 -76.5v-232q0 -28 2 -45t9.5 -26.5t22 -13t39.5 -3.5v-20z" />
    <glyph glyph-name="o" unicode="o" horiz-adv-x="507" 
d="M257 490q49 0 88 -19.5t66 -53.5t41.5 -79.5t14.5 -97.5t-15.5 -97.5t-44 -79.5t-69 -53.5t-89.5 -19.5t-88 19.5t-66 53.5t-41 79.5t-14 97.5t15.5 97.5t44 79.5t68.5 53.5t89 19.5zM253 19q37 0 62 17.5t40.5 47.5t22 70t6.5 86t-6.5 86t-22 70t-40.5 47.5t-62 17.5
t-62 -17.5t-40 -47.5t-21.5 -70t-6.5 -86t6.5 -86t21.5 -70t40 -47.5t62 -17.5z" />
    <glyph glyph-name="p" unicode="p" horiz-adv-x="550" 
d="M184 410q27 35 64 57.5t91 22.5q36 0 67 -16.5t54.5 -46.5t36.5 -73t13 -95q0 -77 -20 -128.5t-51 -82.5t-69 -44.5t-75 -13.5q-35 0 -62 7t-49 18v-141q0 -26 1 -43t9 -27t26.5 -13.5t53.5 -3.5v-20h-244v20q30 0 45.5 3.5t22 13.5t7 27t0.5 43v493q0 28 -1.5 45
t-8.5 26.5t-22 13t-43 3.5v20l157 10zM299 449q-22 0 -43 -8.5t-37 -22t-25.5 -31.5t-9.5 -36v-238q0 -14 3.5 -30t14.5 -30t32 -23.5t56 -9.5q46 0 73 26.5t41 64t18.5 78.5t4.5 70q0 31 -7 65t-22.5 61.5t-40 45.5t-58.5 18z" />
    <glyph glyph-name="q" unicode="q" horiz-adv-x="517" 
d="M261 460q-46 0 -73 -26.5t-41.5 -64t-19 -78.5t-4.5 -70t6 -61t20 -60t36 -46t54 -18q3 0 15 1t30 6.5t40.5 17.5t46.5 35v254q0 12 -1.5 30.5t-12 36.5t-33 30.5t-63.5 12.5zM373 64q-32 -32 -73.5 -53t-87.5 -21q-36 0 -67.5 16.5t-54.5 46.5t-36.5 72.5t-13.5 95.5
q0 76 20 128t51.5 83t69.5 44.5t75 13.5q50 0 87.5 -14.5t62.5 -31.5l25 41h19v-610q0 -28 1.5 -45t8 -26.5t20 -13t37.5 -3.5v-20h-229v20q28 0 45 3.5t25.5 13t11 26.5t2.5 45z" />
    <glyph glyph-name="r" unicode="r" horiz-adv-x="409" 
d="M288 0h-258v20q28 0 44 3.5t24 13t10 26.5t2 45v259q0 28 -1.5 45t-8.5 26.5t-22 13t-43 3.5v20l157 10l-3 -118q16 28 36.5 52.5t43.5 41.5t47.5 25t47.5 2q4 -1 12 -7t11.5 -18t-3.5 -30t-33 -42q-13 8 -31 14t-39 2.5t-44.5 -20t-47.5 -53.5v-226q0 -28 3 -45
t13 -26.5t30 -13t53 -3.5v-20z" />
    <glyph glyph-name="s" unicode="s" horiz-adv-x="396" 
d="M306 358q2 32 -6 52t-22 31.5t-32.5 15.5t-37.5 4q-16 0 -31.5 -5.5t-27.5 -15.5t-19.5 -24t-7.5 -32q0 -22 17.5 -41.5t43.5 -38l56 -38t56 -41t43.5 -47t17.5 -56.5q0 -37 -17 -62t-43.5 -40.5t-57.5 -22.5t-58 -7q-38 0 -77 11t-63 32l5 110h20q8 -69 40 -96.5
t86 -27.5q19 0 35 7t27.5 17.5t17.5 23.5t6 25q0 31 -17.5 55.5t-43.5 45.5t-56 40t-56 39.5t-43.5 43.5t-17.5 52q0 32 15 55t39 38t54 22t60 7q34 0 67 -9t54 -23l-6 -100h-20z" />
    <glyph glyph-name="t" unicode="t" horiz-adv-x="331" 
d="M169 480h129v-33h-129v-294q0 -47 10 -75.5t29.5 -40.5t47.5 -9t65 18l10 -18q-58 -29 -98 -35t-67 2.5t-42 27.5t-22.5 40.5t-9.5 40.5t-2 28v315h-60v28q30 0 50.5 7t35 22t24.5 38t19 55h10v-117z" />
    <glyph glyph-name="u" unicode="u" horiz-adv-x="536" 
d="M451 123q0 -28 1.5 -45t8.5 -26.5t22 -13t43 -3.5v-20l-154 -25v81q-36 -35 -75.5 -59t-91.5 -24q-57 0 -89 32.5t-32 89.5l1 257q0 28 -1.5 45t-8.5 26.5t-22 13t-43 3.5v20l154 10v-337q0 -23 4 -42t13.5 -33.5t26.5 -22.5t44 -8q31 0 64 16t56 36v273q0 28 -2 45
t-10 26.5t-25 13t-48 3.5v20l164 10v-362z" />
    <glyph glyph-name="v" unicode="v" horiz-adv-x="512" 
d="M268 -5h-25l-152 392l-12.5 31.5t-13.5 22.5t-20.5 14t-34.5 5v20h213v-20q-26 0 -39 -4.5t-17 -13t-1 -22t10 -31.5l101 -287l112 287q14 37 4.5 54t-57.5 17v20h166v-20q-22 0 -34.5 -5.5t-20.5 -15.5t-13 -23l-11 -29z" />
    <glyph glyph-name="w" unicode="w" horiz-adv-x="768" 
d="M532 -5h-25l-121 346l-125 -346h-25l-145 392l-12 31.5t-13.5 23t-21 14t-34.5 4.5v20h213v-20q-26 0 -38.5 -4t-16.5 -13t-1 -22.5t9 -31.5l94 -287l131 378h21l119 -378l104 287q14 37 4.5 54t-57.5 17v20h166v-20q-22 0 -34.5 -5.5t-20.5 -15.5t-13 -23l-11 -29z" />
    <glyph glyph-name="x" unicode="x" horiz-adv-x="523" 
d="M250 189l-90 -123q-8 -11 -11 -19.5t0.5 -14.5t14.5 -9t33 -3v-20h-171v20q29 0 46.5 12t31.5 29l126 159l-134 195q-9 13 -16.5 22t-16 14t-18.5 7t-25 2v20h208v-20q-35 0 -43 -10t5 -30l87 -136l90 130q17 25 9.5 35.5t-46.5 10.5v20h170v-20q-31 0 -46.5 -9.5
t-31.5 -30.5l-124 -167l129 -187q20 -29 35 -37.5t41 -8.5v-20h-208v20q28 0 41 6.5t-4 33.5z" />
    <glyph glyph-name="y" unicode="y" horiz-adv-x="512" 
d="M268 -5q-15 -38 -35.5 -80t-45.5 -77t-54 -58t-60 -23q-4 0 -13.5 4t-16 14.5t-5 29t20.5 48.5q15 -4 36 -4.5t44.5 13t49 47t51.5 97.5l-149 381l-12 31.5t-13.5 22.5t-21 14t-34.5 5v20h213v-20q-26 0 -39 -4.5t-17 -13t-1 -22t10 -31.5l101 -292l112 292q14 37 4.5 54
t-57.5 17v20h166v-20q-22 0 -34.5 -5.5t-20.5 -15.5t-13 -23l-11 -29z" />
    <glyph glyph-name="z" unicode="z" horiz-adv-x="433" 
d="M129 33h157q28 0 45.5 6.5t28 19.5t15.5 33.5t8 49.5h20l-9 -142h-354l-10 13l264 434h-134q-28 0 -45.5 -4.5t-28 -15t-15.5 -29.5t-8 -47h-20l9 129h336l6 -8z" />
    <glyph glyph-name="braceleft" unicode="{" horiz-adv-x="306" 
d="M101 267q25 -3 43 -15.5t27.5 -39.5t10.5 -70t-7 -107q-8 -66 -2 -104t20 -59t33.5 -30t39.5 -16l-7 -27q-51 13 -88 33.5t-53 59.5q-8 19 -8 51t2 70t3.5 78t-4.5 75.5t-22 62.5t-49 39q33 13 49 40.5t22 63t4.5 75t-3.5 77t-2.5 69.5t8.5 52q16 39 53 59.5t88 33.5
l7 -27q-20 -7 -39.5 -16t-33.5 -30t-20 -59t2 -104q8 -64 7 -107t-10.5 -70t-27.5 -39.5t-43 -15.5v-3z" />
    <glyph glyph-name="bar" unicode="|" horiz-adv-x="216" 
d="M136 -247h-56v1016h56v-1016z" />
    <glyph glyph-name="braceright" unicode="}" horiz-adv-x="305" 
d="M204 267v3q-26 3 -43.5 15.5t-26.5 39.5t-10 70t7 107q8 66 2 104t-20.5 59t-34 30t-38.5 16l6 27q51 -13 88 -33.5t54 -59.5q8 -20 8 -52t-2 -69.5t-3.5 -77t4 -75t21.5 -63t49 -40.5q-33 -12 -49 -39.5t-22 -62.5t-4.5 -75t4 -77.5t2.5 -70t-8 -51.5q-17 -39 -54 -59.5
t-88 -33.5l-6 27q19 7 38.5 16t34 30t20.5 59t-2 104q-8 64 -7 107t10 70t26.5 39.5t43.5 15.5z" />
    <glyph glyph-name="asciitilde" unicode="~" horiz-adv-x="649" 
d="M569 365l-16.5 -25.5t-28 -35t-37.5 -30.5t-45 -13q-35 0 -68 5.5t-65.5 11.5l-64.5 11.5t-64 5.5q-12 0 -32 -5.5t-43 -33.5l-25 16l16.5 25.5t28 35t37.5 30.5t45 13q34 0 67.5 -5.5t66 -11.5l64.5 -11.5t64 -5.5q12 0 32 5.5t43 33.5z" />
    <glyph glyph-name="nonbreakingspace" unicode="&#xa0;" horiz-adv-x="120" 
 />
    <glyph glyph-name="exclamdown" unicode="&#xa1;" horiz-adv-x="312" 
d="M169 270q0 -25 3 -66.5t8 -91l10.5 -102.5l10.5 -100.5t8 -84.5t3 -54h-112q0 17 3.5 54l8 84.5t10.5 100.5t10.5 102.5l8 91t3.5 66.5h25zM156 481q23 -17 41 -35t35 -41q-17 -22 -35.5 -40t-40.5 -35q-22 17 -40.5 35t-35.5 40q17 23 35.5 41t40.5 35z" />
    <glyph glyph-name="cent" unicode="&#xa2;" horiz-adv-x="486" 
d="M259 34v74q-42 -2 -78.5 13.5t-63 47t-42 77t-15.5 104.5q0 56 17 99t44.5 73t63.5 46.5t74 20.5v77h33v-76q24 -1 49.5 -6.5t46.5 -19.5t34.5 -37.5t13.5 -60.5q0 -24 -8 -33t-20 -9t-27 6.5t-28 15.5q15 54 -0.5 84.5t-73.5 30.5q-39 0 -66 -21.5t-43.5 -53.5
t-23.5 -68t-7 -65q0 -73 25.5 -118.5t66 -63.5t91.5 -9t102 45l10 -18q-36 -32 -71.5 -51t-70.5 -26v-78h-33z" />
    <glyph glyph-name="sterling" unicode="&#xa3;" horiz-adv-x="595" 
d="M118 382h99l17 106q7 47 33.5 87.5t60 70.5t68.5 47t61 17q4 0 12.5 -1.5t12.5 -9.5t-1 -25t-29 -47l-24 21t-32 13q-11 0 -22 -7.5t-22.5 -28.5t-22.5 -58t-20 -97l-14 -88h140v-33h-145l-15 -97q-2 -12 -7 -30.5t-14 -40t-21.5 -44t-27.5 -42.5q45 10 79 2t61.5 -21.5
t51 -27t48.5 -13.5q23 0 35 11.5t12 27.5t-13 32q18 24 29 32.5t17 6.5t8 -11.5t2 -21.5q0 -20 -6 -42t-19.5 -40t-35.5 -29.5t-53 -11.5q-42 0 -77.5 10.5t-67 23l-59 23t-53.5 10.5q-23 -23 -48 -37.5t-60 -28.5q-16 7 -27 28.5t-8 45.5q22 13 56 17t74 6q7 12 13.5 30
t12.5 40t11 46.5t9 48.5l15 97h-94v33z" />
    <glyph glyph-name="currency" unicode="&#xa4;" horiz-adv-x="445" 
d="M63 248q0 30 12 59t30 50l-75 86l22 22l77 -87q39 30 93 30q52 0 93 -30l75 86l25 -19l-76 -87q20 -22 32 -50.5t12 -59.5t-12 -60t-31 -49l37 -42.5t36 -40.5l-23 -23l-75 85q-41 -30 -93 -30q-54 0 -93 30l-37.5 -43l-36.5 -42l-23 23l73 83q-18 20 -30 49.5t-12 59.5z
M93 248q0 -27 10.5 -50.5t28 -41t41 -27.5t49.5 -10q27 0 50.5 10t41 27.5t28 41t10.5 50.5t-10.5 50.5t-28 41t-41 28t-50.5 10.5q-26 0 -49.5 -10.5t-41 -28t-28 -41t-10.5 -50.5z" />
    <glyph glyph-name="yen" unicode="&#xa5;" horiz-adv-x="748" 
d="M164 259h168v41l-25 46h-143v33h126l-121 229l-19 32.5t-19 22.5t-27.5 13t-43.5 4v20h257v-20q-53 0 -64.5 -17.5t12.5 -61.5l129 -260l128 265q6 11 10 24t0.5 24t-18.5 18.5t-47 7.5v20h221v-20q-25 0 -43.5 -5t-33 -15.5t-27 -27t-25.5 -38.5l-106 -215h129v-33h-146
l-22 -46v-41h168v-33h-168v-114q0 -29 5.5 -47t19 -28t36.5 -13.5t57 -3.5v-20h-318v20q33 0 55.5 3.5t36.5 13.5t20 28t6 47v114h-168v33z" />
    <glyph glyph-name="brokenbar" unicode="&#xa6;" horiz-adv-x="216" 
d="M136 474h-56v383h56v-383zM136 -123h-56v383h56v-383z" />
    <glyph glyph-name="section" unicode="&#xa7;" horiz-adv-x="536" 
d="M139 427q5 -48 25.5 -86t49 -71.5t59 -64.5t55 -63.5t38.5 -69t9 -81.5q10 23 15.5 53t5.5 68q0 47 -19 84.5t-47 70.5t-60 63.5t-58 63.5t-41.5 70.5t-9.5 83.5q-10 -23 -16 -53t-6 -68zM341 -103q-15 -29 -39.5 -45.5t-52.5 -22t-56.5 0t-52 21.5t-38 41.5t-14.5 60.5
q0 24 8 33t20 9t26.5 -6.5t28.5 -15.5q-8 -27 -10 -48.5t4 -36t21.5 -22.5t44.5 -8q24 0 42 12.5t30 31t18 39t6 37.5q0 43 -18.5 79t-45.5 68.5t-59.5 64t-59.5 66t-45.5 73.5t-18.5 87q0 53 25.5 109.5t88.5 116.5q15 29 39.5 45.5t52.5 22t56.5 0t52 -21.5t38 -41.5
t14.5 -60.5q0 -24 -8 -33t-20 -9t-27 6.5t-28 15.5q7 27 9.5 48.5t-3.5 36t-21.5 22.5t-44.5 8q-24 0 -42 -12.5t-30 -31t-18 -39.5t-6 -37q0 -42 18.5 -77.5t46 -68.5t59.5 -64.5t59.5 -66t46 -74t18.5 -87.5q0 -54 -26 -110t-89 -116z" />
    <glyph glyph-name="dieresis" unicode="&#xa8;" horiz-adv-x="395" 
d="M105 542q-17 11 -30 24.5t-25 30.5q25 32 55 54q30 -22 55 -54q-11 -17 -25 -30.5t-30 -24.5zM290 542q-17 11 -30 24.5t-25 30.5q25 32 55 54q30 -22 55 -54q-11 -17 -25 -30.5t-30 -24.5z" />
    <glyph glyph-name="copyright" unicode="&#xa9;" horiz-adv-x="850" 
d="M80 365q0 71 27 134t74 110t110 74t134 27t134 -27t110 -74t74 -110t27 -134t-27 -134t-74 -110t-110 -74t-134 -27t-134 27t-110 74t-74 110t-27 134zM119 365q0 -63 24 -118.5t66 -97.5t97.5 -66t118.5 -24t118.5 24t97.5 66t66 97.5t24 118.5t-24 118.5t-66 97.5
t-97.5 66t-118.5 24t-118.5 -24t-97.5 -66t-66 -97.5t-24 -118.5zM205 365q0 58 19.5 100t51.5 69.5t73.5 40.5t85.5 13q70 0 134 -29v-92h-24q0 19 -5 36t-17 30t-33 20t-55 7q-39 0 -69 -16.5t-50 -44t-30 -62.5t-10 -72t10 -72t30 -62.5t50 -44t69 -16.5q34 0 55 7t33 20
t17 29.5t5 36.5h24v-92q-64 -29 -134 -29q-44 0 -85.5 13t-73.5 40.5t-51.5 69.5t-19.5 100z" />
    <glyph glyph-name="ordfeminine" unicode="&#xaa;" horiz-adv-x="362" 
d="M312 398q-31 -13 -51 -13q-34 0 -47 38q-27 -21 -49.5 -29.5t-42.5 -8.5q-30 0 -51 23t-21 62q0 21 17.5 33t43 18t53.5 7.5t49 3.5v103q0 26 -9.5 41.5t-35.5 15.5q-21 0 -34 -8t-19.5 -19t-7.5 -23.5t2 -22.5q-20 -12 -30.5 -14t-15 2t-5.5 9.5t-1 8.5q0 17 13 32.5
t32.5 27t42 18.5t42.5 7q27 0 42.5 -6.5t23.5 -16t10 -21.5t2 -22v-205q0 -6 1 -13t5.5 -12.5t12.5 -7t22 3.5zM102 464q2 -21 9.5 -37.5t27.5 -16.5q17 0 38 7.5t36 21.5v78l-47 -3.5t-35 -6.5t-21.5 -15t-7.5 -28z" />
    <glyph glyph-name="guillemotleft" unicode="&#xab;" horiz-adv-x="498" 
d="M248 411l19 -15l-93 -134q-8 -13 -8 -17t8 -15l93 -133l-19 -15l-168 165zM399 411l19 -15l-93 -134q-8 -13 -8 -17t8 -15l93 -133l-19 -15l-168 165z" />
    <glyph glyph-name="logicalnot" unicode="&#xac;" horiz-adv-x="660" 
d="M580 336v-239h-63v177h-437v62h500z" />
    <glyph glyph-name="registered" unicode="&#xae;" horiz-adv-x="850" 
d="M80 365q0 71 27 134t74 110t110 74t134 27t134 -27t110 -74t74 -110t27 -134t-27 -134t-74 -110t-110 -74t-134 -27t-134 27t-110 74t-74 110t-27 134zM119 365q0 -63 24 -118.5t66 -97.5t97.5 -66t118.5 -24t118.5 24t97.5 66t66 97.5t24 118.5t-24 118.5t-66 97.5
t-97.5 66t-118.5 24t-118.5 -24t-97.5 -66t-66 -97.5t-24 -118.5zM599 170l-23 -14l-171 197h-29v-122q0 -10 1 -18.5t6 -15t14.5 -10.5t26.5 -4v-20h-159v20q17 0 26.5 3.5t14 10t5.5 15.5t1 19v269q0 7 -1 16t-5.5 16t-13 12t-24.5 5v20h122q24 0 54.5 -2t57 -11t45 -28.5
t18.5 -53.5q0 -46 -23.5 -72t-62.5 -40zM376 378h29q45 0 69 21t24 72q0 24 -9.5 38.5t-26 22t-39 10t-47.5 2.5v-166z" />
    <glyph glyph-name="macron" unicode="&#xaf;" horiz-adv-x="412" 
d="M362 569h-312v52h312v-52z" />
    <glyph glyph-name="degree" unicode="&#xb0;" horiz-adv-x="469" 
d="M80 585q0 32 12 60.5t33 49.5t49 33t60 12t60.5 -12t49.5 -33t33 -49.5t12 -60.5t-12 -60t-33 -49t-49.5 -33t-60.5 -12t-60 12t-49 33t-33 49t-12 60zM122 585q0 -23 9 -43.5t24 -35.5t35.5 -24t43.5 -9t43.5 9t36 24t24.5 35.5t9 43.5t-9 43.5t-24.5 36t-36 24.5
t-43.5 9t-43.5 -9t-35.5 -24.5t-24 -36t-9 -43.5z" />
    <glyph glyph-name="plusminus" unicode="&#xb1;" horiz-adv-x="593" 
d="M513 350v-50h-191v-192h-50v192h-192v50h192v192h50v-192h191zM513 50v-50h-433v50h433z" />
    <glyph glyph-name="twosuperior" unicode="&#xb2;" horiz-adv-x="384" 
d="M56 492l59.5 52t60.5 61.5t47 68t19 73.5t-22 58t-55 20q-26 0 -50.5 -14.5t-40.5 -41.5l-12 6q20 42 55.5 65t77.5 23q53 0 82.5 -26.5t29.5 -74.5q0 -35 -22.5 -70.5t-53.5 -67.5t-63 -58l-51 -41h211l-11 -45h-251z" />
    <glyph glyph-name="threesuperior" unicode="&#xb3;" horiz-adv-x="378" 
d="M189 863q50 0 80 -25t30 -58q0 -34 -26.5 -62t-70.5 -39v-1q56 -4 85.5 -31.5t29.5 -62.5q0 -29 -13.5 -50t-35.5 -34t-48.5 -19t-52.5 -6q-22 0 -42.5 5.5t-35.5 15t-24 23.5t-9 31q0 12 6.5 17t15.5 4t19 -5t19 -10q-9 -25 6 -43.5t46 -18.5q37 0 58.5 24.5t21.5 65.5
q0 35 -19.5 59.5t-57.5 24.5h-29v19h21q35 0 54 22.5t19 50.5q0 29 -21 47t-53 18q-20 0 -35 -5.5t-26 -14t-19 -18t-14 -18.5l-11 6q17 36 51.5 62t80.5 26z" />
    <glyph glyph-name="acute" unicode="&#xb4;" horiz-adv-x="262" 
d="M71 526h-21l73 164q22 14 47 16t42 -6z" />
    <glyph glyph-name="mu" unicode="&#xb5;" horiz-adv-x="590" 
d="M139 367q0 28 -1.5 45t-8.5 26.5t-22 13t-43 3.5v20l154 5v-332q0 -23 4 -42t13.5 -33.5t26.5 -22.5t44 -8q31 0 64 16t56 36v273q0 28 -2 45t-10 26.5t-25 13t-48 3.5v20l164 5v-357q0 -28 1.5 -45t8.5 -26.5t22 -13t43 -3.5v-20l-154 -25v81q-22 -21 -47 -39
t-51.5 -29.5t-54.5 -14.5t-56 6q-2 -45 -21.5 -84t-47.5 -67.5t-59 -45t-56 -16.5q-4 0 -13 1.5t-14.5 9.5t-3.5 25t21 47l28 -21t34 -13q10 0 20 7.5t17.5 28.5t12 58.5t4.5 96.5v346z" />
    <glyph glyph-name="mu" unicode="&#x3bc;" horiz-adv-x="590" 
d="M139 367q0 28 -1.5 45t-8.5 26.5t-22 13t-43 3.5v20l154 5v-332q0 -23 4 -42t13.5 -33.5t26.5 -22.5t44 -8q31 0 64 16t56 36v273q0 28 -2 45t-10 26.5t-25 13t-48 3.5v20l164 5v-357q0 -28 1.5 -45t8.5 -26.5t22 -13t43 -3.5v-20l-154 -25v81q-22 -21 -47 -39
t-51.5 -29.5t-54.5 -14.5t-56 6q-2 -45 -21.5 -84t-47.5 -67.5t-59 -45t-56 -16.5q-4 0 -13 1.5t-14.5 9.5t-3.5 25t21 47l28 -21t34 -13q10 0 20 7.5t17.5 28.5t12 58.5t4.5 96.5v346z" />
    <glyph glyph-name="paragraph" unicode="&#xb6;" horiz-adv-x="614" 
d="M456 107q0 -47 -19 -87.5t-47 -70.5t-60 -47t-58 -17q-4 0 -13 1.5t-14.5 9.5t-3.5 25t21 47l28 -21t34 -13q10 0 20 7.5t17 28.5t11.5 58.5t4.5 96.5v200h-72q-116 0 -170.5 46t-54.5 142t54.5 141.5t170.5 45.5h229v-20q-28 0 -43.5 -4t-23 -10.5t-9.5 -16t-2 -21.5
v-521z" />
    <glyph glyph-name="periodcentered" unicode="&#xb7;" horiz-adv-x="312" 
d="M156 207q-23 17 -41 35t-35 41q17 22 35.5 40t40.5 35q22 -17 40.5 -35t35.5 -40q-17 -23 -35.5 -41t-40.5 -35z" />
    <glyph glyph-name="cedilla" unicode="&#xb8;" horiz-adv-x="269" 
d="M115 0l-1 -34q0 -16 16 -21.5t36 -11.5t36.5 -17.5t16.5 -38.5q0 -20 -16 -36.5t-40 -28t-53 -17.5t-56 -4l-4 24q14 0 32.5 1.5t35 7t27.5 15t11 26.5t-5.5 25.5t-13.5 13t-17 7.5t-17 7t-12.5 12t-3.5 24l3 46h25z" />
    <glyph glyph-name="onesuperior" unicode="&#xb9;" horiz-adv-x="284" 
d="M51 480v14q21 0 33 2t18 7.5t8 14.5t2 24v245q0 14 -2 23t-8 14.5t-18 7.5t-33 2v13l109 14h15v-319q0 -15 1 -24t7 -14.5t17.5 -7.5t32.5 -2v-14h-182z" />
    <glyph glyph-name="ordmasculine" unicode="&#xba;" horiz-adv-x="377" 
d="M191 710q32 0 57 -12.5t42.5 -34.5t27 -51.5t9.5 -63.5t-10 -63.5t-28.5 -51.5t-44.5 -35t-58 -13t-57.5 13t-43 35t-26.5 51.5t-9 63.5t10 63.5t28.5 51.5t44.5 34.5t58 12.5zM188 404q24 0 40.5 11.5t26.5 31t14 45.5t4 56t-4 56t-14 45.5t-26.5 31t-40.5 11.5
t-40 -11.5t-26 -31t-14 -45.5t-4 -56t4 -56t14 -45.5t26 -31t40 -11.5z" />
    <glyph glyph-name="guillemotright" unicode="&#xbb;" horiz-adv-x="498" 
d="M267 247l-168 -165l-19 15l93 133q8 11 8 15t-8 17l-93 134l19 15zM418 247l-168 -165l-19 15l93 133q8 11 8 15t-8 17l-93 134l19 15z" />
    <glyph glyph-name="onequarter" unicode="&#xbc;" horiz-adv-x="763" 
d="M53 300v11q21 0 33.5 2t18.5 7.5t8 16t2 27.5v263q0 15 -2 24.5t-8.5 15t-18.5 7.5t-33 2v12l98 14h12v-338q0 -17 1 -27t7 -15.5t18 -7.5t34 -3v-11h-170zM580 720l33 -20l-433 -717l-33 20zM649 104v-40q0 -17 1.5 -27.5t7.5 -16t18 -7.5t33 -2v-11h-170v11q21 0 33 2
t18.5 7.5t8.5 16t2 27.5v40h-177v34l198 264h27v-264h54l-9 -34h-45zM601 138v201l-151 -201h151z" />
    <glyph glyph-name="onehalf" unicode="&#xbd;" horiz-adv-x="813" 
d="M53 300v11q21 0 33.5 2t18.5 7.5t8 16t2 27.5v263q0 15 -2 24.5t-8.5 15t-18.5 7.5t-33 2v12l98 14h12v-338q0 -17 1 -27t7 -15.5t18 -7.5t34 -3v-11h-170zM580 720l33 -20l-433 -717l-33 20zM495 11l60.5 57t61 65.5t47.5 72t19 77.5q0 39 -22.5 61.5t-58.5 22.5
q-25 0 -50 -15.5t-40 -43.5l-11 5q17 44 53 68t75 24q53 0 79.5 -30.5t26.5 -78.5q0 -38 -23 -77t-54 -73.5t-61.5 -61.5l-45.5 -41h203l-10 -43h-237z" />
    <glyph glyph-name="threequarters" unicode="&#xbe;" horiz-adv-x="812" 
d="M629 720l33 -20l-433 -717l-33 20zM698 104v-40q0 -17 1.5 -27.5t7.5 -16t18 -7.5t33 -2v-11h-170v11q21 0 33 2t18.5 7.5t8.5 16t2 27.5v40h-177v34l198 264h27v-264h54l-9 -34h-45zM650 138v201l-151 -201h151zM187 705q21 0 39.5 -6.5t33 -18.5t23 -28.5t8.5 -35.5
q0 -38 -26 -67t-60 -38v-1q53 -7 77.5 -36.5t24.5 -62.5q0 -28 -12.5 -50t-32.5 -37t-45.5 -22.5t-51.5 -7.5q-20 0 -39 5t-34 14.5t-24 23.5t-9 33q0 11 4.5 15.5t12 4t15.5 -4.5t16 -9q-8 -30 9 -47.5t49 -17.5q22 0 38.5 8.5t28 23t17 32.5t5.5 36q0 35 -19 62t-58 27
h-31v17h23q32 0 53 22.5t21 55.5q0 35 -24.5 53.5t-53.5 18.5q-23 0 -38.5 -7t-26.5 -16.5t-18 -19.5l-11 -16l-11 5q6 18 18.5 34.5t29 29t37 20.5t42.5 8z" />
    <glyph glyph-name="questiondown" unicode="&#xbf;" horiz-adv-x="518" 
d="M281 -239q-39 0 -75.5 17.5t-64.5 48.5t-44.5 72t-16.5 88q0 45 15 76t39 53t53.5 36.5t58.5 26.5q17 7 23.5 20t7 26.5t-1.5 26t-2 18.5h26l33 -164q-38 0 -75 -10.5t-66 -30t-47 -46t-18 -58.5q0 -26 11.5 -56t31.5 -55.5t48.5 -42.5t63.5 -17q58 0 73.5 30.5t0.5 84.5
q13 9 28 15.5t27 6.5t20 -9t8 -33q0 -40 -15.5 -64t-38.5 -37.5t-50.5 -18t-52.5 -4.5zM286 481q23 -17 41 -35t35 -41q-17 -22 -35.5 -40t-40.5 -35q-22 17 -40.5 35t-35.5 40q17 23 35.5 41t40.5 35z" />
    <glyph glyph-name="Agrave" unicode="&#xc0;" horiz-adv-x="740" 
d="M491 204h-282l-35 -92q-16 -45 0 -68.5t78 -23.5v-20h-242v20q28 0 46 4.5t31 15t23 28t21 44.5l235 598h12l234 -598q10 -27 19.5 -44.5t22.5 -28t31 -15t45 -4.5v-20h-275v20q32 0 50.5 5t25.5 16t5 28.5t-11 42.5zM221 237h257l-127 343zM249 920q17 8 42 6t47 -16
l73 -164h-21z" />
    <glyph glyph-name="Aacute" unicode="&#xc1;" horiz-adv-x="740" 
d="M491 204h-282l-35 -92q-16 -45 0 -68.5t78 -23.5v-20h-242v20q28 0 46 4.5t31 15t23 28t21 44.5l235 598h12l234 -598q10 -27 19.5 -44.5t22.5 -28t31 -15t45 -4.5v-20h-275v20q32 0 50.5 5t25.5 16t5 28.5t-11 42.5zM221 237h257l-127 343zM358 746h-21l73 164
q22 14 47 16t42 -6z" />
    <glyph glyph-name="Acircumflex" unicode="&#xc2;" horiz-adv-x="740" 
d="M491 204h-282l-35 -92q-16 -45 0 -68.5t78 -23.5v-20h-242v20q28 0 46 4.5t31 15t23 28t21 44.5l235 598h12l234 -598q10 -27 19.5 -44.5t22.5 -28t31 -15t45 -4.5v-20h-275v20q32 0 50.5 5t25.5 16t5 28.5t-11 42.5zM221 237h257l-127 343zM496 746l-127 104l-126 -104
h-24l123 167h54l125 -167h-25z" />
    <glyph glyph-name="Atilde" unicode="&#xc3;" horiz-adv-x="740" 
d="M491 204h-282l-35 -92q-16 -45 0 -68.5t78 -23.5v-20h-242v20q28 0 46 4.5t31 15t23 28t21 44.5l235 598h12l234 -598q10 -27 19.5 -44.5t22.5 -28t31 -15t45 -4.5v-20h-275v20q32 0 50.5 5t25.5 16t5 28.5t-11 42.5zM221 237h257l-127 343zM209 788q4 7 12.5 20t21.5 26
t29 23t34 10q21 0 40.5 -5t38 -11t37.5 -11t38 -5q9 0 23.5 5t31.5 28l16 -11q-4 -7 -12.5 -20t-21.5 -26t-29 -23t-34 -10q-21 0 -40.5 5t-38 11t-37.5 11t-38 5q-9 0 -23.5 -5t-31.5 -28z" />
    <glyph glyph-name="Adieresis" unicode="&#xc4;" horiz-adv-x="740" 
d="M491 204h-282l-35 -92q-16 -45 0 -68.5t78 -23.5v-20h-242v20q28 0 46 4.5t31 15t23 28t21 44.5l235 598h12l234 -598q10 -27 19.5 -44.5t22.5 -28t31 -15t45 -4.5v-20h-275v20q32 0 50.5 5t25.5 16t5 28.5t-11 42.5zM221 237h257l-127 343zM277 762q-17 11 -30 24.5
t-25 30.5q25 32 55 54q30 -22 55 -54q-11 -17 -25 -30.5t-30 -24.5zM462 762q-17 11 -30 24.5t-25 30.5q25 32 55 54q30 -22 55 -54q-11 -17 -25 -30.5t-30 -24.5z" />
    <glyph glyph-name="Aring" unicode="&#xc5;" horiz-adv-x="740" 
d="M269 774q0 21 8 39.5t21.5 32t32 21.5t39.5 8t39.5 -8t32 -21.5t21.5 -32t8 -39.5q0 -37 -22.5 -64t-57.5 -35l221 -563q10 -27 19.5 -44.5t22.5 -28t31 -15t45 -4.5v-20h-275v20q32 0 50.5 5t25.5 16t5 28.5t-11 42.5l-34 92h-282l-35 -92q-16 -45 0 -68.5t78 -23.5v-20
h-242v20q28 0 46 4.5t31 15t23 28t21 44.5l221 562q-36 7 -59.5 34.5t-23.5 65.5zM221 237h257l-127 343zM309 774q0 -26 17.5 -43.5t43.5 -17.5q25 0 43 17.5t18 43.5q0 25 -18 43t-43 18q-26 0 -43.5 -18t-17.5 -43z" />
    <glyph glyph-name="AE" unicode="&#xc6;" horiz-adv-x="930" 
d="M855 557h-20q-6 40 -14 62.5t-23 33t-40 12.5t-64 2h-166v-284h143q28 0 44.5 3t25.5 12t11.5 26.5t2.5 46.5h20v-212h-20q0 30 -2.5 48t-11.5 27.5t-25.5 12.5t-44.5 3h-143v-232q0 -44 19 -64t72 -20h124q26 0 47 4t36.5 16.5t26.5 37.5t17 67h20l-10 -159h-334
q-36 0 -56 9.5t-29.5 25t-12 35.5t-2.5 42v92h-228l-47 -92q-10 -20 -16.5 -36.5t-4 -28.5t16.5 -19t45 -7v-21h-202v21q28 0 45.5 5.5t30 16.5t22.5 28t22 41l303 588h417zM446 237v414l-211 -414h211z" />
    <glyph glyph-name="Ccedilla" unicode="&#xc7;" horiz-adv-x="672" 
d="M50 350q0 96 29 164t77.5 111.5t111 64t129.5 20.5q69 0 128.5 -21t109.5 -57l2 -173h-20q0 66 -21 108t-52.5 66t-69 33t-70.5 9q-59 0 -107.5 -23.5t-83 -66.5t-54 -102.5t-19.5 -132.5t19.5 -133t54 -102.5t83 -66t107.5 -23.5q33 0 70.5 9t69 33t52.5 66t21 108h20
l-2 -173q-48 -35 -106 -55.5t-124 -22.5v-24q0 -16 16 -21.5t36 -11.5t36.5 -17.5t16.5 -38.5q0 -20 -16 -36.5t-40 -28t-53 -17.5t-56 -4l-4 24q14 0 32.5 1.5t35 7t27.5 15t11 26.5t-5.5 25.5t-13.5 13t-17 7.5t-17 7t-12.5 12t-3.5 24l2 36q-65 2 -124.5 24t-105 65.5
t-73 110.5t-27.5 160z" />
    <glyph glyph-name="Egrave" unicode="&#xc8;" horiz-adv-x="622" 
d="M40 20q33 0 52.5 4.5t29.5 15t13 28t3 44.5v476q0 25 -2 42.5t-11.5 28.5t-29 16t-55.5 5v20h502l5 -143h-20q-6 40 -14 62.5t-23 33t-40 12.5t-64 2h-166v-284h143q28 0 44.5 3t25.5 12t11.5 26.5t2.5 46.5h20v-212h-20q0 30 -2.5 48t-11.5 27.5t-25.5 12.5t-44.5 3
h-143v-232q0 -44 19 -64t72 -20h124q26 0 47 4t36.5 16.5t26.5 37.5t17 67h20l-10 -159h-532v20zM230 920q17 8 42 6t47 -16l73 -164h-21z" />
    <glyph glyph-name="Eacute" unicode="&#xc9;" horiz-adv-x="622" 
d="M40 20q33 0 52.5 4.5t29.5 15t13 28t3 44.5v476q0 25 -2 42.5t-11.5 28.5t-29 16t-55.5 5v20h502l5 -143h-20q-6 40 -14 62.5t-23 33t-40 12.5t-64 2h-166v-284h143q28 0 44.5 3t25.5 12t11.5 26.5t2.5 46.5h20v-212h-20q0 30 -2.5 48t-11.5 27.5t-25.5 12.5t-44.5 3
h-143v-232q0 -44 19 -64t72 -20h124q26 0 47 4t36.5 16.5t26.5 37.5t17 67h20l-10 -159h-532v20zM251 746h-21l73 164q22 14 47 16t42 -6z" />
    <glyph glyph-name="Ecircumflex" unicode="&#xca;" horiz-adv-x="622" 
d="M40 20q33 0 52.5 4.5t29.5 15t13 28t3 44.5v476q0 25 -2 42.5t-11.5 28.5t-29 16t-55.5 5v20h502l5 -143h-20q-6 40 -14 62.5t-23 33t-40 12.5t-64 2h-166v-284h143q28 0 44.5 3t25.5 12t11.5 26.5t2.5 46.5h20v-212h-20q0 30 -2.5 48t-11.5 27.5t-25.5 12.5t-44.5 3
h-143v-232q0 -44 19 -64t72 -20h124q26 0 47 4t36.5 16.5t26.5 37.5t17 67h20l-10 -159h-532v20zM437 746l-127 104l-126 -104h-24l123 167h54l125 -167h-25z" />
    <glyph glyph-name="Edieresis" unicode="&#xcb;" horiz-adv-x="622" 
d="M40 20q33 0 52.5 4.5t29.5 15t13 28t3 44.5v476q0 25 -2 42.5t-11.5 28.5t-29 16t-55.5 5v20h502l5 -143h-20q-6 40 -14 62.5t-23 33t-40 12.5t-64 2h-166v-284h143q28 0 44.5 3t25.5 12t11.5 26.5t2.5 46.5h20v-212h-20q0 30 -2.5 48t-11.5 27.5t-25.5 12.5t-44.5 3
h-143v-232q0 -44 19 -64t72 -20h124q26 0 47 4t36.5 16.5t26.5 37.5t17 67h20l-10 -159h-532v20zM218 762q-17 11 -30 24.5t-25 30.5q25 32 55 54q30 -22 55 -54q-11 -17 -25 -30.5t-30 -24.5zM403 762q-17 11 -30 24.5t-25 30.5q25 32 55 54q30 -22 55 -54
q-11 -17 -25 -30.5t-30 -24.5z" />
    <glyph glyph-name="Igrave" unicode="&#xcc;" horiz-adv-x="358" 
d="M40 0v20q33 0 52.5 4.5t29.5 15t13 28t3 44.5v476q0 25 -2 42.5t-11.5 28.5t-29 16t-55.5 5v20h278v-20q-36 0 -55.5 -5t-29 -16t-11.5 -28.5t-2 -42.5v-476q0 -27 3 -44.5t13 -28t29.5 -15t52.5 -4.5v-20h-278zM98 920q17 8 42 6t47 -16l73 -164h-21z" />
    <glyph glyph-name="Iacute" unicode="&#xcd;" horiz-adv-x="358" 
d="M40 0v20q33 0 52.5 4.5t29.5 15t13 28t3 44.5v476q0 25 -2 42.5t-11.5 28.5t-29 16t-55.5 5v20h278v-20q-36 0 -55.5 -5t-29 -16t-11.5 -28.5t-2 -42.5v-476q0 -27 3 -44.5t13 -28t29.5 -15t52.5 -4.5v-20h-278zM119 746h-21l73 164q22 14 47 16t42 -6z" />
    <glyph glyph-name="Icircumflex" unicode="&#xce;" horiz-adv-x="358" 
d="M40 0v20q33 0 52.5 4.5t29.5 15t13 28t3 44.5v476q0 25 -2 42.5t-11.5 28.5t-29 16t-55.5 5v20h278v-20q-36 0 -55.5 -5t-29 -16t-11.5 -28.5t-2 -42.5v-476q0 -27 3 -44.5t13 -28t29.5 -15t52.5 -4.5v-20h-278zM305 746l-127 104l-126 -104h-24l123 167h54l125 -167h-25
z" />
    <glyph glyph-name="Idieresis" unicode="&#xcf;" horiz-adv-x="358" 
d="M40 0v20q33 0 52.5 4.5t29.5 15t13 28t3 44.5v476q0 25 -2 42.5t-11.5 28.5t-29 16t-55.5 5v20h278v-20q-36 0 -55.5 -5t-29 -16t-11.5 -28.5t-2 -42.5v-476q0 -27 3 -44.5t13 -28t29.5 -15t52.5 -4.5v-20h-278zM87 762q-17 11 -30 24.5t-25 30.5q25 32 55 54
q30 -22 55 -54q-11 -17 -25 -30.5t-30 -24.5zM272 762q-17 11 -30 24.5t-25 30.5q25 32 55 54q30 -22 55 -54q-11 -17 -25 -30.5t-30 -24.5z" />
    <glyph glyph-name="Eth" unicode="&#xd0;" horiz-adv-x="786" 
d="M40 366h98v222q0 27 -3 45t-13 28.5t-29.5 14.5t-52.5 4v20h263q35 0 80.5 -1.5t94 -11.5t94.5 -31t82.5 -60t59 -99t22.5 -147t-25.5 -147t-65.5 -99t-89 -60t-96.5 -31t-88 -11.5t-62.5 -1.5h-269v20q35 0 54.5 5t29.5 16t12 28.5t2 42.5v221h-98v33zM311 33
q29 0 65 1.5t73.5 10.5t72.5 28t62.5 54t44.5 89.5t17 133.5q0 78 -20.5 132t-53 89.5t-72.5 54.5t-78 28t-70 10.5t-49 1.5h-83v-300h120v-33h-120v-215q0 -39 19 -62t72 -23z" />
    <glyph glyph-name="Ntilde" unicode="&#xd1;" horiz-adv-x="859" 
d="M697 588q0 28 -5 45.5t-16 28t-30.5 14.5t-47.5 4v20h231v-20q-53 0 -72.5 -20.5t-19.5 -71.5v-593h-17l-524 584v-467q0 -29 4 -47t16.5 -28t35.5 -13.5t60 -3.5v-20h-255v20q30 0 49.5 3.5t31 13.5t15.5 28t4 47v476q0 52 -25 72t-92 20v20h170l487 -551v439zM268 788
q4 7 12.5 20t21.5 26t29 23t34 10q21 0 40.5 -5t38 -11t37.5 -11t38 -5q9 0 23.5 5t31.5 28l16 -11q-4 -7 -12.5 -20t-21.5 -26t-29 -23t-34 -10q-21 0 -40.5 5t-38 11t-37.5 11t-38 5q-9 0 -23.5 -5t-31.5 -28z" />
    <glyph glyph-name="Ograve" unicode="&#xd2;" horiz-adv-x="803" 
d="M402 -10q-77 0 -141.5 28t-111 76.5t-73 114t-26.5 141.5t26.5 141.5t73 114t111 76.5t141.5 28q76 0 140.5 -28t111.5 -76.5t73 -114t26 -141.5t-26 -141.5t-73 -114t-111.5 -76.5t-140.5 -28zM402 25q54 0 102 25.5t83 70t55.5 103.5t20.5 126t-20.5 126t-55.5 103.5
t-83 70t-102 25.5t-102 -25.5t-83.5 -70t-56 -103.5t-20.5 -126t20.5 -126t56 -103.5t83.5 -70t102 -25.5zM320 920q17 8 42 6t47 -16l73 -164h-21z" />
    <glyph glyph-name="Oacute" unicode="&#xd3;" horiz-adv-x="803" 
d="M402 -10q-77 0 -141.5 28t-111 76.5t-73 114t-26.5 141.5t26.5 141.5t73 114t111 76.5t141.5 28q76 0 140.5 -28t111.5 -76.5t73 -114t26 -141.5t-26 -141.5t-73 -114t-111.5 -76.5t-140.5 -28zM402 25q54 0 102 25.5t83 70t55.5 103.5t20.5 126t-20.5 126t-55.5 103.5
t-83 70t-102 25.5t-102 -25.5t-83.5 -70t-56 -103.5t-20.5 -126t20.5 -126t56 -103.5t83.5 -70t102 -25.5zM341 746h-21l73 164q22 14 47 16t42 -6z" />
    <glyph glyph-name="Ocircumflex" unicode="&#xd4;" horiz-adv-x="803" 
d="M402 -10q-77 0 -141.5 28t-111 76.5t-73 114t-26.5 141.5t26.5 141.5t73 114t111 76.5t141.5 28q76 0 140.5 -28t111.5 -76.5t73 -114t26 -141.5t-26 -141.5t-73 -114t-111.5 -76.5t-140.5 -28zM402 25q54 0 102 25.5t83 70t55.5 103.5t20.5 126t-20.5 126t-55.5 103.5
t-83 70t-102 25.5t-102 -25.5t-83.5 -70t-56 -103.5t-20.5 -126t20.5 -126t56 -103.5t83.5 -70t102 -25.5zM527 746l-127 104l-126 -104h-24l123 167h54l125 -167h-25z" />
    <glyph glyph-name="Otilde" unicode="&#xd5;" horiz-adv-x="803" 
d="M402 -10q-77 0 -141.5 28t-111 76.5t-73 114t-26.5 141.5t26.5 141.5t73 114t111 76.5t141.5 28q76 0 140.5 -28t111.5 -76.5t73 -114t26 -141.5t-26 -141.5t-73 -114t-111.5 -76.5t-140.5 -28zM402 25q54 0 102 25.5t83 70t55.5 103.5t20.5 126t-20.5 126t-55.5 103.5
t-83 70t-102 25.5t-102 -25.5t-83.5 -70t-56 -103.5t-20.5 -126t20.5 -126t56 -103.5t83.5 -70t102 -25.5zM240 788q4 7 12.5 20t21.5 26t29 23t34 10q21 0 40.5 -5t38 -11t37.5 -11t38 -5q9 0 23.5 5t31.5 28l16 -11q-4 -7 -12.5 -20t-21.5 -26t-29 -23t-34 -10
q-21 0 -40.5 5t-38 11t-37.5 11t-38 5q-9 0 -23.5 -5t-31.5 -28z" />
    <glyph glyph-name="Odieresis" unicode="&#xd6;" horiz-adv-x="803" 
d="M402 -10q-77 0 -141.5 28t-111 76.5t-73 114t-26.5 141.5t26.5 141.5t73 114t111 76.5t141.5 28q76 0 140.5 -28t111.5 -76.5t73 -114t26 -141.5t-26 -141.5t-73 -114t-111.5 -76.5t-140.5 -28zM402 25q54 0 102 25.5t83 70t55.5 103.5t20.5 126t-20.5 126t-55.5 103.5
t-83 70t-102 25.5t-102 -25.5t-83.5 -70t-56 -103.5t-20.5 -126t20.5 -126t56 -103.5t83.5 -70t102 -25.5zM309 762q-17 11 -30 24.5t-25 30.5q25 32 55 54q30 -22 55 -54q-11 -17 -25 -30.5t-30 -24.5zM494 762q-17 11 -30 24.5t-25 30.5q25 32 55 54q30 -22 55 -54
q-11 -17 -25 -30.5t-30 -24.5z" />
    <glyph glyph-name="multiply" unicode="&#xd7;" horiz-adv-x="502" 
d="M386 496l35 -36l-135 -135l136 -135l-35 -36l-136 136l-136 -136l-35 36l135 135l-135 136l35 35l136 -135z" />
    <glyph glyph-name="Oslash" unicode="&#xd8;" horiz-adv-x="803" 
d="M85 0l72 86q-51 49 -79 116.5t-28 147.5q0 76 26.5 141.5t73 114t111 76.5t141.5 28q63 0 118 -19.5t100 -54.5l71 85l26 -21l-72 -86q51 -49 79.5 -117t28.5 -147q0 -76 -26 -141.5t-73 -114t-111.5 -76.5t-140.5 -28q-64 0 -119 19.5t-100 54.5l-72 -85zM140 350
q0 -60 16.5 -114t45.5 -97l377 449q-35 41 -80 64t-97 23q-54 0 -102 -25.5t-83.5 -70t-56 -103.5t-20.5 -126zM402 25q54 0 102 25.5t83 70t55.5 103.5t20.5 126q0 60 -17 114t-46 97l-377 -449q35 -41 80.5 -64t98.5 -23z" />
    <glyph glyph-name="Ugrave" unicode="&#xd9;" horiz-adv-x="762" 
d="M653 253q0 -54 -11.5 -102t-41 -83.5t-81 -56.5t-132.5 -21q-75 0 -125.5 21.5t-81 59t-44 87t-13.5 105.5v325q0 24 -2.5 41.5t-13 29t-31 16.5t-56.5 5v20h279v-20q-35 0 -54 -5t-28 -16.5t-10.5 -29t-1.5 -41.5v-291q0 -74 14 -125t40.5 -83t64.5 -46.5t85 -14.5
q45 0 82.5 12t64.5 38.5t42 68.5t15 103v338q0 24 -3.5 41.5t-15.5 29t-33.5 16.5t-57.5 5v20h239v-20q-29 0 -46.5 -5t-27 -16t-12.5 -28.5t-3 -42.5v-335zM300 920q17 8 42 6t47 -16l73 -164h-21z" />
    <glyph glyph-name="Uacute" unicode="&#xda;" horiz-adv-x="762" 
d="M653 253q0 -54 -11.5 -102t-41 -83.5t-81 -56.5t-132.5 -21q-75 0 -125.5 21.5t-81 59t-44 87t-13.5 105.5v325q0 24 -2.5 41.5t-13 29t-31 16.5t-56.5 5v20h279v-20q-35 0 -54 -5t-28 -16.5t-10.5 -29t-1.5 -41.5v-291q0 -74 14 -125t40.5 -83t64.5 -46.5t85 -14.5
q45 0 82.5 12t64.5 38.5t42 68.5t15 103v338q0 24 -3.5 41.5t-15.5 29t-33.5 16.5t-57.5 5v20h239v-20q-29 0 -46.5 -5t-27 -16t-12.5 -28.5t-3 -42.5v-335zM321 746h-21l73 164q22 14 47 16t42 -6z" />
    <glyph glyph-name="Ucircumflex" unicode="&#xdb;" horiz-adv-x="762" 
d="M653 253q0 -54 -11.5 -102t-41 -83.5t-81 -56.5t-132.5 -21q-75 0 -125.5 21.5t-81 59t-44 87t-13.5 105.5v325q0 24 -2.5 41.5t-13 29t-31 16.5t-56.5 5v20h279v-20q-35 0 -54 -5t-28 -16.5t-10.5 -29t-1.5 -41.5v-291q0 -74 14 -125t40.5 -83t64.5 -46.5t85 -14.5
q45 0 82.5 12t64.5 38.5t42 68.5t15 103v338q0 24 -3.5 41.5t-15.5 29t-33.5 16.5t-57.5 5v20h239v-20q-29 0 -46.5 -5t-27 -16t-12.5 -28.5t-3 -42.5v-335zM507 746l-127 104l-126 -104h-24l123 167h54l125 -167h-25z" />
    <glyph glyph-name="Udieresis" unicode="&#xdc;" horiz-adv-x="762" 
d="M653 253q0 -54 -11.5 -102t-41 -83.5t-81 -56.5t-132.5 -21q-75 0 -125.5 21.5t-81 59t-44 87t-13.5 105.5v325q0 24 -2.5 41.5t-13 29t-31 16.5t-56.5 5v20h279v-20q-35 0 -54 -5t-28 -16.5t-10.5 -29t-1.5 -41.5v-291q0 -74 14 -125t40.5 -83t64.5 -46.5t85 -14.5
q45 0 82.5 12t64.5 38.5t42 68.5t15 103v338q0 24 -3.5 41.5t-15.5 29t-33.5 16.5t-57.5 5v20h239v-20q-29 0 -46.5 -5t-27 -16t-12.5 -28.5t-3 -42.5v-335zM318 762q-17 11 -30 24.5t-25 30.5q25 32 55 54q30 -22 55 -54q-11 -17 -25 -30.5t-30 -24.5zM503 762
q-17 11 -30 24.5t-25 30.5q25 32 55 54q30 -22 55 -54q-11 -17 -25 -30.5t-30 -24.5z" />
    <glyph glyph-name="Yacute" unicode="&#xdd;" 
d="M359 341l143 265q6 11 10 24t0.5 24t-18.5 18.5t-47 7.5v20h221v-20q-25 0 -43.5 -5t-33 -15.5t-27 -27t-25.5 -38.5l-160 -294v-188q0 -29 5.5 -47t19 -28t36.5 -13.5t57 -3.5v-20h-318v20q33 0 55.5 3.5t36.5 13.5t20 28t6 47v188l-178 308l-19 32.5t-19 22.5t-27.5 13
t-43.5 4v20h257v-20q-53 0 -64.5 -17.5t12.5 -61.5zM279 746h-21l73 164q22 14 47 16t42 -6z" />
    <glyph glyph-name="Thorn" unicode="&#xde;" horiz-adv-x="603" 
d="M220 154h59q27 0 62.5 6t67 26.5t53 59.5t21.5 104t-21.5 104t-53 59.5t-67 26.5t-62.5 6h-59v-392zM138 588q0 27 -3 44.5t-13 28t-29.5 15t-52.5 4.5v20h298v-20q-39 0 -62 -4.5t-35.5 -15t-16.5 -28t-4 -44.5v-18h59q138 0 216 -57t78 -163t-78 -163t-216 -57h-59v-18
q0 -27 4 -44.5t16.5 -28t35.5 -15t62 -4.5v-20h-298v20q33 0 52.5 4.5t29.5 15t13 28t3 44.5v476z" />
    <glyph glyph-name="germandbls" unicode="&#xdf;" horiz-adv-x="626" 
d="M299 720q48 0 68.5 -19.5t23 -49.5t-8 -66.5t-24 -70.5l-25 -61t-11.5 -39q0 -22 19.5 -43.5t49 -44t63.5 -45t63.5 -48t49 -53t19.5 -58.5q0 -37 -17 -62t-43.5 -40.5t-57.5 -22.5t-58 -7q-38 0 -77 11t-63 32l5 110h20q8 -69 40 -96.5t86 -27.5q19 0 35 7t27.5 17.5
t17.5 23.5t6 25q0 31 -17.5 55.5t-43.5 45.5t-56 40t-56 39.5t-43.5 43.5t-17.5 52q0 21 10 42t22.5 42.5t24 43.5t15.5 45t-3.5 46.5t-32.5 49.5q-10 10 -27.5 22t-34.5 12q-11 0 -20.5 -7.5t-16.5 -28.5t-11.5 -58.5t-4.5 -96.5v-372q0 -28 0.5 -45t4.5 -26.5t11.5 -13
t22.5 -3.5v-20h-203v20q28 0 45 3.5t26 13t11.5 26.5t2.5 45v339h-75v33h75v18q0 47 17.5 87.5t44.5 70.5t59.5 47t62.5 17z" />
    <glyph glyph-name="agrave" unicode="&#xe0;" horiz-adv-x="454" 
d="M444 10q-45 -20 -79 -20q-25 0 -43.5 13t-28.5 45q-42 -32 -77 -45t-65 -13q-47 0 -79 35t-32 95q0 33 27 51.5t66 27.5t82.5 11.5l75.5 4.5v159q0 40 -15 64t-54 24q-32 0 -51.5 -12t-30 -29t-12 -37t3.5 -35q-30 -19 -46.5 -21.5t-24 3t-8.5 14.5t-1 13q0 26 19.5 50
t49.5 42t65 29t66 11q41 0 64.5 -10t35.5 -25t15.5 -33t3.5 -34v-316q0 -9 2 -20t8.5 -19t19 -10.5t33.5 5.5zM121 111q2 -32 14 -57.5t42 -25.5q26 0 58.5 12t55.5 33v120q-40 -3 -71.5 -6t-53.5 -10.5t-33.5 -22.5t-11.5 -43zM146 700q17 8 42 6t47 -16l73 -164h-21z" />
    <glyph glyph-name="aacute" unicode="&#xe1;" horiz-adv-x="454" 
d="M444 10q-45 -20 -79 -20q-25 0 -43.5 13t-28.5 45q-42 -32 -77 -45t-65 -13q-47 0 -79 35t-32 95q0 33 27 51.5t66 27.5t82.5 11.5l75.5 4.5v159q0 40 -15 64t-54 24q-32 0 -51.5 -12t-30 -29t-12 -37t3.5 -35q-30 -19 -46.5 -21.5t-24 3t-8.5 14.5t-1 13q0 26 19.5 50
t49.5 42t65 29t66 11q41 0 64.5 -10t35.5 -25t15.5 -33t3.5 -34v-316q0 -9 2 -20t8.5 -19t19 -10.5t33.5 5.5zM121 111q2 -32 14 -57.5t42 -25.5q26 0 58.5 12t55.5 33v120q-40 -3 -71.5 -6t-53.5 -10.5t-33.5 -22.5t-11.5 -43zM167 526h-21l73 164q22 14 47 16t42 -6z" />
    <glyph glyph-name="acircumflex" unicode="&#xe2;" horiz-adv-x="454" 
d="M444 10q-45 -20 -79 -20q-25 0 -43.5 13t-28.5 45q-42 -32 -77 -45t-65 -13q-47 0 -79 35t-32 95q0 33 27 51.5t66 27.5t82.5 11.5l75.5 4.5v159q0 40 -15 64t-54 24q-32 0 -51.5 -12t-30 -29t-12 -37t3.5 -35q-30 -19 -46.5 -21.5t-24 3t-8.5 14.5t-1 13q0 26 19.5 50
t49.5 42t65 29t66 11q41 0 64.5 -10t35.5 -25t15.5 -33t3.5 -34v-316q0 -9 2 -20t8.5 -19t19 -10.5t33.5 5.5zM121 111q2 -32 14 -57.5t42 -25.5q26 0 58.5 12t55.5 33v120q-40 -3 -71.5 -6t-53.5 -10.5t-33.5 -22.5t-11.5 -43zM353 526l-127 104l-126 -104h-24l123 167h54
l125 -167h-25z" />
    <glyph glyph-name="atilde" unicode="&#xe3;" horiz-adv-x="454" 
d="M444 10q-45 -20 -79 -20q-25 0 -43.5 13t-28.5 45q-42 -32 -77 -45t-65 -13q-47 0 -79 35t-32 95q0 33 27 51.5t66 27.5t82.5 11.5l75.5 4.5v159q0 40 -15 64t-54 24q-32 0 -51.5 -12t-30 -29t-12 -37t3.5 -35q-30 -19 -46.5 -21.5t-24 3t-8.5 14.5t-1 13q0 26 19.5 50
t49.5 42t65 29t66 11q41 0 64.5 -10t35.5 -25t15.5 -33t3.5 -34v-316q0 -9 2 -20t8.5 -19t19 -10.5t33.5 5.5zM121 111q2 -32 14 -57.5t42 -25.5q26 0 58.5 12t55.5 33v120q-40 -3 -71.5 -6t-53.5 -10.5t-33.5 -22.5t-11.5 -43zM66 568q4 7 12.5 20t21.5 26t29 23t34 10
q21 0 40.5 -5t38 -11t37.5 -11t38 -5q9 0 23.5 5t31.5 28l16 -11q-4 -7 -12.5 -20t-21.5 -26t-29 -23t-34 -10q-21 0 -40.5 5t-38 11t-37.5 11t-38 5q-9 0 -23.5 -5t-31.5 -28z" />
    <glyph glyph-name="adieresis" unicode="&#xe4;" horiz-adv-x="454" 
d="M444 10q-45 -20 -79 -20q-25 0 -43.5 13t-28.5 45q-42 -32 -77 -45t-65 -13q-47 0 -79 35t-32 95q0 33 27 51.5t66 27.5t82.5 11.5l75.5 4.5v159q0 40 -15 64t-54 24q-32 0 -51.5 -12t-30 -29t-12 -37t3.5 -35q-30 -19 -46.5 -21.5t-24 3t-8.5 14.5t-1 13q0 26 19.5 50
t49.5 42t65 29t66 11q41 0 64.5 -10t35.5 -25t15.5 -33t3.5 -34v-316q0 -9 2 -20t8.5 -19t19 -10.5t33.5 5.5zM121 111q2 -32 14 -57.5t42 -25.5q26 0 58.5 12t55.5 33v120q-40 -3 -71.5 -6t-53.5 -10.5t-33.5 -22.5t-11.5 -43zM134 542q-17 11 -30 24.5t-25 30.5
q25 32 55 54q30 -22 55 -54q-11 -17 -25 -30.5t-30 -24.5zM319 542q-17 11 -30 24.5t-25 30.5q25 32 55 54q30 -22 55 -54q-11 -17 -25 -30.5t-30 -24.5z" />
    <glyph glyph-name="aring" unicode="&#xe5;" horiz-adv-x="454" 
d="M444 10q-45 -20 -79 -20q-25 0 -43.5 13t-28.5 45q-42 -32 -77 -45t-65 -13q-47 0 -79 35t-32 95q0 33 27 51.5t66 27.5t82.5 11.5l75.5 4.5v159q0 40 -15 64t-54 24q-32 0 -51.5 -12t-30 -29t-12 -37t3.5 -35q-30 -19 -46.5 -21.5t-24 3t-8.5 14.5t-1 13q0 26 19.5 50
t49.5 42t65 29t66 11q41 0 64.5 -10t35.5 -25t15.5 -33t3.5 -34v-316q0 -9 2 -20t8.5 -19t19 -10.5t33.5 5.5zM121 111q2 -32 14 -57.5t42 -25.5q26 0 58.5 12t55.5 33v120q-40 -3 -71.5 -6t-53.5 -10.5t-33.5 -22.5t-11.5 -43zM126 623q0 21 8 39.5t21.5 32t32 21.5t39.5 8
t39.5 -8t32 -21.5t21.5 -32t8 -39.5t-8 -39.5t-21.5 -32t-32 -21.5t-39.5 -8t-39.5 8t-32 21.5t-21.5 32t-8 39.5zM166 623q0 -26 17.5 -43.5t43.5 -17.5q25 0 43 17.5t18 43.5q0 25 -18 43t-43 18q-26 0 -43.5 -18t-17.5 -43z" />
    <glyph glyph-name="ae" unicode="&#xe6;" horiz-adv-x="708" 
d="M510 490q29 0 61.5 -10t57 -34t35 -63t-5.5 -97l-287 -16q-5 -81 18.5 -134t64.5 -76t94 -16.5t107 43.5l10 -18q-49 -44 -98.5 -62.5t-93.5 -15.5t-81 26.5t-62 64.5q-40 -44 -89 -68t-90 -24q-47 0 -79 35t-32 95q0 32 26 50t64.5 27t82 12t79.5 5q0 3 -0.5 8.5
t-0.5 21v46v84.5q0 40 -15 64t-54 24q-32 0 -51.5 -12t-30 -29t-12 -37t3.5 -35q-30 -19 -46.5 -21.5t-24 3t-8.5 14.5t-1 13q0 26 19.5 50t49.5 42t65 29t66 11q28 0 48 -5t33 -13.5t20.5 -19t11.5 -22.5q31 29 68.5 44.5t76.5 15.5zM510 461q-33 0 -58.5 -14t-42.5 -37
t-26.5 -52t-9.5 -59l202 11q9 30 11.5 57t-4 48t-24 33.5t-48.5 12.5zM177 28q14 0 32 4t37.5 13t38.5 23t35 33q-19 39 -27 92q-39 -2 -71 -5t-54.5 -11t-34.5 -23.5t-12 -42.5q2 -32 14 -57.5t42 -25.5z" />
    <glyph glyph-name="ccedilla" unicode="&#xe7;" horiz-adv-x="456" 
d="M259 490q25 0 52.5 -4.5t50.5 -18t38.5 -37.5t15.5 -64q0 -24 -8 -33t-20 -9t-27 6.5t-28 15.5q15 54 -0.5 84.5t-73.5 30.5q-39 0 -66 -23t-43.5 -57t-23.5 -71.5t-7 -66.5q0 -73 25.5 -120t66 -67t91.5 -12.5t102 43.5l10 -18q-42 -37 -83.5 -56t-80.5 -22v-25
q0 -16 16 -21.5t36 -11.5t36.5 -17.5t16.5 -38.5q0 -20 -16 -36.5t-40 -28t-53 -17.5t-56 -4l-4 24q14 0 32.5 1.5t35 7t27.5 15t11 26.5t-5.5 25.5t-13.5 13t-17 7.5t-17 7t-12.5 12t-3.5 24l2 37q-39 2 -73 20t-59 50.5t-39 77.5t-14 101q0 60 19 106.5t50 78.5t70.5 48.5
t79.5 16.5z" />
    <glyph glyph-name="egrave" unicode="&#xe8;" horiz-adv-x="457" 
d="M259 490q29 0 61.5 -10t57 -34t35 -63t-5.5 -97l-287 -16q-5 -81 18.5 -134t64.5 -76t94 -16.5t107 43.5l10 -18q-67 -60 -134 -73.5t-120 11.5t-86.5 85.5t-33.5 147.5q0 60 19 106.5t50 78.5t70.5 48.5t79.5 16.5zM259 461q-33 0 -58.5 -14t-42.5 -37t-26.5 -52
t-9.5 -59l202 11q9 30 11.5 57t-4 48t-24 33.5t-48.5 12.5zM147 700q17 8 42 6t47 -16l73 -164h-21z" />
    <glyph glyph-name="eacute" unicode="&#xe9;" horiz-adv-x="457" 
d="M259 490q29 0 61.5 -10t57 -34t35 -63t-5.5 -97l-287 -16q-5 -81 18.5 -134t64.5 -76t94 -16.5t107 43.5l10 -18q-67 -60 -134 -73.5t-120 11.5t-86.5 85.5t-33.5 147.5q0 60 19 106.5t50 78.5t70.5 48.5t79.5 16.5zM259 461q-33 0 -58.5 -14t-42.5 -37t-26.5 -52
t-9.5 -59l202 11q9 30 11.5 57t-4 48t-24 33.5t-48.5 12.5zM168 526h-21l73 164q22 14 47 16t42 -6z" />
    <glyph glyph-name="ecircumflex" unicode="&#xea;" horiz-adv-x="457" 
d="M259 490q29 0 61.5 -10t57 -34t35 -63t-5.5 -97l-287 -16q-5 -81 18.5 -134t64.5 -76t94 -16.5t107 43.5l10 -18q-67 -60 -134 -73.5t-120 11.5t-86.5 85.5t-33.5 147.5q0 60 19 106.5t50 78.5t70.5 48.5t79.5 16.5zM259 461q-33 0 -58.5 -14t-42.5 -37t-26.5 -52
t-9.5 -59l202 11q9 30 11.5 57t-4 48t-24 33.5t-48.5 12.5zM371 526l-127 104l-126 -104h-24l123 167h54l125 -167h-25z" />
    <glyph glyph-name="edieresis" unicode="&#xeb;" horiz-adv-x="457" 
d="M259 490q29 0 61.5 -10t57 -34t35 -63t-5.5 -97l-287 -16q-5 -81 18.5 -134t64.5 -76t94 -16.5t107 43.5l10 -18q-67 -60 -134 -73.5t-120 11.5t-86.5 85.5t-33.5 147.5q0 60 19 106.5t50 78.5t70.5 48.5t79.5 16.5zM259 461q-33 0 -58.5 -14t-42.5 -37t-26.5 -52
t-9.5 -59l202 11q9 30 11.5 57t-4 48t-24 33.5t-48.5 12.5zM136 542q-17 11 -30 24.5t-25 30.5q25 32 55 54q30 -22 55 -54q-11 -17 -25 -30.5t-30 -24.5zM321 542q-17 11 -30 24.5t-25 30.5q25 32 55 54q30 -22 55 -54q-11 -17 -25 -30.5t-30 -24.5z" />
    <glyph glyph-name="igrave" unicode="&#xec;" horiz-adv-x="272" 
d="M262 0h-232v20q28 0 44 3.5t24 13t10 26.5t2 45v259q0 28 -1.5 45t-8.5 26.5t-22 13t-43 3.5v20l157 10l-3 -103v-274q0 -28 2 -45t9.5 -26.5t22 -13t39.5 -3.5v-20zM55 700q17 8 42 6t47 -16l73 -164h-21z" />
    <glyph glyph-name="iacute" unicode="&#xed;" horiz-adv-x="272" 
d="M262 0h-232v20q28 0 44 3.5t24 13t10 26.5t2 45v259q0 28 -1.5 45t-8.5 26.5t-22 13t-43 3.5v20l157 10l-3 -103v-274q0 -28 2 -45t9.5 -26.5t22 -13t39.5 -3.5v-20zM76 526h-21l73 164q22 14 47 16t42 -6z" />
    <glyph glyph-name="icircumflex" unicode="&#xee;" horiz-adv-x="272" 
d="M262 0h-232v20q28 0 44 3.5t24 13t10 26.5t2 45v259q0 28 -1.5 45t-8.5 26.5t-22 13t-43 3.5v20l157 10l-3 -103v-274q0 -28 2 -45t9.5 -26.5t22 -13t39.5 -3.5v-20zM262 526l-127 104l-126 -104h-24l123 167h54l125 -167h-25z" />
    <glyph glyph-name="idieresis" unicode="&#xef;" horiz-adv-x="272" 
d="M262 0h-232v20q28 0 44 3.5t24 13t10 26.5t2 45v259q0 28 -1.5 45t-8.5 26.5t-22 13t-43 3.5v20l157 10l-3 -103v-274q0 -28 2 -45t9.5 -26.5t22 -13t39.5 -3.5v-20zM44 542q-17 11 -30 24.5t-25 30.5q25 32 55 54q30 -22 55 -54q-11 -17 -25 -30.5t-30 -24.5zM229 542
q-17 11 -30 24.5t-25 30.5q25 32 55 54q30 -22 55 -54q-11 -17 -25 -30.5t-30 -24.5z" />
    <glyph glyph-name="eth" unicode="&#xf0;" horiz-adv-x="530" 
d="M216 546l72 72q-26 24 -55.5 41.5t-61.5 29.5l13 21q28 -6 62 -22t69 -43l65 65l24 -23l-63 -63q30 -26 57 -59.5t47.5 -75t32.5 -90t12 -105.5q0 -54 -16 -108.5t-47.5 -98t-78 -70.5t-106.5 -27q-38 0 -74 13t-64.5 37.5t-46 60.5t-17.5 83q0 53 18.5 95.5t48.5 72.5
t69 46.5t80 16.5q39 0 76.5 -16t71.5 -50q-8 83 -32 143t-61 102l-71 -71zM291 368q-32 0 -61.5 -14.5t-52.5 -41.5t-37 -65.5t-14 -86.5q0 -42 11.5 -69t29 -43t37 -22t36.5 -6q49 0 81.5 31.5t51.5 77t25.5 95.5t5.5 88q-25 29 -54.5 42.5t-58.5 13.5z" />
    <glyph glyph-name="ntilde" unicode="&#xf1;" horiz-adv-x="575" 
d="M262 0h-232v20q28 0 44 3.5t24 13t10 26.5t2 45v259q0 28 -1.5 45t-8.5 26.5t-22 13t-43 3.5v20l157 10l-3 -103q17 25 40.5 45t49.5 34t53 21.5t50 7.5q43 0 73 -28.5t30 -92.5v-261q0 -28 2 -45t10.5 -26.5t24.5 -13t43 -3.5v-20h-231v20q25 0 39 3.5t21.5 13t9.5 26.5
t2 45v236q0 50 -20.5 74t-50.5 24q-32 0 -73.5 -25.5t-72.5 -76.5v-232q0 -28 2 -45t9.5 -26.5t22 -13t39.5 -3.5v-20zM126 568q4 7 12.5 20t21.5 26t29 23t34 10q21 0 40.5 -5t38 -11t37.5 -11t38 -5q9 0 23.5 5t31.5 28l16 -11q-4 -7 -12.5 -20t-21.5 -26t-29 -23t-34 -10
q-21 0 -40.5 5t-38 11t-37.5 11t-38 5q-9 0 -23.5 -5t-31.5 -28z" />
    <glyph glyph-name="ograve" unicode="&#xf2;" horiz-adv-x="507" 
d="M257 490q49 0 88 -19.5t66 -53.5t41.5 -79.5t14.5 -97.5t-15.5 -97.5t-44 -79.5t-69 -53.5t-89.5 -19.5t-88 19.5t-66 53.5t-41 79.5t-14 97.5t15.5 97.5t44 79.5t68.5 53.5t89 19.5zM253 19q37 0 62 17.5t40.5 47.5t22 70t6.5 86t-6.5 86t-22 70t-40.5 47.5t-62 17.5
t-62 -17.5t-40 -47.5t-21.5 -70t-6.5 -86t6.5 -86t21.5 -70t40 -47.5t62 -17.5zM172 700q17 8 42 6t47 -16l73 -164h-21z" />
    <glyph glyph-name="oacute" unicode="&#xf3;" horiz-adv-x="507" 
d="M257 490q49 0 88 -19.5t66 -53.5t41.5 -79.5t14.5 -97.5t-15.5 -97.5t-44 -79.5t-69 -53.5t-89.5 -19.5t-88 19.5t-66 53.5t-41 79.5t-14 97.5t15.5 97.5t44 79.5t68.5 53.5t89 19.5zM253 19q37 0 62 17.5t40.5 47.5t22 70t6.5 86t-6.5 86t-22 70t-40.5 47.5t-62 17.5
t-62 -17.5t-40 -47.5t-21.5 -70t-6.5 -86t6.5 -86t21.5 -70t40 -47.5t62 -17.5zM193 526h-21l73 164q22 14 47 16t42 -6z" />
    <glyph glyph-name="ocircumflex" unicode="&#xf4;" horiz-adv-x="507" 
d="M257 490q49 0 88 -19.5t66 -53.5t41.5 -79.5t14.5 -97.5t-15.5 -97.5t-44 -79.5t-69 -53.5t-89.5 -19.5t-88 19.5t-66 53.5t-41 79.5t-14 97.5t15.5 97.5t44 79.5t68.5 53.5t89 19.5zM253 19q37 0 62 17.5t40.5 47.5t22 70t6.5 86t-6.5 86t-22 70t-40.5 47.5t-62 17.5
t-62 -17.5t-40 -47.5t-21.5 -70t-6.5 -86t6.5 -86t21.5 -70t40 -47.5t62 -17.5zM379 526l-127 104l-126 -104h-24l123 167h54l125 -167h-25z" />
    <glyph glyph-name="otilde" unicode="&#xf5;" horiz-adv-x="507" 
d="M257 490q49 0 88 -19.5t66 -53.5t41.5 -79.5t14.5 -97.5t-15.5 -97.5t-44 -79.5t-69 -53.5t-89.5 -19.5t-88 19.5t-66 53.5t-41 79.5t-14 97.5t15.5 97.5t44 79.5t68.5 53.5t89 19.5zM253 19q37 0 62 17.5t40.5 47.5t22 70t6.5 86t-6.5 86t-22 70t-40.5 47.5t-62 17.5
t-62 -17.5t-40 -47.5t-21.5 -70t-6.5 -86t6.5 -86t21.5 -70t40 -47.5t62 -17.5zM92 568q4 7 12.5 20t21.5 26t29 23t34 10q21 0 40.5 -5t38 -11t37.5 -11t38 -5q9 0 23.5 5t31.5 28l16 -11q-4 -7 -12.5 -20t-21.5 -26t-29 -23t-34 -10q-21 0 -40.5 5t-38 11t-37.5 11t-38 5
q-9 0 -23.5 -5t-31.5 -28z" />
    <glyph glyph-name="odieresis" unicode="&#xf6;" horiz-adv-x="507" 
d="M257 490q49 0 88 -19.5t66 -53.5t41.5 -79.5t14.5 -97.5t-15.5 -97.5t-44 -79.5t-69 -53.5t-89.5 -19.5t-88 19.5t-66 53.5t-41 79.5t-14 97.5t15.5 97.5t44 79.5t68.5 53.5t89 19.5zM253 19q37 0 62 17.5t40.5 47.5t22 70t6.5 86t-6.5 86t-22 70t-40.5 47.5t-62 17.5
t-62 -17.5t-40 -47.5t-21.5 -70t-6.5 -86t6.5 -86t21.5 -70t40 -47.5t62 -17.5zM161 542q-17 11 -30 24.5t-25 30.5q25 32 55 54q30 -22 55 -54q-11 -17 -25 -30.5t-30 -24.5zM346 542q-17 11 -30 24.5t-25 30.5q25 32 55 54q30 -22 55 -54q-11 -17 -25 -30.5t-30 -24.5z
" />
    <glyph glyph-name="divide" unicode="&#xf7;" horiz-adv-x="593" 
d="M242 162q0 23 16 38.5t39 15.5q22 0 37.5 -15.5t15.5 -38.5t-15.5 -38.5t-37.5 -15.5q-23 0 -39 15.5t-16 38.5zM242 488q0 23 16 38.5t39 15.5q22 0 37.5 -15.5t15.5 -38.5t-15.5 -38.5t-37.5 -15.5q-23 0 -39 15.5t-16 38.5zM513 350v-50h-433v50h433z" />
    <glyph glyph-name="oslash" unicode="&#xf8;" horiz-adv-x="507" 
d="M63 0l39 55q-30 35 -46 82.5t-16 102.5q0 52 15.5 97.5t44 79.5t68.5 53.5t89 19.5q35 0 65 -10.5t55 -29.5l34 49l27 -19l-36 -52q32 -35 48.5 -83t16.5 -105q0 -52 -15.5 -97.5t-44 -79.5t-69 -53.5t-89.5 -19.5q-72 0 -123 42l-36 -51zM253 19q37 0 62 17.5t40.5 47.5
t22 70t6.5 86q0 38 -4.5 72t-14.5 63l-210 -300q16 -26 39.5 -41t58.5 -15zM123 240q0 -37 4 -70t13 -60l208 299q-15 24 -38.5 38t-56.5 14q-37 0 -62 -17.5t-40 -47.5t-21.5 -70t-6.5 -86z" />
    <glyph glyph-name="ugrave" unicode="&#xf9;" horiz-adv-x="536" 
d="M451 123q0 -28 1.5 -45t8.5 -26.5t22 -13t43 -3.5v-20l-154 -25v81q-36 -35 -75.5 -59t-91.5 -24q-57 0 -89 32.5t-32 89.5l1 257q0 28 -1.5 45t-8.5 26.5t-22 13t-43 3.5v20l154 10v-337q0 -23 4 -42t13.5 -33.5t26.5 -22.5t44 -8q31 0 64 16t56 36v273q0 28 -2 45
t-10 26.5t-25 13t-48 3.5v20l164 10v-362zM187 700q17 8 42 6t47 -16l73 -164h-21z" />
    <glyph glyph-name="uacute" unicode="&#xfa;" horiz-adv-x="536" 
d="M451 123q0 -28 1.5 -45t8.5 -26.5t22 -13t43 -3.5v-20l-154 -25v81q-36 -35 -75.5 -59t-91.5 -24q-57 0 -89 32.5t-32 89.5l1 257q0 28 -1.5 45t-8.5 26.5t-22 13t-43 3.5v20l154 10v-337q0 -23 4 -42t13.5 -33.5t26.5 -22.5t44 -8q31 0 64 16t56 36v273q0 28 -2 45
t-10 26.5t-25 13t-48 3.5v20l164 10v-362zM208 526h-21l73 164q22 14 47 16t42 -6z" />
    <glyph glyph-name="ucircumflex" unicode="&#xfb;" horiz-adv-x="536" 
d="M451 123q0 -28 1.5 -45t8.5 -26.5t22 -13t43 -3.5v-20l-154 -25v81q-36 -35 -75.5 -59t-91.5 -24q-57 0 -89 32.5t-32 89.5l1 257q0 28 -1.5 45t-8.5 26.5t-22 13t-43 3.5v20l154 10v-337q0 -23 4 -42t13.5 -33.5t26.5 -22.5t44 -8q31 0 64 16t56 36v273q0 28 -2 45
t-10 26.5t-25 13t-48 3.5v20l164 10v-362zM394 526l-127 104l-126 -104h-24l123 167h54l125 -167h-25z" />
    <glyph glyph-name="udieresis" unicode="&#xfc;" horiz-adv-x="536" 
d="M451 123q0 -28 1.5 -45t8.5 -26.5t22 -13t43 -3.5v-20l-154 -25v81q-36 -35 -75.5 -59t-91.5 -24q-57 0 -89 32.5t-32 89.5l1 257q0 28 -1.5 45t-8.5 26.5t-22 13t-43 3.5v20l154 10v-337q0 -23 4 -42t13.5 -33.5t26.5 -22.5t44 -8q31 0 64 16t56 36v273q0 28 -2 45
t-10 26.5t-25 13t-48 3.5v20l164 10v-362zM175 542q-17 11 -30 24.5t-25 30.5q25 32 55 54q30 -22 55 -54q-11 -17 -25 -30.5t-30 -24.5zM360 542q-17 11 -30 24.5t-25 30.5q25 32 55 54q30 -22 55 -54q-11 -17 -25 -30.5t-30 -24.5z" />
    <glyph glyph-name="yacute" unicode="&#xfd;" horiz-adv-x="512" 
d="M268 -5q-15 -38 -35.5 -80t-45.5 -77t-54 -58t-60 -23q-4 0 -13.5 4t-16 14.5t-5 29t20.5 48.5q15 -4 36 -4.5t44.5 13t49 47t51.5 97.5l-149 381l-12 31.5t-13.5 22.5t-21 14t-34.5 5v20h213v-20q-26 0 -39 -4.5t-17 -13t-1 -22t10 -31.5l101 -292l112 292q14 37 4.5 54
t-57.5 17v20h166v-20q-22 0 -34.5 -5.5t-20.5 -15.5t-13 -23l-11 -29zM196 526h-21l73 164q22 14 47 16t42 -6z" />
    <glyph glyph-name="thorn" unicode="&#xfe;" horiz-adv-x="530" 
d="M164 410q27 35 64 57.5t91 22.5q36 0 67 -16.5t54.5 -46.5t36.5 -73t13 -95q0 -77 -20 -128.5t-51 -82.5t-69 -44.5t-75 -13.5q-35 0 -62 7t-49 18v-141q0 -26 1 -43t9 -27t26.5 -13.5t53.5 -3.5v-20h-244v20q30 0 45.5 3.5t22 13.5t7 27t0.5 43v723q0 28 -1.5 44.5
t-8.5 25t-22 11t-43 2.5v20l157 10zM279 449q-30 0 -57.5 -20.5t-56.5 -55.5l-1 -260q0 -14 3.5 -30t14.5 -30t32 -23.5t56 -9.5q46 0 73 26.5t41 64t18.5 78.5t4.5 70q0 31 -7 65t-22.5 61.5t-40 45.5t-58.5 18z" />
    <glyph glyph-name="ydieresis" unicode="&#xff;" horiz-adv-x="512" 
d="M268 -5q-15 -38 -35.5 -80t-45.5 -77t-54 -58t-60 -23q-4 0 -13.5 4t-16 14.5t-5 29t20.5 48.5q15 -4 36 -4.5t44.5 13t49 47t51.5 97.5l-149 381l-12 31.5t-13.5 22.5t-21 14t-34.5 5v20h213v-20q-26 0 -39 -4.5t-17 -13t-1 -22t10 -31.5l101 -292l112 292q14 37 4.5 54
t-57.5 17v20h166v-20q-22 0 -34.5 -5.5t-20.5 -15.5t-13 -23l-11 -29zM163 542q-17 11 -30 24.5t-25 30.5q25 32 55 54q30 -22 55 -54q-11 -17 -25 -30.5t-30 -24.5zM348 542q-17 11 -30 24.5t-25 30.5q25 32 55 54q30 -22 55 -54q-11 -17 -25 -30.5t-30 -24.5z" />
    <glyph glyph-name="Amacron" unicode="&#x100;" horiz-adv-x="740" 
d="M491 204h-282l-35 -92q-16 -45 0 -68.5t78 -23.5v-20h-242v20q28 0 46 4.5t31 15t23 28t21 44.5l235 598h12l234 -598q10 -27 19.5 -44.5t22.5 -28t31 -15t45 -4.5v-20h-275v20q32 0 50.5 5t25.5 16t5 28.5t-11 42.5zM221 237h257l-127 343zM526 789h-312v52h312v-52z
" />
    <glyph glyph-name="amacron" unicode="&#x101;" horiz-adv-x="454" 
d="M444 10q-45 -20 -79 -20q-25 0 -43.5 13t-28.5 45q-42 -32 -77 -45t-65 -13q-47 0 -79 35t-32 95q0 33 27 51.5t66 27.5t82.5 11.5l75.5 4.5v159q0 40 -15 64t-54 24q-32 0 -51.5 -12t-30 -29t-12 -37t3.5 -35q-30 -19 -46.5 -21.5t-24 3t-8.5 14.5t-1 13q0 26 19.5 50
t49.5 42t65 29t66 11q41 0 64.5 -10t35.5 -25t15.5 -33t3.5 -34v-316q0 -9 2 -20t8.5 -19t19 -10.5t33.5 5.5zM121 111q2 -32 14 -57.5t42 -25.5q26 0 58.5 12t55.5 33v120q-40 -3 -71.5 -6t-53.5 -10.5t-33.5 -22.5t-11.5 -43zM383 569h-312v52h312v-52z" />
    <glyph glyph-name="Abreve" unicode="&#x102;" horiz-adv-x="740" 
d="M491 204h-282l-35 -92q-16 -45 0 -68.5t78 -23.5v-20h-242v20q28 0 46 4.5t31 15t23 28t21 44.5l235 598h12l234 -598q10 -27 19.5 -44.5t22.5 -28t31 -15t45 -4.5v-20h-275v20q32 0 50.5 5t25.5 16t5 28.5t-11 42.5zM221 237h257l-127 343zM229 905h24q8 -34 39 -60.5
t78 -26.5q46 0 77 26.5t39 60.5h24q0 -29 -11 -56.5t-30 -48.5t-44.5 -34t-54.5 -13q-30 0 -55.5 13t-44.5 34t-30 48.5t-11 56.5z" />
    <glyph glyph-name="abreve" unicode="&#x103;" horiz-adv-x="454" 
d="M444 10q-45 -20 -79 -20q-25 0 -43.5 13t-28.5 45q-42 -32 -77 -45t-65 -13q-47 0 -79 35t-32 95q0 33 27 51.5t66 27.5t82.5 11.5l75.5 4.5v159q0 40 -15 64t-54 24q-32 0 -51.5 -12t-30 -29t-12 -37t3.5 -35q-30 -19 -46.5 -21.5t-24 3t-8.5 14.5t-1 13q0 26 19.5 50
t49.5 42t65 29t66 11q41 0 64.5 -10t35.5 -25t15.5 -33t3.5 -34v-316q0 -9 2 -20t8.5 -19t19 -10.5t33.5 5.5zM121 111q2 -32 14 -57.5t42 -25.5q26 0 58.5 12t55.5 33v120q-40 -3 -71.5 -6t-53.5 -10.5t-33.5 -22.5t-11.5 -43zM86 685h24q8 -34 39 -60.5t78 -26.5
q46 0 77 26.5t39 60.5h24q0 -29 -11 -56.5t-30 -48.5t-44.5 -34t-54.5 -13q-30 0 -55.5 13t-44.5 34t-30 48.5t-11 56.5z" />
    <glyph glyph-name="Aogonek" unicode="&#x104;" horiz-adv-x="740" 
d="M676 0q-51 -47 -65.5 -85t-2.5 -60.5t44.5 -27t75.5 15.5v-30q-28 -23 -52 -32.5t-47 -9.5q-39 0 -64.5 24.5t-25.5 61.5q0 36 22.5 72.5t77.5 70.5h-184v20q32 0 50.5 5t25.5 16t5 28.5t-11 42.5l-34 92h-282l-35 -92q-16 -45 0 -68.5t78 -23.5v-20h-242v20q28 0 46 4.5
t31 15t23 28t21 44.5l235 598h12l234 -598q10 -27 19.5 -44.5t22.5 -28t31 -15t45 -4.5v-20h-54zM221 237h257l-127 343z" />
    <glyph glyph-name="aogonek" unicode="&#x105;" horiz-adv-x="454" 
d="M444 10q-33 -14 -63 -19q-47 -45 -58.5 -81t1 -57.5t45 -25.5t74.5 16v-30q-28 -23 -52 -32.5t-47 -9.5q-39 0 -64.5 24.5t-25.5 61.5q0 35 20 69.5t68 66.5q-35 9 -49 55q-42 -32 -77 -45t-65 -13q-47 0 -79 35t-32 95q0 33 27 51.5t66 27.5t82.5 11.5l75.5 4.5v159
q0 40 -15 64t-54 24q-32 0 -51.5 -12t-30 -29t-12 -37t3.5 -35q-30 -19 -46.5 -21.5t-24 3t-8.5 14.5t-1 13q0 26 19.5 50t49.5 42t65 29t66 11q41 0 64.5 -10t35.5 -25t15.5 -33t3.5 -34v-316q0 -9 2 -20t8.5 -19t19 -10.5t33.5 5.5zM121 111q2 -32 14 -57.5t42 -25.5
q26 0 58.5 12t55.5 33v120q-40 -3 -71.5 -6t-53.5 -10.5t-33.5 -22.5t-11.5 -43z" />
    <glyph glyph-name="Cacute" unicode="&#x106;" horiz-adv-x="672" 
d="M50 350q0 96 29 164t77.5 111.5t111 64t129.5 20.5q69 0 128.5 -21t109.5 -57l2 -173h-20q0 66 -21 108t-52.5 66t-69 33t-70.5 9q-59 0 -107.5 -23.5t-83 -66.5t-54 -102.5t-19.5 -132.5t19.5 -133t54 -102.5t83 -66t107.5 -23.5q33 0 70.5 9t69 33t52.5 66t21 108h20
l-2 -173q-50 -36 -109.5 -57t-128.5 -21q-67 0 -129.5 20t-111 63.5t-77.5 112t-29 164.5zM335 746h-21l73 164q22 14 47 16t42 -6z" />
    <glyph glyph-name="cacute" unicode="&#x107;" horiz-adv-x="456" 
d="M259 490q25 0 52.5 -4.5t50.5 -18t38.5 -37.5t15.5 -64q0 -24 -8 -33t-20 -9t-27 6.5t-28 15.5q15 54 -0.5 84.5t-73.5 30.5q-39 0 -66 -23t-43.5 -57t-23.5 -71.5t-7 -66.5q0 -73 25.5 -120t66 -67t91.5 -12.5t102 43.5l10 -18q-67 -60 -134 -73.5t-120 11.5t-86.5 85.5
t-33.5 147.5q0 60 19 106.5t50 78.5t70.5 48.5t79.5 16.5zM168 526h-21l73 164q22 14 47 16t42 -6z" />
    <glyph glyph-name="Ccircumflex" unicode="&#x108;" horiz-adv-x="672" 
d="M50 350q0 96 29 164t77.5 111.5t111 64t129.5 20.5q69 0 128.5 -21t109.5 -57l2 -173h-20q0 66 -21 108t-52.5 66t-69 33t-70.5 9q-59 0 -107.5 -23.5t-83 -66.5t-54 -102.5t-19.5 -132.5t19.5 -133t54 -102.5t83 -66t107.5 -23.5q33 0 70.5 9t69 33t52.5 66t21 108h20
l-2 -173q-50 -36 -109.5 -57t-128.5 -21q-67 0 -129.5 20t-111 63.5t-77.5 112t-29 164.5zM523 746l-127 104l-126 -104h-24l123 167h54l125 -167h-25z" />
    <glyph glyph-name="ccircumflex" unicode="&#x109;" horiz-adv-x="456" 
d="M259 490q25 0 52.5 -4.5t50.5 -18t38.5 -37.5t15.5 -64q0 -24 -8 -33t-20 -9t-27 6.5t-28 15.5q15 54 -0.5 84.5t-73.5 30.5q-39 0 -66 -23t-43.5 -57t-23.5 -71.5t-7 -66.5q0 -73 25.5 -120t66 -67t91.5 -12.5t102 43.5l10 -18q-67 -60 -134 -73.5t-120 11.5t-86.5 85.5
t-33.5 147.5q0 60 19 106.5t50 78.5t70.5 48.5t79.5 16.5zM354 526l-127 104l-126 -104h-24l123 167h54l125 -167h-25z" />
    <glyph glyph-name="Cdotaccent" unicode="&#x10a;" horiz-adv-x="672" 
d="M50 350q0 96 29 164t77.5 111.5t111 64t129.5 20.5q69 0 128.5 -21t109.5 -57l2 -173h-20q0 66 -21 108t-52.5 66t-69 33t-70.5 9q-59 0 -107.5 -23.5t-83 -66.5t-54 -102.5t-19.5 -132.5t19.5 -133t54 -102.5t83 -66t107.5 -23.5q33 0 70.5 9t69 33t52.5 66t21 108h20
l-2 -173q-50 -36 -109.5 -57t-128.5 -21q-67 0 -129.5 20t-111 63.5t-77.5 112t-29 164.5zM391 762q-17 11 -30 24.5t-25 30.5q25 32 55 54q30 -22 55 -54q-11 -17 -25 -30.5t-30 -24.5z" />
    <glyph glyph-name="cdotaccent" unicode="&#x10b;" horiz-adv-x="456" 
d="M259 490q25 0 52.5 -4.5t50.5 -18t38.5 -37.5t15.5 -64q0 -24 -8 -33t-20 -9t-27 6.5t-28 15.5q15 54 -0.5 84.5t-73.5 30.5q-39 0 -66 -23t-43.5 -57t-23.5 -71.5t-7 -66.5q0 -73 25.5 -120t66 -67t91.5 -12.5t102 43.5l10 -18q-67 -60 -134 -73.5t-120 11.5t-86.5 85.5
t-33.5 147.5q0 60 19 106.5t50 78.5t70.5 48.5t79.5 16.5zM228 542q-17 11 -30 24.5t-25 30.5q25 32 55 54q30 -22 55 -54q-11 -17 -25 -30.5t-30 -24.5z" />
    <glyph glyph-name="Ccaron" unicode="&#x10c;" horiz-adv-x="672" 
d="M50 350q0 96 29 164t77.5 111.5t111 64t129.5 20.5q69 0 128.5 -21t109.5 -57l2 -173h-20q0 66 -21 108t-52.5 66t-69 33t-70.5 9q-59 0 -107.5 -23.5t-83 -66.5t-54 -102.5t-19.5 -132.5t19.5 -133t54 -102.5t83 -66t107.5 -23.5q33 0 70.5 9t69 33t52.5 66t21 108h20
l-2 -173q-50 -36 -109.5 -57t-128.5 -21q-67 0 -129.5 20t-111 63.5t-77.5 112t-29 164.5zM539 913l-125 -167h-54l-123 167h24l126 -104l127 104h25z" />
    <glyph glyph-name="ccaron" unicode="&#x10d;" horiz-adv-x="456" 
d="M259 490q25 0 52.5 -4.5t50.5 -18t38.5 -37.5t15.5 -64q0 -24 -8 -33t-20 -9t-27 6.5t-28 15.5q15 54 -0.5 84.5t-73.5 30.5q-39 0 -66 -23t-43.5 -57t-23.5 -71.5t-7 -66.5q0 -73 25.5 -120t66 -67t91.5 -12.5t102 43.5l10 -18q-67 -60 -134 -73.5t-120 11.5t-86.5 85.5
t-33.5 147.5q0 60 19 106.5t50 78.5t70.5 48.5t79.5 16.5zM398 693l-125 -167h-54l-123 167h24l126 -104l127 104h25z" />
    <glyph glyph-name="Dcaron" unicode="&#x10e;" horiz-adv-x="786" 
d="M40 20q35 0 54.5 5t29.5 16t12 28.5t2 42.5v476q0 27 -3 45t-13 28.5t-29.5 14.5t-52.5 4v20h263q35 0 80.5 -1.5t94 -11.5t94.5 -31t82.5 -60t59 -99t22.5 -147t-25.5 -147t-65.5 -99t-89 -60t-96.5 -31t-88 -11.5t-62.5 -1.5h-269v20zM311 33q29 0 65 1.5t73.5 10.5
t72.5 28t62.5 54t44.5 89.5t17 133.5q0 78 -20.5 132t-53 89.5t-72.5 54.5t-78 28t-70 10.5t-49 1.5h-83v-548q0 -39 19 -62t72 -23zM544 913l-125 -167h-54l-123 167h24l126 -104l127 104h25z" />
    <glyph glyph-name="dcaron" unicode="&#x10f;" horiz-adv-x="530" 
d="M445 123q0 -28 1.5 -45t8.5 -26.5t22 -13t43 -3.5v-20l-154 -25v80q-27 -35 -64 -57.5t-91 -22.5q-36 0 -67 16.5t-54.5 46.5t-36.5 72.5t-13 95.5q0 76 20 128t51 83t69 44.5t75 13.5q34 0 61.5 -7.5t49.5 -18.5v133q0 28 -1.5 44.5t-8.5 25t-22 11t-43 2.5v20l154 10
v-587zM251 31q21 0 41.5 8t36.5 21.5t26 30t11 34.5v225q0 12 -1 30.5t-10.5 36.5t-31.5 30.5t-63 12.5q-46 0 -73 -26.5t-41.5 -64t-18.5 -78.5t-4 -70q0 -32 7 -65.5t22.5 -61t40 -45.5t58.5 -18zM497 501l-18 210h72l-18 -210h-36z" />
    <glyph glyph-name="Dcroat" unicode="&#x110;" horiz-adv-x="786" 
d="M40 366h98v222q0 27 -3 45t-13 28.5t-29.5 14.5t-52.5 4v20h263q35 0 80.5 -1.5t94 -11.5t94.5 -31t82.5 -60t59 -99t22.5 -147t-25.5 -147t-65.5 -99t-89 -60t-96.5 -31t-88 -11.5t-62.5 -1.5h-269v20q35 0 54.5 5t29.5 16t12 28.5t2 42.5v221h-98v33zM311 33
q29 0 65 1.5t73.5 10.5t72.5 28t62.5 54t44.5 89.5t17 133.5q0 78 -20.5 132t-53 89.5t-72.5 54.5t-78 28t-70 10.5t-49 1.5h-83v-300h120v-33h-120v-215q0 -39 19 -62t72 -23z" />
    <glyph glyph-name="dcroat" unicode="&#x111;" horiz-adv-x="530" 
d="M291 609h75q0 24 -2.5 38t-10 21.5t-22 9.5t-40.5 2v20l154 10v-101h60v-33h-60v-453q0 -28 1.5 -45t8.5 -26.5t22 -13t43 -3.5v-20l-154 -25v80q-27 -35 -64 -57.5t-91 -22.5q-36 0 -67 16.5t-54.5 46.5t-36.5 72.5t-13 95.5q0 76 20 128t51 83t69 44.5t75 13.5
q34 0 61.5 -7.5t49.5 -18.5v112h-75v33zM251 31q21 0 41.5 8t36.5 21.5t26 30t11 34.5v242q0 13 -3.5 29.5t-15 30.5t-32 23.5t-55.5 9.5q-46 0 -73 -26.5t-41.5 -64t-18.5 -78.5t-4 -70q0 -32 7 -65.5t22.5 -61t40 -45.5t58.5 -18z" />
    <glyph glyph-name="Emacron" unicode="&#x112;" horiz-adv-x="622" 
d="M40 20q33 0 52.5 4.5t29.5 15t13 28t3 44.5v476q0 25 -2 42.5t-11.5 28.5t-29 16t-55.5 5v20h502l5 -143h-20q-6 40 -14 62.5t-23 33t-40 12.5t-64 2h-166v-284h143q28 0 44.5 3t25.5 12t11.5 26.5t2.5 46.5h20v-212h-20q0 30 -2.5 48t-11.5 27.5t-25.5 12.5t-44.5 3
h-143v-232q0 -44 19 -64t72 -20h124q26 0 47 4t36.5 16.5t26.5 37.5t17 67h20l-10 -159h-532v20zM467 789h-312v52h312v-52z" />
    <glyph glyph-name="emacron" unicode="&#x113;" horiz-adv-x="457" 
d="M259 490q29 0 61.5 -10t57 -34t35 -63t-5.5 -97l-287 -16q-5 -81 18.5 -134t64.5 -76t94 -16.5t107 43.5l10 -18q-67 -60 -134 -73.5t-120 11.5t-86.5 85.5t-33.5 147.5q0 60 19 106.5t50 78.5t70.5 48.5t79.5 16.5zM259 461q-33 0 -58.5 -14t-42.5 -37t-26.5 -52
t-9.5 -59l202 11q9 30 11.5 57t-4 48t-24 33.5t-48.5 12.5zM384 569h-312v52h312v-52z" />
    <glyph glyph-name="Ebreve" unicode="&#x114;" horiz-adv-x="622" 
d="M40 20q33 0 52.5 4.5t29.5 15t13 28t3 44.5v476q0 25 -2 42.5t-11.5 28.5t-29 16t-55.5 5v20h502l5 -143h-20q-6 40 -14 62.5t-23 33t-40 12.5t-64 2h-166v-284h143q28 0 44.5 3t25.5 12t11.5 26.5t2.5 46.5h20v-212h-20q0 30 -2.5 48t-11.5 27.5t-25.5 12.5t-44.5 3
h-143v-232q0 -44 19 -64t72 -20h124q26 0 47 4t36.5 16.5t26.5 37.5t17 67h20l-10 -159h-532v20zM170 905h24q8 -34 39 -60.5t78 -26.5q46 0 77 26.5t39 60.5h24q0 -29 -11 -56.5t-30 -48.5t-44.5 -34t-54.5 -13q-30 0 -55.5 13t-44.5 34t-30 48.5t-11 56.5z" />
    <glyph glyph-name="ebreve" unicode="&#x115;" horiz-adv-x="457" 
d="M259 490q29 0 61.5 -10t57 -34t35 -63t-5.5 -97l-287 -16q-5 -81 18.5 -134t64.5 -76t94 -16.5t107 43.5l10 -18q-67 -60 -134 -73.5t-120 11.5t-86.5 85.5t-33.5 147.5q0 60 19 106.5t50 78.5t70.5 48.5t79.5 16.5zM259 461q-33 0 -58.5 -14t-42.5 -37t-26.5 -52
t-9.5 -59l202 11q9 30 11.5 57t-4 48t-24 33.5t-48.5 12.5zM88 685h24q8 -34 39 -60.5t78 -26.5q46 0 77 26.5t39 60.5h24q0 -29 -11 -56.5t-30 -48.5t-44.5 -34t-54.5 -13q-30 0 -55.5 13t-44.5 34t-30 48.5t-11 56.5z" />
    <glyph glyph-name="Edotaccent" unicode="&#x116;" horiz-adv-x="622" 
d="M40 20q33 0 52.5 4.5t29.5 15t13 28t3 44.5v476q0 25 -2 42.5t-11.5 28.5t-29 16t-55.5 5v20h502l5 -143h-20q-6 40 -14 62.5t-23 33t-40 12.5t-64 2h-166v-284h143q28 0 44.5 3t25.5 12t11.5 26.5t2.5 46.5h20v-212h-20q0 30 -2.5 48t-11.5 27.5t-25.5 12.5t-44.5 3
h-143v-232q0 -44 19 -64t72 -20h124q26 0 47 4t36.5 16.5t26.5 37.5t17 67h20l-10 -159h-532v20zM311 762q-17 11 -30 24.5t-25 30.5q25 32 55 54q30 -22 55 -54q-11 -17 -25 -30.5t-30 -24.5z" />
    <glyph glyph-name="edotaccent" unicode="&#x117;" horiz-adv-x="457" 
d="M259 490q29 0 61.5 -10t57 -34t35 -63t-5.5 -97l-287 -16q-5 -81 18.5 -134t64.5 -76t94 -16.5t107 43.5l10 -18q-67 -60 -134 -73.5t-120 11.5t-86.5 85.5t-33.5 147.5q0 60 19 106.5t50 78.5t70.5 48.5t79.5 16.5zM259 461q-33 0 -58.5 -14t-42.5 -37t-26.5 -52
t-9.5 -59l202 11q9 30 11.5 57t-4 48t-24 33.5t-48.5 12.5zM228 542q-17 11 -30 24.5t-25 30.5q25 32 55 54q30 -22 55 -54q-11 -17 -25 -30.5t-30 -24.5z" />
    <glyph glyph-name="Eogonek" unicode="&#x118;" horiz-adv-x="622" 
d="M522 0q-51 -47 -65.5 -85t-2.5 -60.5t44.5 -27t75.5 15.5v-30q-28 -23 -52 -32.5t-47 -9.5q-39 0 -64.5 24.5t-25.5 61.5q0 36 22.5 72.5t77.5 70.5h-445v20q33 0 52.5 4.5t29.5 15t13 28t3 44.5v476q0 25 -2 42.5t-11.5 28.5t-29 16t-55.5 5v20h502l5 -143h-20
q-6 40 -14 62.5t-23 33t-40 12.5t-64 2h-166v-284h143q28 0 44.5 3t25.5 12t11.5 26.5t2.5 46.5h20v-212h-20q0 30 -2.5 48t-11.5 27.5t-25.5 12.5t-44.5 3h-143v-232q0 -44 19 -64t72 -20h124q26 0 47 4t36.5 16.5t26.5 37.5t17 67h20l-10 -159h-50z" />
    <glyph glyph-name="eogonek" unicode="&#x119;" horiz-adv-x="457" 
d="M259 490q29 0 61.5 -10t57 -34t35 -63t-5.5 -97l-287 -16q-5 -81 18.5 -134t64.5 -76t94 -16.5t107 43.5l10 -18q-32 -29 -65 -46.5t-65 -25.5q-50 -46 -63 -83.5t-1 -59.5t45 -26.5t75 15.5v-30q-28 -23 -52 -32.5t-47 -9.5q-39 0 -64.5 24.5t-25.5 61.5q0 34 19 68
t66 66q-41 0 -77 17t-62.5 49t-41.5 78.5t-15 104.5q0 60 19 106.5t50 78.5t70.5 48.5t79.5 16.5zM259 461q-33 0 -58.5 -14t-42.5 -37t-26.5 -52t-9.5 -59l202 11q9 30 11.5 57t-4 48t-24 33.5t-48.5 12.5z" />
    <glyph glyph-name="Ecaron" unicode="&#x11a;" horiz-adv-x="622" 
d="M40 20q33 0 52.5 4.5t29.5 15t13 28t3 44.5v476q0 25 -2 42.5t-11.5 28.5t-29 16t-55.5 5v20h502l5 -143h-20q-6 40 -14 62.5t-23 33t-40 12.5t-64 2h-166v-284h143q28 0 44.5 3t25.5 12t11.5 26.5t2.5 46.5h20v-212h-20q0 30 -2.5 48t-11.5 27.5t-25.5 12.5t-44.5 3
h-143v-232q0 -44 19 -64t72 -20h124q26 0 47 4t36.5 16.5t26.5 37.5t17 67h20l-10 -159h-532v20zM462 913l-125 -167h-54l-123 167h24l126 -104l127 104h25z" />
    <glyph glyph-name="ecaron" unicode="&#x11b;" horiz-adv-x="457" 
d="M259 490q29 0 61.5 -10t57 -34t35 -63t-5.5 -97l-287 -16q-5 -81 18.5 -134t64.5 -76t94 -16.5t107 43.5l10 -18q-67 -60 -134 -73.5t-120 11.5t-86.5 85.5t-33.5 147.5q0 60 19 106.5t50 78.5t70.5 48.5t79.5 16.5zM259 461q-33 0 -58.5 -14t-42.5 -37t-26.5 -52
t-9.5 -59l202 11q9 30 11.5 57t-4 48t-24 33.5t-48.5 12.5zM379 693l-125 -167h-54l-123 167h24l126 -104l127 104h25z" />
    <glyph glyph-name="Gcircumflex" unicode="&#x11c;" horiz-adv-x="757" 
d="M659 89q-54 -46 -123.5 -72.5t-138.5 -26.5q-67 0 -129.5 20t-111 63.5t-77.5 112t-29 164.5t29 164t77.5 111.5t111 64t129.5 20.5q69 0 128.5 -21t109.5 -57l2 -173h-20q0 66 -21 108t-52.5 66t-69 33t-70.5 9q-59 0 -107.5 -23.5t-83 -66.5t-54 -102.5t-19.5 -132.5
t19.5 -133t54 -102.5t83 -66t107.5 -23.5q23 0 47 4t46.5 14t43 27t36.5 43v75q0 27 -4 44.5t-16.5 28t-35.5 15t-62 4.5v20h278v-20q-28 0 -43.5 -4.5t-23 -15t-9.5 -28t-2 -44.5v-99zM504 746l-127 104l-126 -104h-24l123 167h54l125 -167h-25z" />
    <glyph glyph-name="gcircumflex" unicode="&#x11d;" horiz-adv-x="492" 
d="M432 310q0 -37 -15 -70t-41.5 -57.5t-62 -38.5t-75.5 -14q-24 -1 -48 -4t-43 -8.5t-31 -12.5t-12 -16q0 -26 27 -36.5t68 -14t88.5 -6t88.5 -12.5t68 -33t27 -67q0 -40 -23.5 -70.5t-61 -51t-84.5 -31t-93 -10.5q-37 0 -71 7t-60.5 21t-42 35t-15.5 49q0 29 25 60.5
t67 60.5q-23 11 -37.5 30t-14.5 50q0 30 28 48t74 26q-53 20 -85.5 64.5t-32.5 101.5q0 37 15 70t41.5 57.5t61.5 38.5t76 14t76 -15q21 -2 37.5 4.5t28.5 18t18.5 25.5t8.5 28q23 3 37.5 2t23 -4.5t11.5 -8.5t3 -11q0 -21 -13 -35t-32 -23t-41 -13t-40 -5q35 -25 55.5 -62
t20.5 -81zM392 -80q0 21 -27 28.5t-66.5 10.5l-85 6.5t-81.5 16.5q-16 -22 -27 -49.5t-11 -55.5q0 -19 7 -36.5t23.5 -30.5t43 -20.5t66.5 -7.5q43 0 73 13.5t49 34t27.5 44.5t8.5 46zM127 310q0 -29 6 -56.5t19.5 -48.5t34.5 -33.5t51 -12.5t51 12.5t34.5 33.5t19.5 48.5
t6 56.5t-6.5 56.5t-20.5 48.5t-35 33.5t-49 12.5q-29 0 -49.5 -12.5t-34.5 -33.5t-20.5 -48.5t-6.5 -56.5zM372 532l-127 104l-126 -104h-24l123 167h54l125 -167h-25z" />
    <glyph glyph-name="Gbreve" unicode="&#x11e;" horiz-adv-x="757" 
d="M659 89q-54 -46 -123.5 -72.5t-138.5 -26.5q-67 0 -129.5 20t-111 63.5t-77.5 112t-29 164.5t29 164t77.5 111.5t111 64t129.5 20.5q69 0 128.5 -21t109.5 -57l2 -173h-20q0 66 -21 108t-52.5 66t-69 33t-70.5 9q-59 0 -107.5 -23.5t-83 -66.5t-54 -102.5t-19.5 -132.5
t19.5 -133t54 -102.5t83 -66t107.5 -23.5q23 0 47 4t46.5 14t43 27t36.5 43v75q0 27 -4 44.5t-16.5 28t-35.5 15t-62 4.5v20h278v-20q-28 0 -43.5 -4.5t-23 -15t-9.5 -28t-2 -44.5v-99zM238 905h24q8 -34 39 -60.5t78 -26.5q46 0 77 26.5t39 60.5h24q0 -29 -11 -56.5
t-30 -48.5t-44.5 -34t-54.5 -13q-30 0 -55.5 13t-44.5 34t-30 48.5t-11 56.5z" />
    <glyph glyph-name="gbreve" unicode="&#x11f;" horiz-adv-x="492" 
d="M432 310q0 -37 -15 -70t-41.5 -57.5t-62 -38.5t-75.5 -14q-24 -1 -48 -4t-43 -8.5t-31 -12.5t-12 -16q0 -26 27 -36.5t68 -14t88.5 -6t88.5 -12.5t68 -33t27 -67q0 -40 -23.5 -70.5t-61 -51t-84.5 -31t-93 -10.5q-37 0 -71 7t-60.5 21t-42 35t-15.5 49q0 29 25 60.5
t67 60.5q-23 11 -37.5 30t-14.5 50q0 30 28 48t74 26q-53 20 -85.5 64.5t-32.5 101.5q0 37 15 70t41.5 57.5t61.5 38.5t76 14t76 -15q21 -2 37.5 4.5t28.5 18t18.5 25.5t8.5 28q23 3 37.5 2t23 -4.5t11.5 -8.5t3 -11q0 -21 -13 -35t-32 -23t-41 -13t-40 -5q35 -25 55.5 -62
t20.5 -81zM392 -80q0 21 -27 28.5t-66.5 10.5l-85 6.5t-81.5 16.5q-16 -22 -27 -49.5t-11 -55.5q0 -19 7 -36.5t23.5 -30.5t43 -20.5t66.5 -7.5q43 0 73 13.5t49 34t27.5 44.5t8.5 46zM127 310q0 -29 6 -56.5t19.5 -48.5t34.5 -33.5t51 -12.5t51 12.5t34.5 33.5t19.5 48.5
t6 56.5t-6.5 56.5t-20.5 48.5t-35 33.5t-49 12.5q-29 0 -49.5 -12.5t-34.5 -33.5t-20.5 -48.5t-6.5 -56.5zM105 685h24q8 -34 39 -60.5t78 -26.5q46 0 77 26.5t39 60.5h24q0 -29 -11 -56.5t-30 -48.5t-44.5 -34t-54.5 -13q-30 0 -55.5 13t-44.5 34t-30 48.5t-11 56.5z" />
    <glyph glyph-name="Gdotaccent" unicode="&#x120;" horiz-adv-x="757" 
d="M659 89q-54 -46 -123.5 -72.5t-138.5 -26.5q-67 0 -129.5 20t-111 63.5t-77.5 112t-29 164.5t29 164t77.5 111.5t111 64t129.5 20.5q69 0 128.5 -21t109.5 -57l2 -173h-20q0 66 -21 108t-52.5 66t-69 33t-70.5 9q-59 0 -107.5 -23.5t-83 -66.5t-54 -102.5t-19.5 -132.5
t19.5 -133t54 -102.5t83 -66t107.5 -23.5q23 0 47 4t46.5 14t43 27t36.5 43v75q0 27 -4 44.5t-16.5 28t-35.5 15t-62 4.5v20h278v-20q-28 0 -43.5 -4.5t-23 -15t-9.5 -28t-2 -44.5v-99zM378 762q-17 11 -30 24.5t-25 30.5q25 32 55 54q30 -22 55 -54q-11 -17 -25 -30.5
t-30 -24.5z" />
    <glyph glyph-name="gdotaccent" unicode="&#x121;" horiz-adv-x="492" 
d="M432 310q0 -37 -15 -70t-41.5 -57.5t-62 -38.5t-75.5 -14q-24 -1 -48 -4t-43 -8.5t-31 -12.5t-12 -16q0 -26 27 -36.5t68 -14t88.5 -6t88.5 -12.5t68 -33t27 -67q0 -40 -23.5 -70.5t-61 -51t-84.5 -31t-93 -10.5q-37 0 -71 7t-60.5 21t-42 35t-15.5 49q0 29 25 60.5
t67 60.5q-23 11 -37.5 30t-14.5 50q0 30 28 48t74 26q-53 20 -85.5 64.5t-32.5 101.5q0 37 15 70t41.5 57.5t61.5 38.5t76 14t76 -15q21 -2 37.5 4.5t28.5 18t18.5 25.5t8.5 28q23 3 37.5 2t23 -4.5t11.5 -8.5t3 -11q0 -21 -13 -35t-32 -23t-41 -13t-40 -5q35 -25 55.5 -62
t20.5 -81zM392 -80q0 21 -27 28.5t-66.5 10.5l-85 6.5t-81.5 16.5q-16 -22 -27 -49.5t-11 -55.5q0 -19 7 -36.5t23.5 -30.5t43 -20.5t66.5 -7.5q43 0 73 13.5t49 34t27.5 44.5t8.5 46zM127 310q0 -29 6 -56.5t19.5 -48.5t34.5 -33.5t51 -12.5t51 12.5t34.5 33.5t19.5 48.5
t6 56.5t-6.5 56.5t-20.5 48.5t-35 33.5t-49 12.5q-29 0 -49.5 -12.5t-34.5 -33.5t-20.5 -48.5t-6.5 -56.5zM246 542q-17 11 -30 24.5t-25 30.5q25 32 55 54q30 -22 55 -54q-11 -17 -25 -30.5t-30 -24.5z" />
    <glyph glyph-name="Gcommaaccent" unicode="&#x122;" horiz-adv-x="757" 
d="M659 89q-54 -46 -123.5 -72.5t-138.5 -26.5q-67 0 -129.5 20t-111 63.5t-77.5 112t-29 164.5t29 164t77.5 111.5t111 64t129.5 20.5q69 0 128.5 -21t109.5 -57l2 -173h-20q0 66 -21 108t-52.5 66t-69 33t-70.5 9q-59 0 -107.5 -23.5t-83 -66.5t-54 -102.5t-19.5 -132.5
t19.5 -133t54 -102.5t83 -66t107.5 -23.5q23 0 47 4t46.5 14t43 27t36.5 43v75q0 27 -4 44.5t-16.5 28t-35.5 15t-62 4.5v20h278v-20q-28 0 -43.5 -4.5t-23 -15t-9.5 -28t-2 -44.5v-99zM324 -271q23 19 35.5 42t18.5 46q-18 14 -32.5 28.5t-28.5 32.5q14 17 29 31.5t32 28.5
q17 -14 32 -28.5t29 -31.5q0 -43 -22.5 -85t-76.5 -81z" />
    <glyph glyph-name="gcommaaccent" unicode="&#x123;" horiz-adv-x="492" 
d="M432 310q0 -37 -15 -70t-41.5 -57.5t-62 -38.5t-75.5 -14q-24 -1 -48 -4t-43 -8.5t-31 -12.5t-12 -16q0 -26 27 -36.5t68 -14t88.5 -6t88.5 -12.5t68 -33t27 -67q0 -40 -23.5 -70.5t-61 -51t-84.5 -31t-93 -10.5q-37 0 -71 7t-60.5 21t-42 35t-15.5 49q0 29 25 60.5
t67 60.5q-23 11 -37.5 30t-14.5 50q0 30 28 48t74 26q-53 20 -85.5 64.5t-32.5 101.5q0 37 15 70t41.5 57.5t61.5 38.5t76 14t76 -15q21 -2 37.5 4.5t28.5 18t18.5 25.5t8.5 28q23 3 37.5 2t23 -4.5t11.5 -8.5t3 -11q0 -21 -13 -35t-32 -23t-41 -13t-40 -5q35 -25 55.5 -62
t20.5 -81zM392 -80q0 21 -27 28.5t-66.5 10.5l-85 6.5t-81.5 16.5q-16 -22 -27 -49.5t-11 -55.5q0 -19 7 -36.5t23.5 -30.5t43 -20.5t66.5 -7.5q43 0 73 13.5t49 34t27.5 44.5t8.5 46zM127 310q0 -29 6 -56.5t19.5 -48.5t34.5 -33.5t51 -12.5t51 12.5t34.5 33.5t19.5 48.5
t6 56.5t-6.5 56.5t-20.5 48.5t-35 33.5t-49 12.5q-29 0 -49.5 -12.5t-34.5 -33.5t-20.5 -48.5t-6.5 -56.5zM300 754q-23 -19 -35.5 -42t-18.5 -46q18 -14 32.5 -28.5t28.5 -32.5q-14 -17 -29 -31.5t-32 -28.5q-17 14 -32 28.5t-29 31.5q0 43 22.5 85t76.5 81z" />
    <glyph glyph-name="Hcircumflex" unicode="&#x124;" horiz-adv-x="853" 
d="M535 0v20q33 0 52.5 4.5t29.5 15t13 28t3 44.5v234h-413v-234q0 -27 3 -44.5t13 -28t29.5 -15t52.5 -4.5v-20h-278v20q33 0 52.5 4.5t29.5 15t13 28t3 44.5v476q0 25 -2 42.5t-11.5 28.5t-29 16t-55.5 5v20h278v-20q-36 0 -55.5 -5t-29 -16t-11.5 -28.5t-2 -42.5v-209
h413v209q0 25 -2 42.5t-11.5 28.5t-29 16t-55.5 5v20h278v-20q-36 0 -55.5 -5t-29 -16t-11.5 -28.5t-2 -42.5v-476q0 -27 3 -44.5t13 -28t29.5 -15t52.5 -4.5v-20h-278zM552 746l-127 104l-126 -104h-24l123 167h54l125 -167h-25z" />
    <glyph glyph-name="hcircumflex" unicode="&#x125;" horiz-adv-x="575" 
d="M262 0h-232v20q28 0 44 3.5t24 13t10 26.5t2 45v489q0 28 -1.5 43.5t-8.5 23t-22 9.5t-43 2v20l154 15l-3 -328q17 25 41 45t50.5 34t54 21.5t50.5 7.5q43 0 73 -28.5t30 -92.5v-261q0 -28 2 -45t10.5 -26.5t24.5 -13t43 -3.5v-20h-231v20q25 0 39 3.5t21.5 13t9.5 26.5
t2 45v236q0 50 -20.5 74t-50.5 24q-32 0 -73.5 -25.5t-72.5 -76.5v-232q0 -28 2 -45t9.5 -26.5t22 -13t39.5 -3.5v-20zM274 709l-127 104l-126 -104h-24l123 167h54l125 -167h-25z" />
    <glyph glyph-name="Hbar" unicode="&#x126;" horiz-adv-x="853" 
d="M535 0v20q33 0 52.5 4.5t29.5 15t13 28t3 44.5v234h-413v-234q0 -27 3 -44.5t13 -28t29.5 -15t52.5 -4.5v-20h-278v20q33 0 52.5 4.5t29.5 15t13 28t3 44.5v391h-98v33h98v52q0 25 -2 42.5t-11.5 28.5t-29 16t-55.5 5v20h278v-20q-36 0 -55.5 -5t-29 -16t-11.5 -28.5
t-2 -42.5v-52h413v52q0 25 -2 42.5t-11.5 28.5t-29 16t-55.5 5v20h278v-20q-36 0 -55.5 -5t-29 -16t-11.5 -28.5t-2 -42.5v-52h98v-33h-98v-391q0 -27 3 -44.5t13 -28t29.5 -15t52.5 -4.5v-20h-278zM220 379h413v124h-413v-124z" />
    <glyph glyph-name="hbar" unicode="&#x127;" horiz-adv-x="575" 
d="M35 609h75q0 24 -2.5 38t-10 21.5t-22 9.5t-40.5 2v20l154 10l-1 -101h77v-33h-77l-2 -194q17 25 41 45t50.5 34t54 21.5t50.5 7.5q43 0 73 -28.5t30 -92.5v-261q0 -28 2 -45t10.5 -26.5t24.5 -13t43 -3.5v-20h-231v20q25 0 39 3.5t21.5 13t9.5 26.5t2 45v236
q0 50 -20.5 74t-50.5 24q-32 0 -73.5 -25.5t-72.5 -76.5v-232q0 -28 2 -45t9.5 -26.5t22 -13t39.5 -3.5v-20h-232v20q28 0 44 3.5t24 13t10 26.5t2 45v468h-75v33z" />
    <glyph glyph-name="Itilde" unicode="&#x128;" horiz-adv-x="358" 
d="M40 0v20q33 0 52.5 4.5t29.5 15t13 28t3 44.5v476q0 25 -2 42.5t-11.5 28.5t-29 16t-55.5 5v20h278v-20q-36 0 -55.5 -5t-29 -16t-11.5 -28.5t-2 -42.5v-476q0 -27 3 -44.5t13 -28t29.5 -15t52.5 -4.5v-20h-278zM18 788q4 7 12.5 20t21.5 26t29 23t34 10q21 0 40.5 -5
t38 -11t37.5 -11t38 -5q9 0 23.5 5t31.5 28l16 -11q-4 -7 -12.5 -20t-21.5 -26t-29 -23t-34 -10q-21 0 -40.5 5t-38 11t-37.5 11t-38 5q-9 0 -23.5 -5t-31.5 -28z" />
    <glyph glyph-name="itilde" unicode="&#x129;" horiz-adv-x="272" 
d="M262 0h-232v20q28 0 44 3.5t24 13t10 26.5t2 45v259q0 28 -1.5 45t-8.5 26.5t-22 13t-43 3.5v20l157 10l-3 -103v-274q0 -28 2 -45t9.5 -26.5t22 -13t39.5 -3.5v-20zM-25 568q4 7 12.5 20t21.5 26t29 23t34 10q21 0 40.5 -5t38 -11t37.5 -11t38 -5q9 0 23.5 5t31.5 28
l16 -11q-4 -7 -12.5 -20t-21.5 -26t-29 -23t-34 -10q-21 0 -40.5 5t-38 11t-37.5 11t-38 5q-9 0 -23.5 -5t-31.5 -28z" />
    <glyph glyph-name="Imacron" unicode="&#x12a;" horiz-adv-x="358" 
d="M40 0v20q33 0 52.5 4.5t29.5 15t13 28t3 44.5v476q0 25 -2 42.5t-11.5 28.5t-29 16t-55.5 5v20h278v-20q-36 0 -55.5 -5t-29 -16t-11.5 -28.5t-2 -42.5v-476q0 -27 3 -44.5t13 -28t29.5 -15t52.5 -4.5v-20h-278zM335 789h-312v52h312v-52z" />
    <glyph glyph-name="imacron" unicode="&#x12b;" horiz-adv-x="272" 
d="M262 0h-232v20q28 0 44 3.5t24 13t10 26.5t2 45v259q0 28 -1.5 45t-8.5 26.5t-22 13t-43 3.5v20l157 10l-3 -103v-274q0 -28 2 -45t9.5 -26.5t22 -13t39.5 -3.5v-20zM292 569h-312v52h312v-52z" />
    <glyph glyph-name="Ibreve" unicode="&#x12c;" horiz-adv-x="358" 
d="M40 0v20q33 0 52.5 4.5t29.5 15t13 28t3 44.5v476q0 25 -2 42.5t-11.5 28.5t-29 16t-55.5 5v20h278v-20q-36 0 -55.5 -5t-29 -16t-11.5 -28.5t-2 -42.5v-476q0 -27 3 -44.5t13 -28t29.5 -15t52.5 -4.5v-20h-278zM39 905h24q8 -34 39 -60.5t78 -26.5q46 0 77 26.5t39 60.5
h24q0 -29 -11 -56.5t-30 -48.5t-44.5 -34t-54.5 -13q-30 0 -55.5 13t-44.5 34t-30 48.5t-11 56.5z" />
    <glyph glyph-name="ibreve" unicode="&#x12d;" horiz-adv-x="272" 
d="M262 0h-232v20q28 0 44 3.5t24 13t10 26.5t2 45v259q0 28 -1.5 45t-8.5 26.5t-22 13t-43 3.5v20l157 10l-3 -103v-274q0 -28 2 -45t9.5 -26.5t22 -13t39.5 -3.5v-20zM-4 685h24q8 -34 39 -60.5t78 -26.5q46 0 77 26.5t39 60.5h24q0 -29 -11 -56.5t-30 -48.5t-44.5 -34
t-54.5 -13q-30 0 -55.5 13t-44.5 34t-30 48.5t-11 56.5z" />
    <glyph glyph-name="Iogonek" unicode="&#x12e;" horiz-adv-x="358" 
d="M267 0q-51 -47 -65.5 -85t-2.5 -60.5t44.5 -27t75.5 15.5v-30q-28 -23 -52 -32.5t-47 -9.5q-39 0 -64.5 24.5t-25.5 61.5q0 36 22.5 72.5t77.5 70.5h-190v20q33 0 52.5 4.5t29.5 15t13 28t3 44.5v476q0 25 -2 42.5t-11.5 28.5t-29 16t-55.5 5v20h278v-20q-36 0 -55.5 -5
t-29 -16t-11.5 -28.5t-2 -42.5v-476q0 -27 3 -44.5t13 -28t29.5 -15t52.5 -4.5v-20h-51z" />
    <glyph glyph-name="iogonek" unicode="&#x12f;" horiz-adv-x="272" 
d="M208 0q-51 -47 -65.5 -85t-2.5 -60.5t44.5 -27t75.5 15.5v-30q-28 -23 -52 -32.5t-47 -9.5q-39 0 -64.5 24.5t-25.5 61.5q0 36 22.5 72.5t77.5 70.5h-141v20q28 0 44 3.5t24 13t10 26.5t2 45v259q0 28 -1.5 45t-8.5 26.5t-22 13t-43 3.5v20l157 10l-3 -103v-274
q0 -28 2 -45t9.5 -26.5t22 -13t39.5 -3.5v-20h-54zM146 569q-20 14 -36 30t-30 36q29 39 66 65q37 -26 66 -65q-14 -20 -30.5 -36t-35.5 -30z" />
    <glyph glyph-name="Idotaccent" unicode="&#x130;" horiz-adv-x="358" 
d="M40 0v20q33 0 52.5 4.5t29.5 15t13 28t3 44.5v476q0 25 -2 42.5t-11.5 28.5t-29 16t-55.5 5v20h278v-20q-36 0 -55.5 -5t-29 -16t-11.5 -28.5t-2 -42.5v-476q0 -27 3 -44.5t13 -28t29.5 -15t52.5 -4.5v-20h-278zM179 762q-17 11 -30 24.5t-25 30.5q25 32 55 54
q30 -22 55 -54q-11 -17 -25 -30.5t-30 -24.5z" />
    <glyph glyph-name="dotlessi" unicode="&#x131;" horiz-adv-x="272" 
d="M262 0h-232v20q28 0 44 3.5t24 13t10 26.5t2 45v259q0 28 -1.5 45t-8.5 26.5t-22 13t-43 3.5v20l157 10l-3 -103v-274q0 -28 2 -45t9.5 -26.5t22 -13t39.5 -3.5v-20z" />
    <glyph glyph-name="Jcircumflex" unicode="&#x134;" horiz-adv-x="348" 
d="M220 31q0 -54 -15 -95.5t-39 -73t-53.5 -55.5t-58.5 -44l-11 14q18 13 35 32.5t30.5 48t21.5 66.5t8 89v575q0 25 -2 42.5t-11.5 28.5t-29 16t-55.5 5v20h278v-20q-36 0 -55.5 -5t-29 -16t-11.5 -28.5t-2 -42.5v-557zM300 746l-127 104l-126 -104h-24l123 167h54
l125 -167h-25z" />
    <glyph glyph-name="jcircumflex" unicode="&#x135;" horiz-adv-x="273" 
d="M190 31q0 -54 -15 -95.5t-38.5 -73t-52.5 -55.5t-58 -44l-11 14q18 13 35 32.5t30.5 48t22 66.5t8.5 89v354q0 28 -1.5 45t-8.5 26.5t-22 13t-43 3.5v20l157 10l-3 -103v-351zM269 526l-127 104l-126 -104h-24l123 167h54l125 -167h-25z" />
    <glyph glyph-name="Kcommaaccent" unicode="&#x136;" horiz-adv-x="719" 
d="M273 317h-53v-205q0 -27 3 -44.5t12 -28t26.5 -15t46.5 -4.5v-20h-268v20q33 0 52.5 4.5t29.5 15t13 28t3 44.5v476q0 25 -2 42.5t-11.5 28.5t-29 16t-55.5 5v20h268v-20q-32 0 -49.5 -5t-26 -16t-10.5 -28.5t-2 -42.5v-242h28l262 277q7 8 11.5 18t0 18.5t-19 14.5
t-44.5 6v20h222v-20q-23 0 -38.5 -3t-28.5 -10t-25 -18.5l-28 -27.5l-234 -243l277 -290q20 -21 35.5 -34.5t28.5 -21t25.5 -10t26.5 -2.5v-20h-160q-10 19 -29.5 44t-36.5 42zM305 -271q23 19 35.5 42t18.5 46q-18 14 -32.5 28.5t-28.5 32.5q14 17 29 31.5t32 28.5
q17 -14 32 -28.5t29 -31.5q0 -43 -22.5 -85t-76.5 -81z" />
    <glyph glyph-name="kcommaaccent" unicode="&#x137;" horiz-adv-x="558" 
d="M262 0h-232v20q28 0 44 3.5t24 13t10 26.5t2 45v489q0 28 -1.5 44.5t-8.5 25t-22 11t-43 2.5v20l154 10v-457h28l149 154q10 11 14.5 21t0 17t-20 11t-44.5 4v20h211v-20q-23 0 -39 -2.5t-29.5 -8t-25 -15t-24.5 -24.5l-127 -133l157 -194q16 -20 30 -32.5t26.5 -19.5
t25.5 -9t27 -2v-20q-40 1 -80 0.5t-75 -0.5q-12 28 -55 82l-114 145h-35v-119q0 -28 2 -45t9.5 -26.5t22 -13t39.5 -3.5v-20zM225 -271q23 19 35.5 42t18.5 46q-18 14 -32.5 28.5t-28.5 32.5q14 17 29 31.5t32 28.5q17 -14 32 -28.5t29 -31.5q0 -43 -22.5 -85t-76.5 -81z
" />
    <glyph glyph-name="Lacute" unicode="&#x139;" horiz-adv-x="602" 
d="M338 680q-39 0 -62 -4.5t-35.5 -15t-16.5 -28t-4 -44.5v-470q0 -44 19 -64t72 -20h124q26 0 47 4t36.5 16.5t26.5 37.5t17 67h20l-10 -159h-532v20q33 0 52.5 4.5t29.5 15t13 28t3 44.5v476q0 25 -2 42.5t-11.5 28.5t-29 16t-55.5 5v20h298v-20zM181 746h-21l73 164
q22 14 47 16t42 -6z" />
    <glyph glyph-name="lacute" unicode="&#x13a;" horiz-adv-x="272" 
d="M262 0h-232v20q28 0 44 3.5t24 13t10 26.5t2 45v489q0 28 -1.5 44.5t-8.5 25t-22 11t-43 2.5v20l154 10v-602q0 -28 2 -45t9.5 -26.5t22 -13t39.5 -3.5v-20zM112 741h-21l73 164q22 14 47 16t42 -6z" />
    <glyph glyph-name="Lcommaaccent" unicode="&#x13b;" horiz-adv-x="602" 
d="M338 680q-39 0 -62 -4.5t-35.5 -15t-16.5 -28t-4 -44.5v-470q0 -44 19 -64t72 -20h124q26 0 47 4t36.5 16.5t26.5 37.5t17 67h20l-10 -159h-532v20q33 0 52.5 4.5t29.5 15t13 28t3 44.5v476q0 25 -2 42.5t-11.5 28.5t-29 16t-55.5 5v20h298v-20zM247 -271q23 19 35.5 42
t18.5 46q-18 14 -32.5 28.5t-28.5 32.5q14 17 29 31.5t32 28.5q17 -14 32 -28.5t29 -31.5q0 -43 -22.5 -85t-76.5 -81z" />
    <glyph glyph-name="lcommaaccent" unicode="&#x13c;" horiz-adv-x="272" 
d="M262 0h-232v20q28 0 44 3.5t24 13t10 26.5t2 45v489q0 28 -1.5 44.5t-8.5 25t-22 11t-43 2.5v20l154 10v-602q0 -28 2 -45t9.5 -26.5t22 -13t39.5 -3.5v-20zM94 -271q23 19 35.5 42t18.5 46q-18 14 -32.5 28.5t-28.5 32.5q14 17 29 31.5t32 28.5q17 -14 32 -28.5
t29 -31.5q0 -43 -22.5 -85t-76.5 -81z" />
    <glyph glyph-name="Lcaron" unicode="&#x13d;" horiz-adv-x="602" 
d="M338 680q-39 0 -62 -4.5t-35.5 -15t-16.5 -28t-4 -44.5v-470q0 -44 19 -64t72 -20h124q26 0 47 4t36.5 16.5t26.5 37.5t17 67h20l-10 -159h-532v20q33 0 52.5 4.5t29.5 15t13 28t3 44.5v476q0 25 -2 42.5t-11.5 28.5t-29 16t-55.5 5v20h298v-20zM521 591q-34 24 -61 60
q14 18 29 32.5t32 27.5q33 -24 61 -60q0 -42 -22.5 -88.5t-76.5 -85.5l-16 17q23 19 35.5 46t18.5 51z" />
    <glyph glyph-name="lcaron" unicode="&#x13e;" horiz-adv-x="272" 
d="M262 0h-232v20q28 0 44 3.5t24 13t10 26.5t2 45v489q0 28 -1.5 44.5t-8.5 25t-22 11t-43 2.5v20l154 10v-602q0 -28 2 -45t9.5 -26.5t22 -13t39.5 -3.5v-20zM273 591q-34 24 -61 60q14 18 29 32.5t32 27.5q33 -24 61 -60q0 -42 -22.5 -88.5t-76.5 -85.5l-16 17
q23 19 35.5 46t18.5 51z" />
    <glyph glyph-name="Lslash" unicode="&#x141;" horiz-adv-x="602" 
d="M40 366h98v222q0 25 -2 42.5t-11.5 28.5t-29 16t-55.5 5v20h298v-20q-39 0 -62 -4.5t-35.5 -15t-16.5 -28t-4 -44.5v-222h138v-33h-138v-215q0 -44 19 -64t72 -20h124q26 0 47 4t36.5 16.5t26.5 37.5t17 67h20l-10 -159h-532v20q33 0 52.5 4.5t29.5 15t13 28t3 44.5v221
h-98v33z" />
    <glyph glyph-name="lslash" unicode="&#x142;" horiz-adv-x="272" 
d="M30 366h80v231q0 28 -1.5 44.5t-8.5 25t-22 11t-43 2.5v20l154 10v-344h73v-33h-73v-225q0 -28 2 -45t9.5 -26.5t22 -13t39.5 -3.5v-20h-232v20q28 0 44 3.5t24 13t10 26.5t2 45v225h-80v33z" />
    <glyph glyph-name="Nacute" unicode="&#x143;" horiz-adv-x="859" 
d="M697 588q0 28 -5 45.5t-16 28t-30.5 14.5t-47.5 4v20h231v-20q-53 0 -72.5 -20.5t-19.5 -71.5v-593h-17l-524 584v-467q0 -29 4 -47t16.5 -28t35.5 -13.5t60 -3.5v-20h-255v20q30 0 49.5 3.5t31 13.5t15.5 28t4 47v476q0 52 -25 72t-92 20v20h170l487 -551v439zM369 746
h-21l73 164q22 14 47 16t42 -6z" />
    <glyph glyph-name="nacute" unicode="&#x144;" horiz-adv-x="575" 
d="M262 0h-232v20q28 0 44 3.5t24 13t10 26.5t2 45v259q0 28 -1.5 45t-8.5 26.5t-22 13t-43 3.5v20l157 10l-3 -103q17 25 40.5 45t49.5 34t53 21.5t50 7.5q43 0 73 -28.5t30 -92.5v-261q0 -28 2 -45t10.5 -26.5t24.5 -13t43 -3.5v-20h-231v20q25 0 39 3.5t21.5 13t9.5 26.5
t2 45v236q0 50 -20.5 74t-50.5 24q-32 0 -73.5 -25.5t-72.5 -76.5v-232q0 -28 2 -45t9.5 -26.5t22 -13t39.5 -3.5v-20zM227 526h-21l73 164q22 14 47 16t42 -6z" />
    <glyph glyph-name="Ncommaaccent" unicode="&#x145;" horiz-adv-x="859" 
d="M697 588q0 28 -5 45.5t-16 28t-30.5 14.5t-47.5 4v20h231v-20q-53 0 -72.5 -20.5t-19.5 -71.5v-593h-17l-524 584v-467q0 -29 4 -47t16.5 -28t35.5 -13.5t60 -3.5v-20h-255v20q30 0 49.5 3.5t31 13.5t15.5 28t4 47v476q0 52 -25 72t-92 20v20h170l487 -551v439zM375 -271
q23 19 35.5 42t18.5 46q-18 14 -32.5 28.5t-28.5 32.5q14 17 29 31.5t32 28.5q17 -14 32 -28.5t29 -31.5q0 -43 -22.5 -85t-76.5 -81z" />
    <glyph glyph-name="ncommaaccent" unicode="&#x146;" horiz-adv-x="575" 
d="M262 0h-232v20q28 0 44 3.5t24 13t10 26.5t2 45v259q0 28 -1.5 45t-8.5 26.5t-22 13t-43 3.5v20l157 10l-3 -103q17 25 40.5 45t49.5 34t53 21.5t50 7.5q43 0 73 -28.5t30 -92.5v-261q0 -28 2 -45t10.5 -26.5t24.5 -13t43 -3.5v-20h-231v20q25 0 39 3.5t21.5 13t9.5 26.5
t2 45v236q0 50 -20.5 74t-50.5 24q-32 0 -73.5 -25.5t-72.5 -76.5v-232q0 -28 2 -45t9.5 -26.5t22 -13t39.5 -3.5v-20zM233 -271q23 19 35.5 42t18.5 46q-18 14 -32.5 28.5t-28.5 32.5q14 17 29 31.5t32 28.5q17 -14 32 -28.5t29 -31.5q0 -43 -22.5 -85t-76.5 -81z" />
    <glyph glyph-name="Ncaron" unicode="&#x147;" horiz-adv-x="859" 
d="M697 588q0 28 -5 45.5t-16 28t-30.5 14.5t-47.5 4v20h231v-20q-53 0 -72.5 -20.5t-19.5 -71.5v-593h-17l-524 584v-467q0 -29 4 -47t16.5 -28t35.5 -13.5t60 -3.5v-20h-255v20q30 0 49.5 3.5t31 13.5t15.5 28t4 47v476q0 52 -25 72t-92 20v20h170l487 -551v439zM580 913
l-125 -167h-54l-123 167h24l126 -104l127 104h25z" />
    <glyph glyph-name="ncaron" unicode="&#x148;" horiz-adv-x="575" 
d="M262 0h-232v20q28 0 44 3.5t24 13t10 26.5t2 45v259q0 28 -1.5 45t-8.5 26.5t-22 13t-43 3.5v20l157 10l-3 -103q17 25 40.5 45t49.5 34t53 21.5t50 7.5q43 0 73 -28.5t30 -92.5v-261q0 -28 2 -45t10.5 -26.5t24.5 -13t43 -3.5v-20h-231v20q25 0 39 3.5t21.5 13t9.5 26.5
t2 45v236q0 50 -20.5 74t-50.5 24q-32 0 -73.5 -25.5t-72.5 -76.5v-232q0 -28 2 -45t9.5 -26.5t22 -13t39.5 -3.5v-20zM438 693l-125 -167h-54l-123 167h24l126 -104l127 104h25z" />
    <glyph glyph-name="Eng" unicode="&#x14a;" horiz-adv-x="859" 
d="M697 588q0 28 -5 45.5t-16 28t-30.5 14.5t-47.5 4v20h231v-20q-53 0 -72.5 -20.5t-19.5 -71.5v-557q0 -54 -15 -95.5t-39 -73t-53.5 -55.5t-58.5 -44l-11 14q18 13 35 32.5t30.5 48t21.5 66.5t8 89v54l-459 512v-467q0 -29 4 -47t16.5 -28t35.5 -13.5t60 -3.5v-20h-255
v20q30 0 49.5 3.5t31 13.5t15.5 28t4 47v476q0 52 -25 72t-92 20v20h170l487 -551v439z" />
    <glyph glyph-name="eng" unicode="&#x14b;" horiz-adv-x="535" 
d="M485 31q0 -54 -15 -95.5t-38.5 -73t-52.5 -55.5t-58 -44l-11 14q18 13 35 32.5t30.5 48t22 66.5t8.5 89v331q0 50 -20.5 74t-50.5 24q-32 0 -73.5 -25.5t-72.5 -76.5v-232q0 -28 2 -45t9.5 -26.5t22 -13t39.5 -3.5v-20h-232v20q28 0 44 3.5t24 13t10 26.5t2 45v259
q0 28 -1.5 45t-8.5 26.5t-22 13t-43 3.5v20l157 10l-3 -103q17 25 40.5 45t49.5 34t53 21.5t50 7.5q43 0 73 -28.5t30 -92.5v-338z" />
    <glyph glyph-name="Omacron" unicode="&#x14c;" horiz-adv-x="803" 
d="M402 -10q-77 0 -141.5 28t-111 76.5t-73 114t-26.5 141.5t26.5 141.5t73 114t111 76.5t141.5 28q76 0 140.5 -28t111.5 -76.5t73 -114t26 -141.5t-26 -141.5t-73 -114t-111.5 -76.5t-140.5 -28zM402 25q54 0 102 25.5t83 70t55.5 103.5t20.5 126t-20.5 126t-55.5 103.5
t-83 70t-102 25.5t-102 -25.5t-83.5 -70t-56 -103.5t-20.5 -126t20.5 -126t56 -103.5t83.5 -70t102 -25.5zM557 789h-312v52h312v-52z" />
    <glyph glyph-name="omacron" unicode="&#x14d;" horiz-adv-x="507" 
d="M257 490q49 0 88 -19.5t66 -53.5t41.5 -79.5t14.5 -97.5t-15.5 -97.5t-44 -79.5t-69 -53.5t-89.5 -19.5t-88 19.5t-66 53.5t-41 79.5t-14 97.5t15.5 97.5t44 79.5t68.5 53.5t89 19.5zM253 19q37 0 62 17.5t40.5 47.5t22 70t6.5 86t-6.5 86t-22 70t-40.5 47.5t-62 17.5
t-62 -17.5t-40 -47.5t-21.5 -70t-6.5 -86t6.5 -86t21.5 -70t40 -47.5t62 -17.5zM409 569h-312v52h312v-52z" />
    <glyph glyph-name="Obreve" unicode="&#x14e;" horiz-adv-x="803" 
d="M402 -10q-77 0 -141.5 28t-111 76.5t-73 114t-26.5 141.5t26.5 141.5t73 114t111 76.5t141.5 28q76 0 140.5 -28t111.5 -76.5t73 -114t26 -141.5t-26 -141.5t-73 -114t-111.5 -76.5t-140.5 -28zM402 25q54 0 102 25.5t83 70t55.5 103.5t20.5 126t-20.5 126t-55.5 103.5
t-83 70t-102 25.5t-102 -25.5t-83.5 -70t-56 -103.5t-20.5 -126t20.5 -126t56 -103.5t83.5 -70t102 -25.5zM261 905h24q8 -34 39 -60.5t78 -26.5q46 0 77 26.5t39 60.5h24q0 -29 -11 -56.5t-30 -48.5t-44.5 -34t-54.5 -13q-30 0 -55.5 13t-44.5 34t-30 48.5t-11 56.5z" />
    <glyph glyph-name="obreve" unicode="&#x14f;" horiz-adv-x="507" 
d="M257 490q49 0 88 -19.5t66 -53.5t41.5 -79.5t14.5 -97.5t-15.5 -97.5t-44 -79.5t-69 -53.5t-89.5 -19.5t-88 19.5t-66 53.5t-41 79.5t-14 97.5t15.5 97.5t44 79.5t68.5 53.5t89 19.5zM253 19q37 0 62 17.5t40.5 47.5t22 70t6.5 86t-6.5 86t-22 70t-40.5 47.5t-62 17.5
t-62 -17.5t-40 -47.5t-21.5 -70t-6.5 -86t6.5 -86t21.5 -70t40 -47.5t62 -17.5zM113 685h24q8 -34 39 -60.5t78 -26.5q46 0 77 26.5t39 60.5h24q0 -29 -11 -56.5t-30 -48.5t-44.5 -34t-54.5 -13q-30 0 -55.5 13t-44.5 34t-30 48.5t-11 56.5z" />
    <glyph glyph-name="Ohungarumlaut" unicode="&#x150;" horiz-adv-x="803" 
d="M402 -10q-77 0 -141.5 28t-111 76.5t-73 114t-26.5 141.5t26.5 141.5t73 114t111 76.5t141.5 28q76 0 140.5 -28t111.5 -76.5t73 -114t26 -141.5t-26 -141.5t-73 -114t-111.5 -76.5t-140.5 -28zM402 25q54 0 102 25.5t83 70t55.5 103.5t20.5 126t-20.5 126t-55.5 103.5
t-83 70t-102 25.5t-102 -25.5t-83.5 -70t-56 -103.5t-20.5 -126t20.5 -126t56 -103.5t83.5 -70t102 -25.5zM277 746h-21l73 164q22 14 47 16t42 -6zM406 746h-21l73 164q22 14 47 16t42 -6z" />
    <glyph glyph-name="ohungarumlaut" unicode="&#x151;" horiz-adv-x="507" 
d="M257 490q49 0 88 -19.5t66 -53.5t41.5 -79.5t14.5 -97.5t-15.5 -97.5t-44 -79.5t-69 -53.5t-89.5 -19.5t-88 19.5t-66 53.5t-41 79.5t-14 97.5t15.5 97.5t44 79.5t68.5 53.5t89 19.5zM253 19q37 0 62 17.5t40.5 47.5t22 70t6.5 86t-6.5 86t-22 70t-40.5 47.5t-62 17.5
t-62 -17.5t-40 -47.5t-21.5 -70t-6.5 -86t6.5 -86t21.5 -70t40 -47.5t62 -17.5zM129 526h-21l73 164q22 14 47 16t42 -6zM258 526h-21l73 164q22 14 47 16t42 -6z" />
    <glyph glyph-name="OE" unicode="&#x152;" horiz-adv-x="1047" 
d="M563 700h404l5 -143h-20q-6 40 -14 62.5t-23 33t-40 12.5t-64 2h-166v-284h143q28 0 44.5 3t25.5 12t11.5 26.5t2.5 46.5h20v-212h-20q0 30 -2.5 48t-11.5 27.5t-25.5 12.5t-44.5 3h-143v-232q0 -44 19 -64t72 -20h124q26 0 47 4t36.5 16.5t26.5 37.5t17 67h20l-10 -159
h-334q-36 0 -56 9.5t-30 25.5q-38 -22 -82 -33.5t-93 -11.5q-77 0 -141.5 28t-111 76.5t-73 114t-26.5 141.5t26.5 141.5t73 114t111 76.5t141.5 28q45 0 85 -10t76 -28v28zM402 25q46 0 87 18t74 50v513q-33 32 -74.5 50.5t-86.5 18.5q-54 0 -102 -25.5t-83.5 -70
t-56 -103.5t-20.5 -126t20.5 -126t56 -103.5t83.5 -70t102 -25.5z" />
    <glyph glyph-name="oe" unicode="&#x153;" horiz-adv-x="805" 
d="M607 490q29 0 61.5 -10t57 -34t35 -63t-5.5 -97l-287 -16q-5 -81 18.5 -134t64.5 -76t94 -16.5t107 43.5l10 -18q-50 -44 -99.5 -62.5t-94.5 -15t-82.5 28.5t-61.5 67q-29 -45 -73.5 -71t-101.5 -26q-49 0 -88 19.5t-66 53.5t-41 79.5t-14 97.5t15.5 97.5t44 79.5
t68.5 53.5t89 19.5q58 0 102 -27.5t70 -72.5q32 49 79.5 74.5t98.5 25.5zM253 19q37 0 62 17.5t40.5 47.5t22 70t6.5 86t-6.5 86t-22 70t-40.5 47.5t-62 17.5t-62 -17.5t-40 -47.5t-21.5 -70t-6.5 -86t6.5 -86t21.5 -70t40 -47.5t62 -17.5zM607 461q-33 0 -58.5 -14
t-42.5 -37t-26.5 -52t-9.5 -59l202 11q9 30 11.5 57t-4 48t-24 33.5t-48.5 12.5z" />
    <glyph glyph-name="Racute" unicode="&#x154;" horiz-adv-x="696" 
d="M559 526q0 -33 -13.5 -64t-38 -58t-59 -49t-75.5 -37l207 -230q19 -22 34 -35t28.5 -20.5t26.5 -10t27 -2.5v-20h-160q-10 19 -27 43.5t-32 42.5l-183 204h-74v-178q0 -27 4 -44.5t16.5 -28t35.5 -15t62 -4.5v-20h-298v20q33 0 52.5 4.5t29.5 15t13 28t3 44.5v476
q0 25 -2 42.5t-11.5 28.5t-29 16t-55.5 5v20h234q78 0 132 -14t88 -37.5t49.5 -55t15.5 -67.5zM220 320h60q93 26 141.5 76.5t48.5 122.5q0 67 -52.5 107.5t-163.5 40.5h-34v-347zM288 746h-21l73 164q22 14 47 16t42 -6z" />
    <glyph glyph-name="racute" unicode="&#x155;" horiz-adv-x="409" 
d="M288 0h-258v20q28 0 44 3.5t24 13t10 26.5t2 45v259q0 28 -1.5 45t-8.5 26.5t-22 13t-43 3.5v20l157 10l-3 -118q16 28 36.5 52.5t43.5 41.5t47.5 25t47.5 2q4 -1 12 -7t11.5 -18t-3.5 -30t-33 -42q-13 8 -31 14t-39 2.5t-44.5 -20t-47.5 -53.5v-226q0 -28 3 -45
t13 -26.5t30 -13t53 -3.5v-20zM144 526h-21l73 164q22 14 47 16t42 -6z" />
    <glyph glyph-name="Rcommaaccent" unicode="&#x156;" horiz-adv-x="696" 
d="M559 526q0 -33 -13.5 -64t-38 -58t-59 -49t-75.5 -37l207 -230q19 -22 34 -35t28.5 -20.5t26.5 -10t27 -2.5v-20h-160q-10 19 -27 43.5t-32 42.5l-183 204h-74v-178q0 -27 4 -44.5t16.5 -28t35.5 -15t62 -4.5v-20h-298v20q33 0 52.5 4.5t29.5 15t13 28t3 44.5v476
q0 25 -2 42.5t-11.5 28.5t-29 16t-55.5 5v20h234q78 0 132 -14t88 -37.5t49.5 -55t15.5 -67.5zM220 320h60q93 26 141.5 76.5t48.5 122.5q0 67 -52.5 107.5t-163.5 40.5h-34v-347zM294 -271q23 19 35.5 42t18.5 46q-18 14 -32.5 28.5t-28.5 32.5q14 17 29 31.5t32 28.5
q17 -14 32 -28.5t29 -31.5q0 -43 -22.5 -85t-76.5 -81z" />
    <glyph glyph-name="rcommaaccent" unicode="&#x157;" horiz-adv-x="409" 
d="M288 0h-258v20q28 0 44 3.5t24 13t10 26.5t2 45v259q0 28 -1.5 45t-8.5 26.5t-22 13t-43 3.5v20l157 10l-3 -118q16 28 36.5 52.5t43.5 41.5t47.5 25t47.5 2q4 -1 12 -7t11.5 -18t-3.5 -30t-33 -42q-13 8 -31 14t-39 2.5t-44.5 -20t-47.5 -53.5v-226q0 -28 3 -45
t13 -26.5t30 -13t53 -3.5v-20zM150 -271q23 19 35.5 42t18.5 46q-18 14 -32.5 28.5t-28.5 32.5q14 17 29 31.5t32 28.5q17 -14 32 -28.5t29 -31.5q0 -43 -22.5 -85t-76.5 -81z" />
    <glyph glyph-name="Rcaron" unicode="&#x158;" horiz-adv-x="696" 
d="M559 526q0 -33 -13.5 -64t-38 -58t-59 -49t-75.5 -37l207 -230q19 -22 34 -35t28.5 -20.5t26.5 -10t27 -2.5v-20h-160q-10 19 -27 43.5t-32 42.5l-183 204h-74v-178q0 -27 4 -44.5t16.5 -28t35.5 -15t62 -4.5v-20h-298v20q33 0 52.5 4.5t29.5 15t13 28t3 44.5v476
q0 25 -2 42.5t-11.5 28.5t-29 16t-55.5 5v20h234q78 0 132 -14t88 -37.5t49.5 -55t15.5 -67.5zM220 320h60q93 26 141.5 76.5t48.5 122.5q0 67 -52.5 107.5t-163.5 40.5h-34v-347zM499 913l-125 -167h-54l-123 167h24l126 -104l127 104h25z" />
    <glyph glyph-name="rcaron" unicode="&#x159;" horiz-adv-x="409" 
d="M288 0h-258v20q28 0 44 3.5t24 13t10 26.5t2 45v259q0 28 -1.5 45t-8.5 26.5t-22 13t-43 3.5v20l157 10l-3 -118q16 28 36.5 52.5t43.5 41.5t47.5 25t47.5 2q4 -1 12 -7t11.5 -18t-3.5 -30t-33 -42q-13 8 -31 14t-39 2.5t-44.5 -20t-47.5 -53.5v-226q0 -28 3 -45
t13 -26.5t30 -13t53 -3.5v-20zM355 693l-125 -167h-54l-123 167h24l126 -104l127 104h25z" />
    <glyph glyph-name="Sacute" unicode="&#x15a;" horiz-adv-x="515" 
d="M425 556h-20q1 30 -9 53t-27.5 38.5t-40 23.5t-46.5 8q-26 0 -50.5 -8t-44.5 -24t-32 -40.5t-12 -57.5q0 -41 24 -70t59.5 -53t77.5 -46.5t77.5 -50t59.5 -63.5t24 -87q0 -43 -15 -78t-43 -60t-69 -39t-92 -14q-66 0 -111.5 16t-79.5 37l6 133h20q4 -48 19 -78.5
t37.5 -47.5t50 -23t57.5 -6q35 0 60.5 10.5t42 28.5t24.5 41t8 47q0 43 -24 74.5t-59.5 58t-77.5 50t-77.5 52t-59.5 64.5t-24 87q0 49 19.5 83t52 55t73.5 30.5t83 9.5q41 0 79 -8t68 -25zM197 746h-21l73 164q22 14 47 16t42 -6z" />
    <glyph glyph-name="sacute" unicode="&#x15b;" horiz-adv-x="396" 
d="M306 358q2 32 -6 52t-22 31.5t-32.5 15.5t-37.5 4q-16 0 -31.5 -5.5t-27.5 -15.5t-19.5 -24t-7.5 -32q0 -22 17.5 -41.5t43.5 -38l56 -38t56 -41t43.5 -47t17.5 -56.5q0 -37 -17 -62t-43.5 -40.5t-57.5 -22.5t-58 -7q-38 0 -77 11t-63 32l5 110h20q8 -69 40 -96.5
t86 -27.5q19 0 35 7t27.5 17.5t17.5 23.5t6 25q0 31 -17.5 55.5t-43.5 45.5t-56 40t-56 39.5t-43.5 43.5t-17.5 52q0 32 15 55t39 38t54 22t60 7q34 0 67 -9t54 -23l-6 -100h-20zM138 526h-21l73 164q22 14 47 16t42 -6z" />
    <glyph glyph-name="Scircumflex" unicode="&#x15c;" horiz-adv-x="515" 
d="M425 556h-20q1 30 -9 53t-27.5 38.5t-40 23.5t-46.5 8q-26 0 -50.5 -8t-44.5 -24t-32 -40.5t-12 -57.5q0 -41 24 -70t59.5 -53t77.5 -46.5t77.5 -50t59.5 -63.5t24 -87q0 -43 -15 -78t-43 -60t-69 -39t-92 -14q-66 0 -111.5 16t-79.5 37l6 133h20q4 -48 19 -78.5
t37.5 -47.5t50 -23t57.5 -6q35 0 60.5 10.5t42 28.5t24.5 41t8 47q0 43 -24 74.5t-59.5 58t-77.5 50t-77.5 52t-59.5 64.5t-24 87q0 49 19.5 83t52 55t73.5 30.5t83 9.5q41 0 79 -8t68 -25zM383 746l-127 104l-126 -104h-24l123 167h54l125 -167h-25z" />
    <glyph glyph-name="scircumflex" unicode="&#x15d;" horiz-adv-x="396" 
d="M306 358q2 32 -6 52t-22 31.5t-32.5 15.5t-37.5 4q-16 0 -31.5 -5.5t-27.5 -15.5t-19.5 -24t-7.5 -32q0 -22 17.5 -41.5t43.5 -38l56 -38t56 -41t43.5 -47t17.5 -56.5q0 -37 -17 -62t-43.5 -40.5t-57.5 -22.5t-58 -7q-38 0 -77 11t-63 32l5 110h20q8 -69 40 -96.5
t86 -27.5q19 0 35 7t27.5 17.5t17.5 23.5t6 25q0 31 -17.5 55.5t-43.5 45.5t-56 40t-56 39.5t-43.5 43.5t-17.5 52q0 32 15 55t39 38t54 22t60 7q34 0 67 -9t54 -23l-6 -100h-20zM324 526l-127 104l-126 -104h-24l123 167h54l125 -167h-25z" />
    <glyph glyph-name="Scedilla" unicode="&#x15e;" horiz-adv-x="515" 
d="M425 556h-20q1 30 -9 53t-27.5 38.5t-40 23.5t-46.5 8q-26 0 -50.5 -8t-44.5 -24t-32 -40.5t-12 -57.5q0 -41 24 -70t59.5 -53t77.5 -46.5t77.5 -50t59.5 -63.5t24 -87q0 -84 -55 -135.5t-153 -55.5v-22q0 -16 16 -21.5t36 -11.5t36.5 -17.5t16.5 -38.5q0 -20 -16 -36.5
t-40 -28t-53 -17.5t-56 -4l-4 24q14 0 32.5 1.5t35 7t27.5 15t11 26.5t-5.5 25.5t-13.5 13t-17 7.5t-17 7t-12.5 12t-3.5 24l2 34q-60 2 -102.5 17.5t-74.5 35.5l6 133h20q4 -48 19 -78.5t37.5 -47.5t50 -23t57.5 -6q35 0 60.5 10.5t42 28.5t24.5 41t8 47q0 43 -24 74.5
t-59.5 58t-77.5 50t-77.5 52t-59.5 64.5t-24 87q0 49 19.5 83t52 55t73.5 30.5t83 9.5q41 0 79 -8t68 -25z" />
    <glyph glyph-name="scedilla" unicode="&#x15f;" horiz-adv-x="396" 
d="M306 358q2 32 -6 52t-22 31.5t-32.5 15.5t-37.5 4q-16 0 -31.5 -5.5t-27.5 -15.5t-19.5 -24t-7.5 -32q0 -22 17.5 -41.5t43.5 -38l56 -38t56 -41t43.5 -47t17.5 -56.5q0 -36 -16.5 -60.5t-41.5 -40.5t-55 -23t-57 -8v-24q0 -16 16 -21.5t36 -11.5t36.5 -17.5t16.5 -38.5
q0 -20 -16 -36.5t-40 -28t-53 -17.5t-56 -4l-4 24q14 0 32.5 1.5t35 7t27.5 15t11 26.5t-5.5 25.5t-13.5 13t-17 7.5t-17 7t-12.5 12t-3.5 24l2 37q-35 2 -67.5 12.5t-53.5 29.5l5 110h20q8 -69 40 -96.5t86 -27.5q19 0 35 7t27.5 17.5t17.5 23.5t6 25q0 31 -17.5 55.5
t-43.5 45.5t-56 40t-56 39.5t-43.5 43.5t-17.5 52q0 32 15 55t39 38t54 22t60 7q34 0 67 -9t54 -23l-6 -100h-20z" />
    <glyph glyph-name="Scaron" unicode="&#x160;" horiz-adv-x="515" 
d="M425 556h-20q1 30 -9 53t-27.5 38.5t-40 23.5t-46.5 8q-26 0 -50.5 -8t-44.5 -24t-32 -40.5t-12 -57.5q0 -41 24 -70t59.5 -53t77.5 -46.5t77.5 -50t59.5 -63.5t24 -87q0 -43 -15 -78t-43 -60t-69 -39t-92 -14q-66 0 -111.5 16t-79.5 37l6 133h20q4 -48 19 -78.5
t37.5 -47.5t50 -23t57.5 -6q35 0 60.5 10.5t42 28.5t24.5 41t8 47q0 43 -24 74.5t-59.5 58t-77.5 50t-77.5 52t-59.5 64.5t-24 87q0 49 19.5 83t52 55t73.5 30.5t83 9.5q41 0 79 -8t68 -25zM408 913l-125 -167h-54l-123 167h24l126 -104l127 104h25z" />
    <glyph glyph-name="scaron" unicode="&#x161;" horiz-adv-x="396" 
d="M306 358q2 32 -6 52t-22 31.5t-32.5 15.5t-37.5 4q-16 0 -31.5 -5.5t-27.5 -15.5t-19.5 -24t-7.5 -32q0 -22 17.5 -41.5t43.5 -38l56 -38t56 -41t43.5 -47t17.5 -56.5q0 -37 -17 -62t-43.5 -40.5t-57.5 -22.5t-58 -7q-38 0 -77 11t-63 32l5 110h20q8 -69 40 -96.5
t86 -27.5q19 0 35 7t27.5 17.5t17.5 23.5t6 25q0 31 -17.5 55.5t-43.5 45.5t-56 40t-56 39.5t-43.5 43.5t-17.5 52q0 32 15 55t39 38t54 22t60 7q34 0 67 -9t54 -23l-6 -100h-20zM349 693l-125 -167h-54l-123 167h24l126 -104l127 104h25z" />
    <glyph glyph-name="Tcommaaccent" unicode="&#x162;" horiz-adv-x="676" 
d="M651 700l5 -143h-20q-6 40 -14 62.5t-23 33t-40 12.5t-64 2h-116v-555q0 -27 4 -44.5t16.5 -28t35.5 -15t62 -4.5v-20h-318v20q39 0 62 4.5t35.5 15t16.5 28t4 44.5v555h-116q-39 0 -64 -2t-40 -12.5t-23 -33t-14 -62.5h-20l5 143h626zM284 -271q23 19 35.5 42t18.5 46
q-18 14 -32.5 28.5t-28.5 32.5q14 17 29 31.5t32 28.5q17 -14 32 -28.5t29 -31.5q0 -43 -22.5 -85t-76.5 -81z" />
    <glyph glyph-name="tcommaaccent" unicode="&#x163;" horiz-adv-x="331" 
d="M169 480h129v-33h-129v-294q0 -47 10 -75.5t29.5 -40.5t47.5 -9t65 18l10 -18q-58 -29 -98 -35t-67 2.5t-42 27.5t-22.5 40.5t-9.5 40.5t-2 28v315h-60v28q30 0 50.5 7t35 22t24.5 38t19 55h10v-117zM111 -271q23 19 35.5 42t18.5 46q-18 14 -32.5 28.5t-28.5 32.5
q14 17 29 31.5t32 28.5q17 -14 32 -28.5t29 -31.5q0 -43 -22.5 -85t-76.5 -81z" />
    <glyph glyph-name="Tcaron" unicode="&#x164;" horiz-adv-x="676" 
d="M651 700l5 -143h-20q-6 40 -14 62.5t-23 33t-40 12.5t-64 2h-116v-555q0 -27 4 -44.5t16.5 -28t35.5 -15t62 -4.5v-20h-318v20q39 0 62 4.5t35.5 15t16.5 28t4 44.5v555h-116q-39 0 -64 -2t-40 -12.5t-23 -33t-14 -62.5h-20l5 143h626zM489 913l-125 -167h-54l-123 167
h24l126 -104l127 104h25z" />
    <glyph glyph-name="tcaron" unicode="&#x165;" horiz-adv-x="331" 
d="M169 480h129v-33h-129v-294q0 -47 10 -75.5t29.5 -40.5t47.5 -9t65 18l10 -18q-58 -29 -98 -35t-67 2.5t-42 27.5t-22.5 40.5t-9.5 40.5t-2 28v315h-60v28q30 0 50.5 7t35 22t24.5 38t19 55h10v-117zM262 500l-18 210h72l-18 -210h-36z" />
    <glyph glyph-name="Tbar" unicode="&#x166;" horiz-adv-x="696" 
d="M189 366h118v301h-116q-39 0 -64 -2t-40 -12.5t-23 -33t-14 -62.5h-20l5 143h626l5 -143h-20q-6 40 -14 62.5t-23 33t-40 12.5t-64 2h-116v-301h118v-33h-118v-221q0 -27 4 -44.5t16.5 -28t35.5 -15t62 -4.5v-20h-318v20q39 0 62 4.5t35.5 15t16.5 28t4 44.5v221h-118v33
z" />
    <glyph glyph-name="tbar" unicode="&#x167;" horiz-adv-x="351" 
d="M30 300h60v147h-60v28q30 0 50.5 7t35 22t24.5 38t19 55h10v-117h129v-33h-129v-147h68v-33h-68v-114q0 -47 10 -75.5t29.5 -40.5t47.5 -9t65 18l10 -18q-58 -29 -98 -35t-67 2.5t-42 27.5t-22.5 40.5t-9.5 40.5t-2 28v135h-60v33z" />
    <glyph glyph-name="Utilde" unicode="&#x168;" horiz-adv-x="762" 
d="M653 253q0 -54 -11.5 -102t-41 -83.5t-81 -56.5t-132.5 -21q-75 0 -125.5 21.5t-81 59t-44 87t-13.5 105.5v325q0 24 -2.5 41.5t-13 29t-31 16.5t-56.5 5v20h279v-20q-35 0 -54 -5t-28 -16.5t-10.5 -29t-1.5 -41.5v-291q0 -74 14 -125t40.5 -83t64.5 -46.5t85 -14.5
q45 0 82.5 12t64.5 38.5t42 68.5t15 103v338q0 24 -3.5 41.5t-15.5 29t-33.5 16.5t-57.5 5v20h239v-20q-29 0 -46.5 -5t-27 -16t-12.5 -28.5t-3 -42.5v-335zM247 788q4 7 12.5 20t21.5 26t29 23t34 10q21 0 40.5 -5t38 -11t37.5 -11t38 -5q9 0 23.5 5t31.5 28l16 -11
q-4 -7 -12.5 -20t-21.5 -26t-29 -23t-34 -10q-21 0 -40.5 5t-38 11t-37.5 11t-38 5q-9 0 -23.5 -5t-31.5 -28z" />
    <glyph glyph-name="utilde" unicode="&#x169;" horiz-adv-x="536" 
d="M451 123q0 -28 1.5 -45t8.5 -26.5t22 -13t43 -3.5v-20l-154 -25v81q-36 -35 -75.5 -59t-91.5 -24q-57 0 -89 32.5t-32 89.5l1 257q0 28 -1.5 45t-8.5 26.5t-22 13t-43 3.5v20l154 10v-337q0 -23 4 -42t13.5 -33.5t26.5 -22.5t44 -8q31 0 64 16t56 36v273q0 28 -2 45
t-10 26.5t-25 13t-48 3.5v20l164 10v-362zM107 568q4 7 12.5 20t21.5 26t29 23t34 10q21 0 40.5 -5t38 -11t37.5 -11t38 -5q9 0 23.5 5t31.5 28l16 -11q-4 -7 -12.5 -20t-21.5 -26t-29 -23t-34 -10q-21 0 -40.5 5t-38 11t-37.5 11t-38 5q-9 0 -23.5 -5t-31.5 -28z" />
    <glyph glyph-name="Umacron" unicode="&#x16a;" horiz-adv-x="762" 
d="M653 253q0 -54 -11.5 -102t-41 -83.5t-81 -56.5t-132.5 -21q-75 0 -125.5 21.5t-81 59t-44 87t-13.5 105.5v325q0 24 -2.5 41.5t-13 29t-31 16.5t-56.5 5v20h279v-20q-35 0 -54 -5t-28 -16.5t-10.5 -29t-1.5 -41.5v-291q0 -74 14 -125t40.5 -83t64.5 -46.5t85 -14.5
q45 0 82.5 12t64.5 38.5t42 68.5t15 103v338q0 24 -3.5 41.5t-15.5 29t-33.5 16.5t-57.5 5v20h239v-20q-29 0 -46.5 -5t-27 -16t-12.5 -28.5t-3 -42.5v-335zM560 789h-312v52h312v-52z" />
    <glyph glyph-name="umacron" unicode="&#x16b;" horiz-adv-x="536" 
d="M451 123q0 -28 1.5 -45t8.5 -26.5t22 -13t43 -3.5v-20l-154 -25v81q-36 -35 -75.5 -59t-91.5 -24q-57 0 -89 32.5t-32 89.5l1 257q0 28 -1.5 45t-8.5 26.5t-22 13t-43 3.5v20l154 10v-337q0 -23 4 -42t13.5 -33.5t26.5 -22.5t44 -8q31 0 64 16t56 36v273q0 28 -2 45
t-10 26.5t-25 13t-48 3.5v20l164 10v-362zM424 569h-312v52h312v-52z" />
    <glyph glyph-name="Ubreve" unicode="&#x16c;" horiz-adv-x="762" 
d="M653 253q0 -54 -11.5 -102t-41 -83.5t-81 -56.5t-132.5 -21q-75 0 -125.5 21.5t-81 59t-44 87t-13.5 105.5v325q0 24 -2.5 41.5t-13 29t-31 16.5t-56.5 5v20h279v-20q-35 0 -54 -5t-28 -16.5t-10.5 -29t-1.5 -41.5v-291q0 -74 14 -125t40.5 -83t64.5 -46.5t85 -14.5
q45 0 82.5 12t64.5 38.5t42 68.5t15 103v338q0 24 -3.5 41.5t-15.5 29t-33.5 16.5t-57.5 5v20h239v-20q-29 0 -46.5 -5t-27 -16t-12.5 -28.5t-3 -42.5v-335zM261 905h24q8 -34 39 -60.5t78 -26.5q46 0 77 26.5t39 60.5h24q0 -29 -11 -56.5t-30 -48.5t-44.5 -34t-54.5 -13
q-30 0 -55.5 13t-44.5 34t-30 48.5t-11 56.5z" />
    <glyph glyph-name="ubreve" unicode="&#x16d;" horiz-adv-x="536" 
d="M451 123q0 -28 1.5 -45t8.5 -26.5t22 -13t43 -3.5v-20l-154 -25v81q-36 -35 -75.5 -59t-91.5 -24q-57 0 -89 32.5t-32 89.5l1 257q0 28 -1.5 45t-8.5 26.5t-22 13t-43 3.5v20l154 10v-337q0 -23 4 -42t13.5 -33.5t26.5 -22.5t44 -8q31 0 64 16t56 36v273q0 28 -2 45
t-10 26.5t-25 13t-48 3.5v20l164 10v-362zM127 685h24q8 -34 39 -60.5t78 -26.5q46 0 77 26.5t39 60.5h24q0 -29 -11 -56.5t-30 -48.5t-44.5 -34t-54.5 -13q-30 0 -55.5 13t-44.5 34t-30 48.5t-11 56.5z" />
    <glyph glyph-name="Uring" unicode="&#x16e;" horiz-adv-x="762" 
d="M653 253q0 -54 -11.5 -102t-41 -83.5t-81 -56.5t-132.5 -21q-75 0 -125.5 21.5t-81 59t-44 87t-13.5 105.5v325q0 24 -2.5 41.5t-13 29t-31 16.5t-56.5 5v20h279v-20q-35 0 -54 -5t-28 -16.5t-10.5 -29t-1.5 -41.5v-291q0 -74 14 -125t40.5 -83t64.5 -46.5t85 -14.5
q45 0 82.5 12t64.5 38.5t42 68.5t15 103v338q0 24 -3.5 41.5t-15.5 29t-33.5 16.5t-57.5 5v20h239v-20q-29 0 -46.5 -5t-27 -16t-12.5 -28.5t-3 -42.5v-335zM299 839q0 21 8 39.5t21.5 32t32 21.5t39.5 8t39.5 -8t32 -21.5t21.5 -32t8 -39.5t-8 -39.5t-21.5 -32t-32 -21.5
t-39.5 -8t-39.5 8t-32 21.5t-21.5 32t-8 39.5zM339 839q0 -26 17.5 -43.5t43.5 -17.5q25 0 43 17.5t18 43.5q0 25 -18 43t-43 18q-26 0 -43.5 -18t-17.5 -43z" />
    <glyph glyph-name="uring" unicode="&#x16f;" horiz-adv-x="536" 
d="M451 123q0 -28 1.5 -45t8.5 -26.5t22 -13t43 -3.5v-20l-154 -25v81q-36 -35 -75.5 -59t-91.5 -24q-57 0 -89 32.5t-32 89.5l1 257q0 28 -1.5 45t-8.5 26.5t-22 13t-43 3.5v20l154 10v-337q0 -23 4 -42t13.5 -33.5t26.5 -22.5t44 -8q31 0 64 16t56 36v273q0 28 -2 45
t-10 26.5t-25 13t-48 3.5v20l164 10v-362zM167 623q0 21 8 39.5t21.5 32t32 21.5t39.5 8t39.5 -8t32 -21.5t21.5 -32t8 -39.5t-8 -39.5t-21.5 -32t-32 -21.5t-39.5 -8t-39.5 8t-32 21.5t-21.5 32t-8 39.5zM207 623q0 -26 17.5 -43.5t43.5 -17.5q25 0 43 17.5t18 43.5
q0 25 -18 43t-43 18q-26 0 -43.5 -18t-17.5 -43z" />
    <glyph glyph-name="Uhungarumlaut" unicode="&#x170;" horiz-adv-x="762" 
d="M653 253q0 -54 -11.5 -102t-41 -83.5t-81 -56.5t-132.5 -21q-75 0 -125.5 21.5t-81 59t-44 87t-13.5 105.5v325q0 24 -2.5 41.5t-13 29t-31 16.5t-56.5 5v20h279v-20q-35 0 -54 -5t-28 -16.5t-10.5 -29t-1.5 -41.5v-291q0 -74 14 -125t40.5 -83t64.5 -46.5t85 -14.5
q45 0 82.5 12t64.5 38.5t42 68.5t15 103v338q0 24 -3.5 41.5t-15.5 29t-33.5 16.5t-57.5 5v20h239v-20q-29 0 -46.5 -5t-27 -16t-12.5 -28.5t-3 -42.5v-335zM302 746h-21l73 164q22 14 47 16t42 -6zM431 746h-21l73 164q22 14 47 16t42 -6z" />
    <glyph glyph-name="uhungarumlaut" unicode="&#x171;" horiz-adv-x="536" 
d="M451 123q0 -28 1.5 -45t8.5 -26.5t22 -13t43 -3.5v-20l-154 -25v81q-36 -35 -75.5 -59t-91.5 -24q-57 0 -89 32.5t-32 89.5l1 257q0 28 -1.5 45t-8.5 26.5t-22 13t-43 3.5v20l154 10v-337q0 -23 4 -42t13.5 -33.5t26.5 -22.5t44 -8q31 0 64 16t56 36v273q0 28 -2 45
t-10 26.5t-25 13t-48 3.5v20l164 10v-362zM143 526h-21l73 164q22 14 47 16t42 -6zM272 526h-21l73 164q22 14 47 16t42 -6z" />
    <glyph glyph-name="Uogonek" unicode="&#x172;" horiz-adv-x="762" 
d="M653 253q0 -46 -8 -87t-28 -74.5t-54.5 -57.5t-86.5 -35q-51 -47 -64.5 -84.5t-1.5 -60t44.5 -27t75.5 15.5v-30q-28 -23 -52 -32.5t-47 -9.5q-39 0 -64.5 24.5t-25.5 61.5q0 34 19.5 68.5t67.5 66.5q-10 -1 -20 -1.5t-21 -0.5q-75 0 -125.5 21.5t-81 59t-44 87
t-13.5 105.5v325q0 24 -2.5 41.5t-13 29t-31 16.5t-56.5 5v20h279v-20q-35 0 -54 -5t-28 -16.5t-10.5 -29t-1.5 -41.5v-291q0 -74 14 -125t40.5 -83t64.5 -46.5t85 -14.5q45 0 82.5 12t64.5 38.5t42 68.5t15 103v338q0 24 -3.5 41.5t-15.5 29t-33.5 16.5t-57.5 5v20h239v-20
q-29 0 -46.5 -5t-27 -16t-12.5 -28.5t-3 -42.5v-335z" />
    <glyph glyph-name="uogonek" unicode="&#x173;" horiz-adv-x="536" 
d="M451 123q0 -28 1.5 -45t8.5 -26.5t22 -13t43 -3.5v-20l-59 -10q-48 -45 -61 -82t-0.5 -59t45 -26t74.5 16v-30q-28 -23 -52 -32.5t-47 -9.5q-39 0 -64.5 24.5t-25.5 61.5q0 32 17.5 65t60.5 64l-42 -7v81q-36 -35 -75.5 -59t-91.5 -24q-57 0 -89 32.5t-32 89.5l1 257
q0 28 -1.5 45t-8.5 26.5t-22 13t-43 3.5v20l154 10v-337q0 -23 4 -42t13.5 -33.5t26.5 -22.5t44 -8q31 0 64 16t56 36v273q0 28 -2 45t-10 26.5t-25 13t-48 3.5v20l164 10v-362z" />
    <glyph glyph-name="Wcircumflex" unicode="&#x174;" horiz-adv-x="1048" 
d="M715 130l157 459q6 19 9 35.5t-3 29t-23 19.5t-51 7v20h234v-20q-33 0 -53.5 -8.5t-33 -21.5t-19.5 -29.5l-13 -31.5l-211 -594h-29l-156 411l-146 -411h-29l-225 593q-6 16 -13.5 32.5t-19.5 30t-31 21.5t-49 8v20h238v-20q-23 0 -32.5 -9t-10.5 -23t3.5 -30t9.5 -29
l166 -459l115 338l-45 120q-6 16 -13.5 32.5t-19.5 30t-31 21.5t-49 8v20h268v-20q-36 0 -51.5 -9t-19 -23t1 -30t9.5 -29zM650 746l-127 104l-126 -104h-24l123 167h54l125 -167h-25z" />
    <glyph glyph-name="wcircumflex" unicode="&#x175;" horiz-adv-x="768" 
d="M532 -5h-25l-121 346l-125 -346h-25l-145 392l-12 31.5t-13.5 23t-21 14t-34.5 4.5v20h213v-20q-26 0 -38.5 -4t-16.5 -13t-1 -22.5t9 -31.5l94 -287l131 378h21l119 -378l104 287q14 37 4.5 54t-57.5 17v20h166v-20q-22 0 -34.5 -5.5t-20.5 -15.5t-13 -23l-11 -29z
M510 526l-127 104l-126 -104h-24l123 167h54l125 -167h-25z" />
    <glyph glyph-name="Ycircumflex" unicode="&#x176;" 
d="M359 341l143 265q6 11 10 24t0.5 24t-18.5 18.5t-47 7.5v20h221v-20q-25 0 -43.5 -5t-33 -15.5t-27 -27t-25.5 -38.5l-160 -294v-188q0 -29 5.5 -47t19 -28t36.5 -13.5t57 -3.5v-20h-318v20q33 0 55.5 3.5t36.5 13.5t20 28t6 47v188l-178 308l-19 32.5t-19 22.5t-27.5 13
t-43.5 4v20h257v-20q-53 0 -64.5 -17.5t12.5 -61.5zM465 746l-127 104l-126 -104h-24l123 167h54l125 -167h-25z" />
    <glyph glyph-name="ycircumflex" unicode="&#x177;" horiz-adv-x="512" 
d="M268 -5q-15 -38 -35.5 -80t-45.5 -77t-54 -58t-60 -23q-4 0 -13.5 4t-16 14.5t-5 29t20.5 48.5q15 -4 36 -4.5t44.5 13t49 47t51.5 97.5l-149 381l-12 31.5t-13.5 22.5t-21 14t-34.5 5v20h213v-20q-26 0 -39 -4.5t-17 -13t-1 -22t10 -31.5l101 -292l112 292q14 37 4.5 54
t-57.5 17v20h166v-20q-22 0 -34.5 -5.5t-20.5 -15.5t-13 -23l-11 -29zM382 526l-127 104l-126 -104h-24l123 167h54l125 -167h-25z" />
    <glyph glyph-name="Ydieresis" unicode="&#x178;" 
d="M359 341l143 265q6 11 10 24t0.5 24t-18.5 18.5t-47 7.5v20h221v-20q-25 0 -43.5 -5t-33 -15.5t-27 -27t-25.5 -38.5l-160 -294v-188q0 -29 5.5 -47t19 -28t36.5 -13.5t57 -3.5v-20h-318v20q33 0 55.5 3.5t36.5 13.5t20 28t6 47v188l-178 308l-19 32.5t-19 22.5t-27.5 13
t-43.5 4v20h257v-20q-53 0 -64.5 -17.5t12.5 -61.5zM246 762q-17 11 -30 24.5t-25 30.5q25 32 55 54q30 -22 55 -54q-11 -17 -25 -30.5t-30 -24.5zM431 762q-17 11 -30 24.5t-25 30.5q25 32 55 54q30 -22 55 -54q-11 -17 -25 -30.5t-30 -24.5z" />
    <glyph glyph-name="Zacute" unicode="&#x179;" horiz-adv-x="669" 
d="M607 680l-452 -637h290q43 0 71.5 5t46.5 18.5t28.5 38.5t17.5 65h20l-11 -170h-558l-20 20l453 638h-306q-37 0 -58 -8t-32 -23t-15.5 -36t-8.5 -46h-20l9 155h525zM274 746h-21l73 164q22 14 47 16t42 -6z" />
    <glyph glyph-name="zacute" unicode="&#x17a;" horiz-adv-x="433" 
d="M129 33h157q28 0 45.5 6.5t28 19.5t15.5 33.5t8 49.5h20l-9 -142h-354l-10 13l264 434h-134q-28 0 -45.5 -4.5t-28 -15t-15.5 -29.5t-8 -47h-20l9 129h336l6 -8zM156 526h-21l73 164q22 14 47 16t42 -6z" />
    <glyph glyph-name="Zdotaccent" unicode="&#x17b;" horiz-adv-x="669" 
d="M607 680l-452 -637h290q43 0 71.5 5t46.5 18.5t28.5 38.5t17.5 65h20l-11 -170h-558l-20 20l453 638h-306q-37 0 -58 -8t-32 -23t-15.5 -36t-8.5 -46h-20l9 155h525zM334 762q-17 11 -30 24.5t-25 30.5q25 32 55 54q30 -22 55 -54q-11 -17 -25 -30.5t-30 -24.5z" />
    <glyph glyph-name="zdotaccent" unicode="&#x17c;" horiz-adv-x="433" 
d="M129 33h157q28 0 45.5 6.5t28 19.5t15.5 33.5t8 49.5h20l-9 -142h-354l-10 13l264 434h-134q-28 0 -45.5 -4.5t-28 -15t-15.5 -29.5t-8 -47h-20l9 129h336l6 -8zM216 542q-17 11 -30 24.5t-25 30.5q25 32 55 54q30 -22 55 -54q-11 -17 -25 -30.5t-30 -24.5z" />
    <glyph glyph-name="Zcaron" unicode="&#x17d;" horiz-adv-x="669" 
d="M607 680l-452 -637h290q43 0 71.5 5t46.5 18.5t28.5 38.5t17.5 65h20l-11 -170h-558l-20 20l453 638h-306q-37 0 -58 -8t-32 -23t-15.5 -36t-8.5 -46h-20l9 155h525zM485 913l-125 -167h-54l-123 167h24l126 -104l127 104h25z" />
    <glyph glyph-name="zcaron" unicode="&#x17e;" horiz-adv-x="433" 
d="M129 33h157q28 0 45.5 6.5t28 19.5t15.5 33.5t8 49.5h20l-9 -142h-354l-10 13l264 434h-134q-28 0 -45.5 -4.5t-28 -15t-15.5 -29.5t-8 -47h-20l9 129h336l6 -8zM367 693l-125 -167h-54l-123 167h24l126 -104l127 104h25z" />
    <glyph glyph-name="longs" unicode="&#x17f;" horiz-adv-x="272" 
d="M194 108q0 -28 3 -45t13 -26.5t30 -13t54 -3.5v-20h-264v20q28 0 45 3.5t26 13t11.5 26.5t2.5 45v390q0 47 19 87.5t47 70.5t60 47t58 17q4 0 13 -1.5t14.5 -9.5t3.5 -25t-21 -47l-28 21t-34 13q-11 0 -20.5 -7.5t-16.5 -28.5t-11.5 -58.5t-4.5 -96.5v-372z" />
    <glyph glyph-name="florin" unicode="&#x192;" horiz-adv-x="324" 
d="M84 415l6 33h75l7 40q8 47 34.5 87.5t59.5 70.5t68 47t61 17q4 0 13 -1.5t13 -9.5t-1 -25t-29 -47l-24 21t-32 13q-11 0 -22.5 -11t-23 -36t-23.5 -66t-22 -100h114l-6 -33h-114l-66 -379q-8 -47 -34.5 -87.5t-59.5 -70.5t-68 -47t-61 -17q-4 0 -13 1.5t-13 9.5t1 25
t29 47l24 -21t32 -13q10 0 21 7.5t22.5 28.5t22 58.5t21.5 96.5l63 361h-75z" />
    <glyph glyph-name="Aringacute" unicode="&#x1fa;" horiz-adv-x="740" 
d="M491 204h-282l-35 -92q-16 -45 0 -68.5t78 -23.5v-20h-242v20q28 0 46 4.5t31 15t23 28t21 44.5l235 598h12l234 -598q10 -27 19.5 -44.5t22.5 -28t31 -15t45 -4.5v-20h-275v20q32 0 50.5 5t25.5 16t5 28.5t-11 42.5zM221 237h257l-127 343zM386 908h-19l50 101
q20 13 42.5 15t37.5 -6zM300 806q0 32 22 54t54 22t54 -22t22 -54t-22 -54t-54 -22t-54 22t-22 54zM335 806q0 -17 12 -29t29 -12t28.5 12t11.5 29t-11.5 28.5t-28.5 11.5t-29 -11.5t-12 -28.5z" />
    <glyph glyph-name="aringacute" unicode="&#x1fb;" horiz-adv-x="454" 
d="M444 10q-45 -20 -79 -20q-25 0 -43.5 13t-28.5 45q-42 -32 -77 -45t-65 -13q-47 0 -79 35t-32 95q0 33 27 51.5t66 27.5t82.5 11.5l75.5 4.5v159q0 40 -15 64t-54 24q-32 0 -51.5 -12t-30 -29t-12 -37t3.5 -35q-30 -19 -46.5 -21.5t-24 3t-8.5 14.5t-1 13q0 26 19.5 50
t49.5 42t65 29t66 11q41 0 64.5 -10t35.5 -25t15.5 -33t3.5 -34v-316q0 -9 2 -20t8.5 -19t19 -10.5t33.5 5.5zM121 111q2 -32 14 -57.5t42 -25.5q26 0 58.5 12t55.5 33v120q-40 -3 -71.5 -6t-53.5 -10.5t-33.5 -22.5t-11.5 -43zM214 702h-19l50 101q20 13 42.5 15t37.5 -6z
M128 600q0 32 22 54t54 22t54 -22t22 -54t-22 -54t-54 -22t-54 22t-22 54zM163 600q0 -17 12 -29t29 -12t28.5 12t11.5 29t-11.5 28.5t-28.5 11.5t-29 -11.5t-12 -28.5z" />
    <glyph glyph-name="AEacute" unicode="&#x1fc;" horiz-adv-x="930" 
d="M855 557h-20q-6 40 -14 62.5t-23 33t-40 12.5t-64 2h-166v-284h143q28 0 44.5 3t25.5 12t11.5 26.5t2.5 46.5h20v-212h-20q0 30 -2.5 48t-11.5 27.5t-25.5 12.5t-44.5 3h-143v-232q0 -44 19 -64t72 -20h124q26 0 47 4t36.5 16.5t26.5 37.5t17 67h20l-10 -159h-334
q-36 0 -56 9.5t-29.5 25t-12 35.5t-2.5 42v92h-228l-47 -92q-10 -20 -16.5 -36.5t-4 -28.5t16.5 -19t45 -7v-21h-202v21q28 0 45.5 5.5t30 16.5t22.5 28t22 41l303 588h417zM446 237v414l-211 -414h211zM483 746h-21l73 164q22 14 47 16t42 -6z" />
    <glyph glyph-name="aeacute" unicode="&#x1fd;" horiz-adv-x="708" 
d="M510 490q29 0 61.5 -10t57 -34t35 -63t-5.5 -97l-287 -16q-5 -81 18.5 -134t64.5 -76t94 -16.5t107 43.5l10 -18q-49 -44 -98.5 -62.5t-93.5 -15.5t-81 26.5t-62 64.5q-40 -44 -89 -68t-90 -24q-47 0 -79 35t-32 95q0 32 26 50t64.5 27t82 12t79.5 5q0 3 -0.5 8.5
t-0.5 21v46v84.5q0 40 -15 64t-54 24q-32 0 -51.5 -12t-30 -29t-12 -37t3.5 -35q-30 -19 -46.5 -21.5t-24 3t-8.5 14.5t-1 13q0 26 19.5 50t49.5 42t65 29t66 11q28 0 48 -5t33 -13.5t20.5 -19t11.5 -22.5q31 29 68.5 44.5t76.5 15.5zM510 461q-33 0 -58.5 -14t-42.5 -37
t-26.5 -52t-9.5 -59l202 11q9 30 11.5 57t-4 48t-24 33.5t-48.5 12.5zM177 28q14 0 32 4t37.5 13t38.5 23t35 33q-19 39 -27 92q-39 -2 -71 -5t-54.5 -11t-34.5 -23.5t-12 -42.5q2 -32 14 -57.5t42 -25.5zM294 526h-21l73 164q22 14 47 16t42 -6z" />
    <glyph glyph-name="Oslashacute" unicode="&#x1fe;" horiz-adv-x="803" 
d="M85 0l72 86q-51 49 -79 116.5t-28 147.5q0 76 26.5 141.5t73 114t111 76.5t141.5 28q63 0 118 -19.5t100 -54.5l71 85l26 -21l-72 -86q51 -49 79.5 -117t28.5 -147q0 -76 -26 -141.5t-73 -114t-111.5 -76.5t-140.5 -28q-64 0 -119 19.5t-100 54.5l-72 -85zM140 350
q0 -60 16.5 -114t45.5 -97l377 449q-35 41 -80 64t-97 23q-54 0 -102 -25.5t-83.5 -70t-56 -103.5t-20.5 -126zM402 25q54 0 102 25.5t83 70t55.5 103.5t20.5 126q0 60 -17 114t-46 97l-377 -449q35 -41 80.5 -64t98.5 -23zM341 746h-21l73 164q22 14 47 16t42 -6z" />
    <glyph glyph-name="oslashacute" unicode="&#x1ff;" horiz-adv-x="507" 
d="M63 0l39 55q-30 35 -46 82.5t-16 102.5q0 52 15.5 97.5t44 79.5t68.5 53.5t89 19.5q35 0 65 -10.5t55 -29.5l34 49l27 -19l-36 -52q32 -35 48.5 -83t16.5 -105q0 -52 -15.5 -97.5t-44 -79.5t-69 -53.5t-89.5 -19.5q-72 0 -123 42l-36 -51zM253 19q37 0 62 17.5t40.5 47.5
t22 70t6.5 86q0 38 -4.5 72t-14.5 63l-210 -300q16 -26 39.5 -41t58.5 -15zM123 240q0 -37 4 -70t13 -60l208 299q-15 24 -38.5 38t-56.5 14q-37 0 -62 -17.5t-40 -47.5t-21.5 -70t-6.5 -86zM193 526h-21l73 164q22 14 47 16t42 -6z" />
    <glyph glyph-name="Scommaaccent" unicode="&#x218;" horiz-adv-x="515" 
d="M425 556h-20q1 30 -9 53t-27.5 38.5t-40 23.5t-46.5 8q-26 0 -50.5 -8t-44.5 -24t-32 -40.5t-12 -57.5q0 -41 24 -70t59.5 -53t77.5 -46.5t77.5 -50t59.5 -63.5t24 -87q0 -43 -15 -78t-43 -60t-69 -39t-92 -14q-66 0 -111.5 16t-79.5 37l6 133h20q4 -48 19 -78.5
t37.5 -47.5t50 -23t57.5 -6q35 0 60.5 10.5t42 28.5t24.5 41t8 47q0 43 -24 74.5t-59.5 58t-77.5 50t-77.5 52t-59.5 64.5t-24 87q0 49 19.5 83t52 55t73.5 30.5t83 9.5q41 0 79 -8t68 -25zM203 -271q23 19 35.5 42t18.5 46q-18 14 -32.5 28.5t-28.5 32.5q14 17 29 31.5
t32 28.5q17 -14 32 -28.5t29 -31.5q0 -43 -22.5 -85t-76.5 -81z" />
    <glyph glyph-name="scommaaccent" unicode="&#x219;" horiz-adv-x="396" 
d="M306 358q2 32 -6 52t-22 31.5t-32.5 15.5t-37.5 4q-16 0 -31.5 -5.5t-27.5 -15.5t-19.5 -24t-7.5 -32q0 -22 17.5 -41.5t43.5 -38l56 -38t56 -41t43.5 -47t17.5 -56.5q0 -37 -17 -62t-43.5 -40.5t-57.5 -22.5t-58 -7q-38 0 -77 11t-63 32l5 110h20q8 -69 40 -96.5
t86 -27.5q19 0 35 7t27.5 17.5t17.5 23.5t6 25q0 31 -17.5 55.5t-43.5 45.5t-56 40t-56 39.5t-43.5 43.5t-17.5 52q0 32 15 55t39 38t54 22t60 7q34 0 67 -9t54 -23l-6 -100h-20zM144 -271q23 19 35.5 42t18.5 46q-18 14 -32.5 28.5t-28.5 32.5q14 17 29 31.5t32 28.5
q17 -14 32 -28.5t29 -31.5q0 -43 -22.5 -85t-76.5 -81z" />
    <glyph glyph-name="circumflex" unicode="&#x2c6;" horiz-adv-x="402" 
d="M327 526l-127 104l-126 -104h-24l123 167h54l125 -167h-25z" />
    <glyph glyph-name="caron" unicode="&#x2c7;" horiz-adv-x="402" 
d="M352 693l-125 -167h-54l-123 167h24l126 -104l127 104h25z" />
    <glyph glyph-name="breve" unicode="&#x2d8;" horiz-adv-x="381" 
d="M50 685h24q8 -34 39 -60.5t78 -26.5q46 0 77 26.5t39 60.5h24q0 -29 -11 -56.5t-30 -48.5t-44.5 -34t-54.5 -13q-30 0 -55.5 13t-44.5 34t-30 48.5t-11 56.5z" />
    <glyph glyph-name="dotaccent" unicode="&#x2d9;" horiz-adv-x="210" 
d="M105 542q-17 11 -30 24.5t-25 30.5q25 32 55 54q30 -22 55 -54q-11 -17 -25 -30.5t-30 -24.5z" />
    <glyph glyph-name="ring" unicode="&#x2da;" horiz-adv-x="302" 
d="M50 651q0 21 8 39.5t21.5 32t32 21.5t39.5 8t39.5 -8t32 -21.5t21.5 -32t8 -39.5t-8 -39.5t-21.5 -32t-32 -21.5t-39.5 -8t-39.5 8t-32 21.5t-21.5 32t-8 39.5zM90 651q0 -26 17.5 -43.5t43.5 -17.5q25 0 43 17.5t18 43.5q0 25 -18 43t-43 18q-26 0 -43.5 -18t-17.5 -43z
" />
    <glyph glyph-name="ogonek" unicode="&#x2db;" horiz-adv-x="289" 
d="M187 0q-51 -47 -65.5 -85t-2.5 -60.5t44.5 -27t75.5 15.5v-30q-28 -23 -52 -32.5t-47 -9.5q-39 0 -64.5 24.5t-25.5 61.5q0 36 22.5 72.5t77.5 70.5h37z" />
    <glyph glyph-name="tilde" unicode="&#x2dc;" horiz-adv-x="422" 
d="M50 568q4 7 12.5 20t21.5 26t29 23t34 10q21 0 40.5 -5t38 -11t37.5 -11t38 -5q9 0 23.5 5t31.5 28l16 -11q-4 -7 -12.5 -20t-21.5 -26t-29 -23t-34 -10q-21 0 -40.5 5t-38 11t-37.5 11t-38 5q-9 0 -23.5 -5t-31.5 -28z" />
    <glyph glyph-name="hungarumlaut" unicode="&#x2dd;" horiz-adv-x="391" 
d="M71 526h-21l73 164q22 14 47 16t42 -6zM200 526h-21l73 164q22 14 47 16t42 -6z" />
    <glyph glyph-name="gravecomb" unicode="&#x300;" horiz-adv-x="262" 
d="M50 780q17 8 42 6t47 -16l73 -164h-21z" />
    <glyph glyph-name="acutecomb" unicode="&#x301;" horiz-adv-x="262" 
d="M71 606h-21l73 164q22 14 47 16t42 -6z" />
    <glyph glyph-name="circumflexcomb" unicode="&#x302;" horiz-adv-x="402" 
d="M327 606l-127 104l-126 -104h-24l123 167h54l125 -167h-25z" />
    <glyph glyph-name="tildecomb" unicode="&#x303;" horiz-adv-x="422" 
d="M50 648q4 7 12.5 20t21.5 26t29 23t34 10q21 0 40.5 -5t38 -11t37.5 -11t38 -5q9 0 23.5 5t31.5 28l16 -11q-4 -7 -12.5 -20t-21.5 -26t-29 -23t-34 -10q-21 0 -40.5 5t-38 11t-37.5 11t-38 5q-9 0 -23.5 -5t-31.5 -28z" />
    <glyph glyph-name="macroncomb" unicode="&#x304;" horiz-adv-x="412" 
d="M362 649h-312v52h312v-52z" />
    <glyph glyph-name="brevecomb" unicode="&#x306;" horiz-adv-x="381" 
d="M50 765h24q8 -34 39 -60.5t78 -26.5q46 0 77 26.5t39 60.5h24q0 -29 -11 -56.5t-30 -48.5t-44.5 -34t-54.5 -13q-30 0 -55.5 13t-44.5 34t-30 48.5t-11 56.5z" />
    <glyph glyph-name="dotaccentcomb" unicode="&#x307;" horiz-adv-x="210" 
d="M105 622q-17 11 -30 24.5t-25 30.5q25 32 55 54q30 -22 55 -54q-11 -17 -25 -30.5t-30 -24.5z" />
    <glyph glyph-name="dieresiscomb" unicode="&#x308;" horiz-adv-x="395" 
d="M105 622q-17 11 -30 24.5t-25 30.5q25 32 55 54q30 -22 55 -54q-11 -17 -25 -30.5t-30 -24.5zM290 622q-17 11 -30 24.5t-25 30.5q25 32 55 54q30 -22 55 -54q-11 -17 -25 -30.5t-30 -24.5z" />
    <glyph glyph-name="Delta" unicode="&#x394;" horiz-adv-x="650" 
d="M60 0l265 623l265 -623h-530zM500 60l-175 410l-175 -410h350z" />
    <glyph glyph-name="Delta" unicode="&#x2206;" horiz-adv-x="650" 
d="M60 0l265 623l265 -623h-530zM500 60l-175 410l-175 -410h350z" />
    <glyph glyph-name="pi" unicode="&#x3c0;" horiz-adv-x="596" 
d="M556 480v-20q-25 0 -39.5 -3.5t-22 -13t-9.5 -26.5t-2 -45v-264q0 -28 2 -45t9.5 -26.5t22 -13t39.5 -3.5v-20h-232v20q28 0 44 3.5t24 13t10 26.5t2 45v264q0 28 -2 45t-10 26.5t-24 13t-44 3.5h-52q-25 0 -39.5 -3.5t-22 -13t-9.5 -26.5t-2 -45v-264q0 -28 2 -45
t9.5 -26.5t22 -13t39.5 -3.5v-20h-232v20q28 0 44 3.5t24 13t10 26.5t2 45v264q0 28 -2 45t-10 26.5t-24 13t-44 3.5v20h516z" />
    <glyph glyph-name="Wgrave" unicode="&#x1e80;" horiz-adv-x="1048" 
d="M715 130l157 459q6 19 9 35.5t-3 29t-23 19.5t-51 7v20h234v-20q-33 0 -53.5 -8.5t-33 -21.5t-19.5 -29.5l-13 -31.5l-211 -594h-29l-156 411l-146 -411h-29l-225 593q-6 16 -13.5 32.5t-19.5 30t-31 21.5t-49 8v20h238v-20q-23 0 -32.5 -9t-10.5 -23t3.5 -30t9.5 -29
l166 -459l115 338l-45 120q-6 16 -13.5 32.5t-19.5 30t-31 21.5t-49 8v20h268v-20q-36 0 -51.5 -9t-19 -23t1 -30t9.5 -29zM380 920q17 8 42 6t47 -16l73 -164h-21z" />
    <glyph glyph-name="wgrave" unicode="&#x1e81;" horiz-adv-x="768" 
d="M532 -5h-25l-121 346l-125 -346h-25l-145 392l-12 31.5t-13.5 23t-21 14t-34.5 4.5v20h213v-20q-26 0 -38.5 -4t-16.5 -13t-1 -22.5t9 -31.5l94 -287l131 378h21l119 -378l104 287q14 37 4.5 54t-57.5 17v20h166v-20q-22 0 -34.5 -5.5t-20.5 -15.5t-13 -23l-11 -29z
M303 700q17 8 42 6t47 -16l73 -164h-21z" />
    <glyph glyph-name="Wacute" unicode="&#x1e82;" horiz-adv-x="1048" 
d="M715 130l157 459q6 19 9 35.5t-3 29t-23 19.5t-51 7v20h234v-20q-33 0 -53.5 -8.5t-33 -21.5t-19.5 -29.5l-13 -31.5l-211 -594h-29l-156 411l-146 -411h-29l-225 593q-6 16 -13.5 32.5t-19.5 30t-31 21.5t-49 8v20h238v-20q-23 0 -32.5 -9t-10.5 -23t3.5 -30t9.5 -29
l166 -459l115 338l-45 120q-6 16 -13.5 32.5t-19.5 30t-31 21.5t-49 8v20h268v-20q-36 0 -51.5 -9t-19 -23t1 -30t9.5 -29zM548 746h-21l73 164q22 14 47 16t42 -6z" />
    <glyph glyph-name="wacute" unicode="&#x1e83;" horiz-adv-x="768" 
d="M532 -5h-25l-121 346l-125 -346h-25l-145 392l-12 31.5t-13.5 23t-21 14t-34.5 4.5v20h213v-20q-26 0 -38.5 -4t-16.5 -13t-1 -22.5t9 -31.5l94 -287l131 378h21l119 -378l104 287q14 37 4.5 54t-57.5 17v20h166v-20q-22 0 -34.5 -5.5t-20.5 -15.5t-13 -23l-11 -29z
M324 526h-21l73 164q22 14 47 16t42 -6z" />
    <glyph glyph-name="Wdieresis" unicode="&#x1e84;" horiz-adv-x="1048" 
d="M715 130l157 459q6 19 9 35.5t-3 29t-23 19.5t-51 7v20h234v-20q-33 0 -53.5 -8.5t-33 -21.5t-19.5 -29.5l-13 -31.5l-211 -594h-29l-156 411l-146 -411h-29l-225 593q-6 16 -13.5 32.5t-19.5 30t-31 21.5t-49 8v20h238v-20q-23 0 -32.5 -9t-10.5 -23t3.5 -30t9.5 -29
l166 -459l115 338l-45 120q-6 16 -13.5 32.5t-19.5 30t-31 21.5t-49 8v20h268v-20q-36 0 -51.5 -9t-19 -23t1 -30t9.5 -29zM431 762q-17 11 -30 24.5t-25 30.5q25 32 55 54q30 -22 55 -54q-11 -17 -25 -30.5t-30 -24.5zM616 762q-17 11 -30 24.5t-25 30.5q25 32 55 54
q30 -22 55 -54q-11 -17 -25 -30.5t-30 -24.5z" />
    <glyph glyph-name="wdieresis" unicode="&#x1e85;" horiz-adv-x="768" 
d="M532 -5h-25l-121 346l-125 -346h-25l-145 392l-12 31.5t-13.5 23t-21 14t-34.5 4.5v20h213v-20q-26 0 -38.5 -4t-16.5 -13t-1 -22.5t9 -31.5l94 -287l131 378h21l119 -378l104 287q14 37 4.5 54t-57.5 17v20h166v-20q-22 0 -34.5 -5.5t-20.5 -15.5t-13 -23l-11 -29z
M291 542q-17 11 -30 24.5t-25 30.5q25 32 55 54q30 -22 55 -54q-11 -17 -25 -30.5t-30 -24.5zM476 542q-17 11 -30 24.5t-25 30.5q25 32 55 54q30 -22 55 -54q-11 -17 -25 -30.5t-30 -24.5z" />
    <glyph glyph-name="Ygrave" unicode="&#x1ef2;" 
d="M359 341l143 265q6 11 10 24t0.5 24t-18.5 18.5t-47 7.5v20h221v-20q-25 0 -43.5 -5t-33 -15.5t-27 -27t-25.5 -38.5l-160 -294v-188q0 -29 5.5 -47t19 -28t36.5 -13.5t57 -3.5v-20h-318v20q33 0 55.5 3.5t36.5 13.5t20 28t6 47v188l-178 308l-19 32.5t-19 22.5t-27.5 13
t-43.5 4v20h257v-20q-53 0 -64.5 -17.5t12.5 -61.5zM258 920q17 8 42 6t47 -16l73 -164h-21z" />
    <glyph glyph-name="ygrave" unicode="&#x1ef3;" horiz-adv-x="512" 
d="M268 -5q-15 -38 -35.5 -80t-45.5 -77t-54 -58t-60 -23q-4 0 -13.5 4t-16 14.5t-5 29t20.5 48.5q15 -4 36 -4.5t44.5 13t49 47t51.5 97.5l-149 381l-12 31.5t-13.5 22.5t-21 14t-34.5 5v20h213v-20q-26 0 -39 -4.5t-17 -13t-1 -22t10 -31.5l101 -292l112 292q14 37 4.5 54
t-57.5 17v20h166v-20q-22 0 -34.5 -5.5t-20.5 -15.5t-13 -23l-11 -29zM175 700q17 8 42 6t47 -16l73 -164h-21z" />
    <glyph glyph-name="endash" unicode="&#x2013;" horiz-adv-x="657" 
d="M80 212v62h497v-62h-497z" />
    <glyph glyph-name="emdash" unicode="&#x2014;" horiz-adv-x="1182" 
d="M80 212v62h1022v-62h-1022z" />
    <glyph glyph-name="quoteleft" unicode="&#x2018;" horiz-adv-x="312" 
d="M156 586q23 -17 41 -35t35 -41q-17 -22 -35.5 -40t-40.5 -35q-22 17 -40.5 35t-35.5 40q0 54 28 111.5t95 106.5l20 -21q-28 -23 -43.5 -57.5t-23.5 -63.5z" />
    <glyph glyph-name="quoteright" unicode="&#x2019;" horiz-adv-x="312" 
d="M156 562q-23 17 -41 35t-35 41q17 22 35.5 40t40.5 35q22 -17 40.5 -35t35.5 -40q0 -54 -28 -111.5t-95 -106.5l-20 21q28 23 43.5 57.5t23.5 63.5z" />
    <glyph glyph-name="quotesinglbase" unicode="&#x201a;" horiz-adv-x="312" 
d="M156 -16q-23 17 -41 35t-35 41q17 22 35.5 40t40.5 35q22 -17 40.5 -35t35.5 -40q0 -54 -28 -111.5t-95 -106.5l-20 21q28 23 43.5 57.5t23.5 63.5z" />
    <glyph glyph-name="quotedblleft" unicode="&#x201c;" horiz-adv-x="533" 
d="M156 586q23 -17 41 -35t35 -41q-17 -22 -35.5 -40t-40.5 -35q-22 17 -40.5 35t-35.5 40q0 54 28 111.5t95 106.5l20 -21q-28 -23 -43.5 -57.5t-23.5 -63.5zM377 586q23 -17 41 -35t35 -41q-17 -22 -35.5 -40t-40.5 -35q-22 17 -40.5 35t-35.5 40q0 54 28 111.5t95 106.5
l20 -21q-28 -23 -43.5 -57.5t-23.5 -63.5z" />
    <glyph glyph-name="quotedblright" unicode="&#x201d;" horiz-adv-x="533" 
d="M377 562q-23 17 -41 35t-35 41q17 22 35.5 40t40.5 35q22 -17 40.5 -35t35.5 -40q0 -54 -28 -111.5t-95 -106.5l-20 21q28 23 43.5 57.5t23.5 63.5zM156 562q-23 17 -41 35t-35 41q17 22 35.5 40t40.5 35q22 -17 40.5 -35t35.5 -40q0 -54 -28 -111.5t-95 -106.5l-20 21
q28 23 43.5 57.5t23.5 63.5z" />
    <glyph glyph-name="quotedblbase" unicode="&#x201e;" horiz-adv-x="533" 
d="M377 -16q-23 17 -41 35t-35 41q17 22 35.5 40t40.5 35q22 -17 40.5 -35t35.5 -40q0 -54 -28 -111.5t-95 -106.5l-20 21q28 23 43.5 57.5t23.5 63.5zM156 -16q-23 17 -41 35t-35 41q17 22 35.5 40t40.5 35q22 -17 40.5 -35t35.5 -40q0 -54 -28 -111.5t-95 -106.5l-20 21
q28 23 43.5 57.5t23.5 63.5z" />
    <glyph glyph-name="dagger" unicode="&#x2020;" horiz-adv-x="565" 
d="M300 706l11 -199l174 -11v-34l-173 -11l-12 -518h-35l-12 518l-173 11v34l174 11l11 199h35z" />
    <glyph glyph-name="daggerdbl" unicode="&#x2021;" horiz-adv-x="565" 
d="M265 -114l-11 179l-174 11v35l174 11l11 174l-11 175l-174 11v34l174 11l11 179h35l11 -179l174 -11v-34l-174 -11l-11 -175l11 -174l174 -11v-35l-174 -11l-11 -179h-35z" />
    <glyph glyph-name="bullet" unicode="&#x2022;" horiz-adv-x="417" 
d="M80 358q0 26 10 49.5t27.5 41t41 27.5t50.5 10q26 0 49.5 -10t41 -27.5t27.5 -41t10 -49.5t-10 -49.5t-27.5 -41t-41 -27.5t-49.5 -10q-27 0 -50.5 10t-41 27.5t-27.5 41t-10 49.5z" />
    <glyph glyph-name="ellipsis" unicode="&#x2026;" horiz-adv-x="789" 
d="M156 -10q-23 17 -41 35t-35 41q17 22 35.5 40t40.5 35q22 -17 40.5 -35t35.5 -40q-17 -23 -35.5 -41t-40.5 -35zM392 -10q-23 17 -41 35t-35 41q17 22 35.5 40t40.5 35q22 -17 40.5 -35t35.5 -40q-17 -23 -35.5 -41t-40.5 -35zM628 -10q-23 17 -41 35t-35 41
q17 22 35.5 40t40.5 35q22 -17 40.5 -35t35.5 -40q-17 -23 -35.5 -41t-40.5 -35z" />
    <glyph glyph-name="perthousand" unicode="&#x2030;" horiz-adv-x="1121" 
d="M580 720l33 -20l-433 -717l-33 20zM701 161q0 -36 -12.5 -67t-34 -54.5t-50.5 -36.5t-63 -13t-63 13t-50.5 36.5t-34 54.5t-12.5 67t12.5 67t34 54.5t50.5 36.5t63 13t63 -13t50.5 -36.5t34 -54.5t12.5 -67zM453 161q0 -29 4 -55t14.5 -45t27 -30t42.5 -11q25 0 42 11
t27 30t14.5 45t4.5 55t-4.5 55t-14.5 45t-27 30t-42 11q-26 0 -42.5 -11t-27 -30t-14.5 -45t-4 -55zM380 539q0 -36 -12.5 -67t-34 -54.5t-50.5 -36.5t-63 -13t-63 13t-50.5 36.5t-34 54.5t-12.5 67t12.5 67t34 54.5t50.5 36.5t63 13t63 -13t50.5 -36.5t34 -54.5t12.5 -67z
M132 539q0 -29 4 -55t14.5 -45t27 -30t42.5 -11q25 0 42 11t27 30t14.5 45t4.5 55t-4.5 55t-14.5 45t-27 30t-42 11q-26 0 -42.5 -11t-27 -30t-14.5 -45t-4 -55zM1061 161q0 -36 -12.5 -67t-34 -54.5t-50.5 -36.5t-63 -13t-63 13t-50.5 36.5t-34 54.5t-12.5 67t12.5 67
t34 54.5t50.5 36.5t63 13t63 -13t50.5 -36.5t34 -54.5t12.5 -67zM813 161q0 -29 4 -55t14.5 -45t27 -30t42.5 -11q25 0 42 11t27 30t14.5 45t4.5 55t-4.5 55t-14.5 45t-27 30t-42 11q-26 0 -42.5 -11t-27 -30t-14.5 -45t-4 -55z" />
    <glyph glyph-name="guilsinglleft" unicode="&#x2039;" horiz-adv-x="387" 
d="M284 445l23 -18l-112 -161q-5 -8 -7.5 -12.5t-2.5 -8.5t2.5 -8t7.5 -11l112 -160l-23 -18l-204 199z" />
    <glyph glyph-name="guilsinglright" unicode="&#x203a;" horiz-adv-x="387" 
d="M307 247l-204 -199l-23 18l112 160q5 7 7.5 11t2.5 8t-2.5 8.5t-7.5 12.5l-112 161l23 18z" />
    <glyph glyph-name="fraction" unicode="&#x2044;" horiz-adv-x="89" 
d="M295 720l33 -20l-433 -717l-33 20z" />
    <glyph glyph-name="zerosuperior" unicode="&#x2070;" horiz-adv-x="415" 
d="M130 669q0 -35 5.5 -66.5t15.5 -55.5t24.5 -38t32.5 -14t32.5 14t24.5 38t15.5 55.5t5.5 66.5q0 36 -5.5 67.5t-15.5 55.5t-24.5 38t-32.5 14t-32.5 -14t-24.5 -38t-15.5 -55.5t-5.5 -67.5zM354 669q0 -40 -10 -75.5t-29 -61.5t-46 -41.5t-61 -15.5t-61.5 15.5
t-46.5 41.5t-29 61.5t-10 75.5t10 75.5t29 61.5t46.5 41.5t61.5 15.5t61 -15.5t46 -41.5t29 -61.5t10 -75.5z" />
    <glyph glyph-name="foursuperior" unicode="&#x2074;" horiz-adv-x="401" 
d="M291 577v-35q0 -15 1.5 -24t7.5 -14.5t17.5 -7.5t32.5 -2v-14h-182v14q20 0 32 2t18.5 7.5t8.5 14.5t2 24v35h-178v36l209 248h31v-248h54l-9 -36h-45zM230 613v175l-148 -175h148z" />
    <glyph glyph-name="fivesuperior" unicode="&#x2075;" horiz-adv-x="379" 
d="M167 475q-22 0 -42.5 5.5t-35.5 15t-24 23.5t-9 31q0 12 6.5 17t15.5 4t19 -5t19 -10q-9 -25 6 -43.5t46 -18.5q12 0 27.5 4.5t28.5 14.5t22 27t9 43q0 28 -15 49t-39.5 36t-55 24t-61.5 14l9 152h211l-11 -45h-177l-4 -77q61 -3 101 -17.5t63 -34.5t32.5 -43t9.5 -42
q0 -33 -15 -56.5t-38 -38.5t-49.5 -22t-48.5 -7z" />
    <glyph glyph-name="sixsuperior" unicode="&#x2076;" horiz-adv-x="391" 
d="M274 851q-51 -19 -89.5 -62.5t-54.5 -114.5q20 16 41.5 23t42.5 7q23 0 44 -7.5t37 -22t25.5 -35.5t9.5 -47q0 -28 -12 -49.5t-31 -36.5t-43.5 -23t-48.5 -8q-33 0 -58 11.5t-42 31t-25.5 45t-8.5 53.5q0 54 21.5 97t53 74t67 50t64.5 26zM189 678q-14 0 -30.5 -5.5
t-31.5 -19.5q-4 -20 -3 -47.5t8.5 -53t23 -43t42.5 -17.5q10 0 21.5 4t21.5 14t17 27.5t7 43.5q0 48 -22.5 72.5t-53.5 24.5z" />
    <glyph glyph-name="sevensuperior" unicode="&#x2077;" horiz-adv-x="353" 
d="M119 813q-14 0 -24 -0.5t-16.5 -4.5t-10.5 -11.5t-7 -22.5h-14l9 84h246l13 -13l-151 -365h-71l183 333h-157z" />
    <glyph glyph-name="eightsuperior" unicode="&#x2078;" horiz-adv-x="383" 
d="M314 776q0 -17 -7.5 -31.5t-19 -26.5t-26.5 -20.5t-30 -14.5q14 -5 30 -14.5t29.5 -23t22.5 -31.5t9 -40q0 -42 -35 -70.5t-98 -28.5q-25 0 -48 4.5t-41 15.5t-28.5 29.5t-10.5 46.5q0 20 8.5 36t21.5 28.5t29.5 21t32.5 14.5q-12 6 -26 15t-25.5 21t-19.5 27t-8 33
q0 24 11 42t29 30t40 18t44 6q21 0 42 -5.5t37.5 -16t26.5 -27t10 -38.5zM136 778q0 -18 7 -31t18 -23t23 -17t23 -12q16 10 30.5 30.5t14.5 52.5q0 21 -6.5 33.5t-15.5 20t-18.5 10t-15.5 2.5q-4 0 -14 -2.5t-20 -9.5t-18 -20t-8 -34zM191 494q12 0 23.5 4.5t21.5 13.5
t16 22.5t6 31.5q0 16 -8.5 30.5t-20.5 26.5t-26.5 21t-26.5 15q-20 -11 -35 -34t-15 -53q0 -39 21.5 -58.5t43.5 -19.5z" />
    <glyph glyph-name="ninesuperior" unicode="&#x2079;" horiz-adv-x="391" 
d="M118 487q51 19 89.5 62.5t53.5 114.5q-20 -16 -41 -23t-43 -7q-23 0 -43.5 7.5t-37 22t-26 35.5t-9.5 47q0 28 12 49.5t31.5 36.5t43.5 23t49 8q33 0 57.5 -11.5t41.5 -31t25.5 -45t8.5 -53.5q0 -54 -21 -97t-52.5 -74t-67 -50t-64.5 -26zM202 660q14 0 30.5 5.5
t31.5 19.5q4 20 3 47.5t-8.5 53t-23 43t-42.5 17.5q-10 0 -21.5 -4t-21.5 -14t-17 -27.5t-7 -43.5q0 -48 22.5 -72.5t53.5 -24.5z" />
    <glyph glyph-name="n.sups" unicode="&#x207f;" horiz-adv-x="405" 
d="M191 480h-145v13q16 0 25 2t13.5 7t5.5 13.5t1 22.5v140q0 28 -6 37t-37 9v13l107 2l-2 -50q18 23 49 39.5t61 16.5q27 0 45 -18t18 -52v-137q0 -14 1 -22.5t5.5 -13.5t13.5 -7t25 -2v-13h-145v13q26 0 32 8.5t6 36.5v129q0 23 -10 34t-25 11q-17 0 -38 -12t-38 -35v-127
q0 -28 6 -36.5t32 -8.5v-13z" />
    <glyph glyph-name="zeroinferior" unicode="&#x2080;" horiz-adv-x="415" 
d="M130 -11q0 -35 5.5 -66.5t15.5 -55.5t24.5 -38t32.5 -14t32.5 14t24.5 38t15.5 55.5t5.5 66.5q0 36 -5.5 67.5t-15.5 55.5t-24.5 38t-32.5 14t-32.5 -14t-24.5 -38t-15.5 -55.5t-5.5 -67.5zM354 -11q0 -40 -10 -75.5t-29 -61.5t-46 -41.5t-61 -15.5t-61.5 15.5
t-46.5 41.5t-29 61.5t-10 75.5t10 75.5t29 61.5t46.5 41.5t61.5 15.5t61 -15.5t46 -41.5t29 -61.5t10 -75.5z" />
    <glyph glyph-name="oneinferior" unicode="&#x2081;" horiz-adv-x="284" 
d="M51 -200v14q21 0 33 2t18 7.5t8 14.5t2 24v245q0 14 -2 23t-8 14.5t-18 7.5t-33 2v13l109 14h15v-319q0 -15 1 -24t7 -14.5t17.5 -7.5t32.5 -2v-14h-182z" />
    <glyph glyph-name="twoinferior" unicode="&#x2082;" horiz-adv-x="384" 
d="M56 -188l59.5 52t60.5 61.5t47 68t19 73.5t-22 58t-55 20q-26 0 -50.5 -14.5t-40.5 -41.5l-12 6q20 42 55.5 65t77.5 23q53 0 82.5 -26.5t29.5 -74.5q0 -35 -22.5 -70.5t-53.5 -67.5t-63 -58l-51 -41h211l-11 -45h-251z" />
    <glyph glyph-name="threeinferior" unicode="&#x2083;" horiz-adv-x="378" 
d="M189 183q50 0 80 -25t30 -58q0 -34 -26.5 -62t-70.5 -39v-1q56 -4 85.5 -31.5t29.5 -62.5q0 -29 -13.5 -50t-35.5 -34t-48.5 -19t-52.5 -6q-22 0 -42.5 5.5t-35.5 15t-24 23.5t-9 31q0 12 6.5 17t15.5 4t19 -5t19 -10q-9 -25 6 -43.5t46 -18.5q37 0 58.5 24.5t21.5 65.5
q0 35 -19.5 59.5t-57.5 24.5h-29v19h21q35 0 54 22.5t19 50.5q0 29 -21 47t-53 18q-20 0 -35 -5.5t-26 -14t-19 -18t-14 -18.5l-11 6q17 36 51.5 62t80.5 26z" />
    <glyph glyph-name="fourinferior" unicode="&#x2084;" horiz-adv-x="401" 
d="M291 -103v-35q0 -15 1.5 -24t7.5 -14.5t17.5 -7.5t32.5 -2v-14h-182v14q20 0 32 2t18.5 7.5t8.5 14.5t2 24v35h-178v36l209 248h31v-248h54l-9 -36h-45zM230 -67v175l-148 -175h148z" />
    <glyph glyph-name="fiveinferior" unicode="&#x2085;" horiz-adv-x="379" 
d="M167 -205q-22 0 -42.5 5.5t-35.5 15t-24 23.5t-9 31q0 12 6.5 17t15.5 4t19 -5t19 -10q-9 -25 6 -43.5t46 -18.5q12 0 27.5 4.5t28.5 14.5t22 27t9 43q0 28 -15 49t-39.5 36t-55 24t-61.5 14l9 152h211l-11 -45h-177l-4 -77q61 -3 101 -17.5t63 -34.5t32.5 -43t9.5 -42
q0 -33 -15 -56.5t-38 -38.5t-49.5 -22t-48.5 -7z" />
    <glyph glyph-name="sixinferior" unicode="&#x2086;" horiz-adv-x="391" 
d="M274 171q-51 -19 -89.5 -62.5t-54.5 -114.5q20 16 41.5 23t42.5 7q23 0 44 -7.5t37 -22t25.5 -35.5t9.5 -47q0 -28 -12 -49.5t-31 -36.5t-43.5 -23t-48.5 -8q-33 0 -58 11.5t-42 31t-25.5 45t-8.5 53.5q0 54 21.5 97t53 74t67 50t64.5 26zM189 -2q-14 0 -30.5 -5.5
t-31.5 -19.5q-4 -20 -3 -47.5t8.5 -53t23 -43t42.5 -17.5q10 0 21.5 4t21.5 14t17 27.5t7 43.5q0 48 -22.5 72.5t-53.5 24.5z" />
    <glyph glyph-name="seveninferior" unicode="&#x2087;" horiz-adv-x="353" 
d="M119 133q-14 0 -24 -0.5t-16.5 -4.5t-10.5 -11.5t-7 -22.5h-14l9 84h246l13 -13l-151 -365h-71l183 333h-157z" />
    <glyph glyph-name="eightinferior" unicode="&#x2088;" horiz-adv-x="383" 
d="M314 96q0 -17 -7.5 -31.5t-19 -26.5t-26.5 -20.5t-30 -14.5q14 -5 30 -14.5t29.5 -23t22.5 -31.5t9 -40q0 -42 -35 -70.5t-98 -28.5q-25 0 -48 4.5t-41 15.5t-28.5 29.5t-10.5 46.5q0 20 8.5 36t21.5 28.5t29.5 21t32.5 14.5q-12 6 -26 15t-25.5 21t-19.5 27t-8 33
q0 24 11 42t29 30t40 18t44 6q21 0 42 -5.5t37.5 -16t26.5 -27t10 -38.5zM136 98q0 -18 7 -31t18 -23t23 -17t23 -12q16 10 30.5 30.5t14.5 52.5q0 21 -6.5 33.5t-15.5 20t-18.5 10t-15.5 2.5q-4 0 -14 -2.5t-20 -9.5t-18 -20t-8 -34zM191 -186q12 0 23.5 4.5t21.5 13.5
t16 22.5t6 31.5q0 16 -8.5 30.5t-20.5 26.5t-26.5 21t-26.5 15q-20 -11 -35 -34t-15 -53q0 -39 21.5 -58.5t43.5 -19.5z" />
    <glyph glyph-name="nineinferior" unicode="&#x2089;" horiz-adv-x="391" 
d="M118 -193q51 19 89.5 62.5t53.5 114.5q-20 -16 -41 -23t-43 -7q-23 0 -43.5 7.5t-37 22t-26 35.5t-9.5 47q0 28 12 49.5t31.5 36.5t43.5 23t49 8q33 0 57.5 -11.5t41.5 -31t25.5 -45t8.5 -53.5q0 -54 -21 -97t-52.5 -74t-67 -50t-64.5 -26zM202 -20q14 0 30.5 5.5
t31.5 19.5q4 20 3 47.5t-8.5 53t-23 43t-42.5 17.5q-10 0 -21.5 -4t-21.5 -14t-17 -27.5t-7 -43.5q0 -48 22.5 -72.5t53.5 -24.5z" />
    <glyph glyph-name="Euro" unicode="&#x20ac;" horiz-adv-x="710" 
d="M30 310h74q-1 10 -1 19.5v20.5v20t1 20h-74v33h77q10 76 39 130.5t72 89t97.5 51t114.5 16.5q69 0 123.5 -21t104.5 -57l2 -173h-20q0 66 -19 108t-49 66t-66 33t-69 9q-51 0 -92 -18t-71.5 -51t-50 -79.5t-26.5 -103.5h206v-33h-209q-1 -10 -1 -20v-20v-20.5t1 -19.5
h209v-33h-206q7 -57 26.5 -103.5t50 -79.5t71.5 -51t92 -18q33 0 69 9t66 33t49 66t19 108h20l-2 -173q-50 -36 -104.5 -57t-123.5 -21q-60 0 -114.5 16.5t-97.5 51t-72 89t-39 130.5h-77v33z" />
    <glyph glyph-name="litre" unicode="&#x2113;" horiz-adv-x="489" 
d="M439 150q-8 -30 -21 -58.5t-32.5 -51t-45 -36.5t-58.5 -14q-44 0 -71 18.5t-42 47t-20 63.5t-5 68v43l-82 -83l-12 11l94 99v243q0 38 7 74.5t23.5 64.5t43.5 45t66 17q45 0 70.5 -27t25.5 -72q0 -42 -15.5 -81.5t-39.5 -76t-52 -69.5l-53 -61v-159q0 -23 3 -46.5
t12 -43.5t25.5 -32.5t42.5 -12.5t45.5 13.5t34 33.5t24 43.5t15.5 43.5zM220 341q134 155 134 242q0 43 -19.5 66t-47.5 23q-23 0 -36.5 -12t-20.5 -31.5t-8.5 -44t-1.5 -50.5v-193z" />
    <glyph glyph-name="trademark" unicode="&#x2122;" horiz-adv-x="1067" 
d="M439 700v-87h-20q0 29 -6.5 41.5t-37.5 12.5h-94v-324q0 -16 2.5 -25t8.5 -13.5t16.5 -5.5t25.5 -1v-20h-169v20q18 0 28 1t15 5.5t6.5 13.5t1.5 25v324h-94q-15 0 -23.5 -4t-12.5 -11t-5 -17t-1 -22h-20v87h379zM840 298q34 0 42.5 11t8.5 39v255l-156 -325h-22
l-152 325v-255q0 -18 1.5 -28.5t6.5 -15t14.5 -5.5t26.5 -1v-20h-132v20q18 0 28.5 1t16 6t7 15.5t1.5 28.5v281q0 17 -1.5 27t-6.5 15t-16 6.5t-29 1.5v20h108l154 -332l159 332h107l1 -20q-18 0 -29 -1.5t-16.5 -6.5t-7 -15t-1.5 -27v-281q0 -18 1.5 -28t7 -15t16.5 -6.5
t29 -1.5v-20h-167v20z" />
    <glyph glyph-name="estimated" unicode="&#x212e;" horiz-adv-x="776" 
d="M202 347v-230q80 -77 186 -77q157 0 250 153l42 -24q-29 -44 -59.5 -77t-65.5 -54.5t-76 -32t-91 -10.5q-77 0 -138.5 28.5t-104 77t-65.5 112t-23 134.5q0 75 24 139.5t67.5 112.5t104.5 75t135 27t135 -26t104.5 -73t67.5 -112t24 -143h-517zM574 394v185
q-81 76 -187 76q-107 0 -185 -76v-185h372z" />
    <glyph glyph-name="partialdiff" unicode="&#x2202;" horiz-adv-x="530" 
d="M184 710q27 -6 60 -21t67 -40t66.5 -59.5t57.5 -79t40 -98.5t15 -118q0 -54 -16 -108.5t-47.5 -98t-78 -70.5t-106.5 -27q-38 0 -74 13t-64.5 37.5t-46 60.5t-17.5 83q0 53 18.5 95.5t48.5 72.5t69 46.5t80 16.5q39 0 76.5 -16t71.5 -50q-7 74 -27 130t-51 97t-70.5 68.5
t-84.5 44.5zM291 368q-32 0 -61.5 -14.5t-52.5 -41.5t-37 -65.5t-14 -86.5q0 -42 11.5 -69t29 -43t37 -22t36.5 -6q49 0 81.5 31.5t51.5 77t25.5 95.5t5.5 88q-25 29 -54.5 42.5t-58.5 13.5z" />
    <glyph glyph-name="product" unicode="&#x220f;" horiz-adv-x="616" 
d="M576 700v-20q-25 0 -39.5 -3.5t-22 -13t-9.5 -26.5t-2 -45v-484q0 -28 2 -45t9.5 -26.5t22 -13t39.5 -3.5v-20h-232v20q28 0 44 3.5t24 13t10 26.5t2 45v484q0 28 -2 45t-10 26.5t-24 13t-44 3.5h-72q-25 0 -39.5 -3.5t-22 -13t-9.5 -26.5t-2 -45v-484q0 -28 2 -45
t9.5 -26.5t22 -13t39.5 -3.5v-20h-232v20q28 0 44 3.5t24 13t10 26.5t2 45v484q0 28 -2 45t-10 26.5t-24 13t-44 3.5v20h536z" />
    <glyph glyph-name="summation" unicode="&#x2211;" horiz-adv-x="649" 
d="M383 350l-218 -307h250q43 0 71.5 5t46.5 18.5t28.5 38.5t17.5 65h20l-11 -170h-518l-20 20l234 330l-234 331l20 20h518l11 -170h-20q-7 40 -17.5 65t-28.5 38.5t-46.5 18.5t-71.5 5h-250z" />
    <glyph glyph-name="minus" unicode="&#x2212;" horiz-adv-x="593" 
d="M513 350v-50h-433v50h433z" />
    <glyph glyph-name="radical" unicode="&#x221a;" horiz-adv-x="655" 
d="M77 440h160l108 -351l189 611h61l-219 -700h-61l-120 382h-135z" />
    <glyph glyph-name="infinity" unicode="&#x221e;" horiz-adv-x="747" 
d="M687 300q0 -38 -15.5 -63t-41.5 -38t-59 -14t-68 9t-69 31t-61 52q-41 -47 -95 -70.5t-102.5 -21.5t-82 30t-33.5 85t33.5 85t82 30t102.5 -22t95 -70q41 46 95.5 70t103 22t82 -30t33.5 -85zM90 300q0 -44 27 -64.5t65 -20.5q43 0 90.5 21.5t82.5 63.5q-35 43 -82 64
t-91 21q-38 0 -65 -20.5t-27 -64.5zM657 300q0 44 -27 64.5t-65 20.5q-43 0 -90.5 -21.5t-82.5 -63.5q35 -43 82 -64t91 -21q38 0 65 20.5t27 64.5z" />
    <glyph glyph-name="integral" unicode="&#x222b;" horiz-adv-x="235" 
d="M78 498q0 47 19 87.5t47 70.5t60 47t58 17q4 0 13 -1.5t14.5 -9.5t3.5 -25t-21 -47l-28 21t-34 13q-11 0 -20.5 -7.5t-16.5 -28.5t-11.5 -58.5t-4.5 -96.5v-486q0 -47 -19 -87.5t-47 -70.5t-60 -47t-58 -17q-4 0 -13 1.5t-14.5 9.5t-3.5 25t21 47l28 -21t34 -13
q10 0 20 7.5t17 28.5t11.5 58.5t4.5 96.5v486z" />
    <glyph glyph-name="approxequal" unicode="&#x2248;" horiz-adv-x="649" 
d="M569 365l-16.5 -25.5t-28 -35t-37.5 -30.5t-45 -13q-35 0 -68 5.5t-65.5 11.5l-64.5 11.5t-64 5.5q-12 0 -32 -5.5t-43 -33.5l-25 16l16.5 25.5t28 35t37.5 30.5t45 13q34 0 67.5 -5.5t66 -11.5l64.5 -11.5t64 -5.5q12 0 32 5.5t43 33.5zM569 216l-16.5 -25.5t-28 -35
t-37.5 -30.5t-45 -13q-35 0 -68 5.5t-65.5 11.5l-64.5 11.5t-64 5.5q-12 0 -32 -5.5t-43 -33.5l-25 16l16.5 25.5t28 35t37.5 30.5t45 13q34 0 67.5 -5.5t66 -11.5l64.5 -11.5t64 -5.5q12 0 32 5.5t43 33.5z" />
    <glyph glyph-name="notequal" unicode="&#x2260;" horiz-adv-x="593" 
d="M513 419v-50h-180l-41 -133h221v-50h-236l-36 -117h-55l36 117h-142v50h157l41 133h-198v50h213l34 111h55l-34 -111h165z" />
    <glyph glyph-name="lessequal" unicode="&#x2264;" horiz-adv-x="545" 
d="M465 71l-385 166v83l385 166v-67l-331 -141l331 -140v-67zM465 62v-62h-385v62h385z" />
    <glyph glyph-name="greaterequal" unicode="&#x2265;" horiz-adv-x="545" 
d="M80 138l331 140l-331 141v67l385 -166v-83l-385 -166v67zM465 62v-62h-385v62h385z" />
    <glyph glyph-name="lozenge" unicode="&#x25ca;" horiz-adv-x="687" 
d="M60 335l283 334l284 -334l-283 -333zM344 96l204 239l-205 240l-204 -239z" />
    <glyph glyph-name="s_t" unicode="&#xfb06;" horiz-adv-x="727" 
d="M306 358q2 32 -6 52t-22 31.5t-32.5 15.5t-37.5 4q-16 0 -31.5 -5.5t-27.5 -15.5t-19.5 -24t-7.5 -32q0 -22 17.5 -41.5t43.5 -38l56 -38t56 -41t43.5 -47t17.5 -56.5q0 -37 -17 -62t-43.5 -40.5t-57.5 -22.5t-58 -7q-38 0 -77 11t-63 32l5 110h20q8 -69 40 -96.5
t86 -27.5q19 0 35 7t27.5 17.5t17.5 23.5t6 25q0 31 -17.5 55.5t-43.5 45.5t-56 40t-56 39.5t-43.5 43.5t-17.5 52q0 32 15 55t39 38t54 22t60 7q11 0 22 -1t22 -3q-15 65 -6.5 108.5t32 70.5t59 39t75 13.5t79 -5t71.5 -17.5v-215h129v-33h-129v-294q0 -47 10 -75.5
t29.5 -40.5t47.5 -9t65 18l10 -18q-58 -29 -98 -35t-67 2.5t-42 27.5t-22.5 40.5t-9.5 40.5t-2 28v315h-60v28q39 4 60.5 28t31.5 52t12 52.5t2 30.5q-30 16 -61.5 25t-62.5 10.5t-58 -4.5t-48 -19q-7 -6 -12.5 -21.5t-4.5 -40t11.5 -57t35.5 -73.5l-6 -100h-20z" />
    <glyph glyph-name="zero.onum" 
d="M339 23q47 0 84 20t62.5 54.5t39 79t13.5 94.5q0 49 -13.5 94t-39 79.5t-62.5 54.5t-84 20t-84 -20t-62.5 -54.5t-39 -79.5t-13.5 -94q0 -50 13.5 -94.5t39 -79t62.5 -54.5t84 -20zM339 552q66 0 117.5 -22.5t87.5 -60.5t55 -89t19 -109t-19 -109t-55 -89.5t-87.5 -60.5
t-117.5 -22t-117.5 22t-87.5 60.5t-55 89.5t-19 109t19 109t55 89t87.5 60.5t117.5 22.5z" />
    <glyph glyph-name="one.onum" horiz-adv-x="383" 
d="M157 420q0 29 -3 47t-14.5 28t-32.5 13.5t-57 3.5v20h293v-20q-38 -1 -59 -4.5t-31 -13t-12 -27.5t-2 -47v-308q0 -29 2 -47t12 -27.5t31 -13t59 -4.5v-20h-293v20q36 0 57 3.5t32.5 13.5t14.5 28t3 47v308z" />
    <glyph glyph-name="two.onum" horiz-adv-x="547" 
d="M50 20q25 20 58.5 44l69.5 51t71.5 57t63.5 62t45 65t17 67q0 57 -37 83t-93 26q-58 0 -100.5 -30.5t-65.5 -72.5l-18 9q15 38 38.5 68t52.5 50.5t62.5 31.5t66.5 11q87 0 134.5 -44.5t47.5 -116.5q0 -35 -16.5 -67.5t-43 -62.5t-60 -57t-67.5 -49t-65 -39.5l-53 -29.5
h339l-18 -76h-409z" />
    <glyph glyph-name="three.onum" horiz-adv-x="548" 
d="M281 542q36 0 68 -11.5t57 -32.5t39.5 -49.5t14.5 -62.5q0 -33 -12.5 -63t-33 -54t-47 -41.5t-55.5 -25.5v-2q45 -6 78.5 -24.5t55 -44t32 -55.5t10.5 -59q0 -50 -21.5 -89.5t-56.5 -67.5t-79 -43t-89 -15q-35 0 -67.5 8.5t-58 25t-41 41t-15.5 57.5q0 20 8 27.5
t20.5 6.5t27 -7.5t27.5 -14.5q-14 -53 15.5 -83.5t84.5 -30.5q38 0 67 17t48.5 43.5t29 59.5t9.5 65q0 30 -8.5 60t-25 53.5t-41.5 38t-59 14.5h-53v30h39q28 0 51.5 10.5t40.5 29t26.5 43.5t9.5 54q0 31 -11.5 54t-30.5 39t-43 24t-49 8q-39 0 -66.5 -11.5t-46.5 -28
t-31 -34t-19 -29.5l-18 9q11 31 32 60t50 51.5t64 36t73 13.5z" />
    <glyph glyph-name="four.onum" horiz-adv-x="560" 
d="M427 0v-163h-82v163h-305v60l341 482h46v-482h93l-14 -60h-79zM345 60v366l-260 -366h260z" />
    <glyph glyph-name="five.onum" horiz-adv-x="541" 
d="M232 -198q-35 0 -67.5 8.5t-58 25t-41 41t-15.5 57.5q0 20 8 27.5t20.5 6.5t27 -7.5t27.5 -14.5q-14 -53 15.5 -83.5t84.5 -30.5q23 0 52.5 9.5t55.5 31.5t43.5 56t17.5 84q0 52 -29 93t-74 71t-99 49t-103 28l15 278h345l-18 -76h-291l-7 -152q96 -6 161.5 -34.5
t105 -66.5t56.5 -81t17 -79q0 -62 -25 -107.5t-62.5 -75t-81 -44t-80.5 -14.5z" />
    <glyph glyph-name="six.onum" horiz-adv-x="561" 
d="M422 689q-47 -17 -89.5 -44.5t-77.5 -68.5t-61 -97t-40 -130q37 34 76.5 50t78.5 16q38 0 73 -14.5t61.5 -42t42 -66.5t15.5 -88q0 -51 -20 -91t-52 -67.5t-71.5 -41.5t-79.5 -14q-56 0 -97 24t-68 61.5t-40 84t-13 92.5q0 71 18 130.5t47 108.5t66.5 87.5t76.5 65.5
t77 43.5t67 22.5zM269 368q-29 0 -60 -13.5t-59 -42.5q-6 -38 -4.5 -88t15.5 -95.5t43 -77t79 -31.5q18 0 40.5 7t42.5 25.5t33.5 50t13.5 81.5q0 42 -11.5 76t-31.5 58t-46 37t-55 13z" />
    <glyph glyph-name="seven.onum" horiz-adv-x="512" 
d="M147 456q-21 0 -35.5 -1t-24.5 -8t-16.5 -21t-10.5 -41h-20l15 147h422l20 -20l-263 -675h-101l307 619h-293z" />
    <glyph glyph-name="eight.onum" horiz-adv-x="543" 
d="M469 551q0 -33 -12 -61t-30.5 -50t-42 -38.5t-45.5 -27.5q19 -9 43.5 -25t47 -40.5t38 -58t15.5 -76.5q0 -38 -14.5 -71.5t-42.5 -58.5t-68 -39.5t-91 -14.5q-38 0 -75.5 8t-66.5 27.5t-47 53t-18 85.5q0 36 13 66t34.5 54t48.5 42t54 30q-15 8 -36.5 23.5t-42 38
t-35 51.5t-14.5 65q0 42 18 74.5t46.5 55t64 34.5t71.5 12q34 0 67.5 -10t60 -30t43 -49.5t16.5 -69.5zM164 555q0 -36 14.5 -62.5t35 -46t43.5 -32t40 -20.5q15 10 31 24.5t29 34t21 45t8 57.5q0 40 -13 64.5t-30.5 37.5t-36 17.5t-28.5 4.5q-6 0 -24.5 -4t-38.5 -16.5
t-35.5 -37t-15.5 -66.5zM271 20q20 0 42.5 7.5t41.5 24t31.5 43.5t12.5 66q0 31 -17.5 59t-42 51t-50.5 39.5t-44 25.5q-19 -11 -37 -27.5t-32.5 -37.5t-23 -47t-8.5 -56q0 -38 12 -66t31 -46t41 -27t43 -9z" />
    <glyph glyph-name="nine.onum" horiz-adv-x="561" 
d="M139 -167q47 17 89.5 46t77.5 72t61 100.5t40 131.5q-37 -34 -76.5 -50t-78.5 -16q-38 0 -73 14.5t-61.5 42t-42 66.5t-15.5 88q0 51 20 91t52 67.5t71.5 41.5t79.5 14q55 0 96 -24t68 -61.5t40.5 -84t13.5 -92.5q0 -71 -18 -131.5t-47 -110.5t-66.5 -89.5t-76.5 -68
t-77 -45.5t-67 -23zM292 164q29 0 60 13.5t59 42.5q4 25 4.5 56.5t-3 64t-12.5 63t-25.5 55t-40 39t-56.5 14.5q-18 0 -40.5 -7t-42.5 -25.5t-33.5 -50.5t-13.5 -81q0 -42 11.5 -76t31.5 -58t46 -37t55 -13z" />
    <glyph glyph-name="ringacute" horiz-adv-x="297" 
d="M136 702h-19l50 101q20 13 42.5 15t37.5 -6zM50 600q0 32 22 54t54 22t54 -22t22 -54t-22 -54t-54 -22t-54 22t-22 54zM85 600q0 -17 12 -29t29 -12t28.5 12t11.5 29t-11.5 28.5t-28.5 11.5t-29 -11.5t-12 -28.5z" />
    <glyph glyph-name="commaaccentcomb" horiz-adv-x="222" 
d="M57 -271q23 19 35.5 42t18.5 46q-18 14 -32.5 28.5t-28.5 32.5q14 17 29 31.5t32 28.5q17 -14 32 -28.5t29 -31.5q0 -43 -22.5 -85t-76.5 -81z" />
    <glyph glyph-name="commaaccentcomb.alt" horiz-adv-x="222" 
d="M165 754q-23 -19 -35.5 -42t-18.5 -46q18 -14 32.5 -28.5t28.5 -32.5q-14 -17 -29 -31.5t-32 -28.5q-17 14 -32 28.5t-29 31.5q0 43 22.5 85t76.5 81z" />
    <glyph glyph-name="A.sc" 
d="M437 159h-239l-29 -69q-14 -35 -0.5 -53.5t66.5 -18.5v-18h-208v18q24 0 39.5 3.5t27 12.5t19.5 23t17 35l202 476h17l201 -476q9 -21 17 -35t19 -23t26 -12.5t39 -3.5v-18h-244v18q27 0 42 4t21 12.5t4 22.5t-9 34zM209 187h216l-107 265z" />
    <glyph glyph-name="B.sc" horiz-adv-x="593" 
d="M307 560q79 0 127 -35t48 -90q0 -42 -33 -81t-96 -56v-2q52 0 88 -12.5t58.5 -31.5t32 -42.5t9.5 -46.5q0 -38 -13 -65t-34 -45t-48 -28.5t-54.5 -16t-54 -7t-46.5 -1.5h-238v18q26 0 42.5 3t25.5 11t12.5 22t3.5 37v378q0 22 -3 36.5t-12 22.5t-25.5 11t-43.5 3v18h254z
M218 96q0 -39 17 -52.5t53 -13.5q18 0 46 2.5t54.5 14.5t45.5 36.5t19 68.5q0 25 -8.5 48t-29 40.5t-53.5 28t-81 10.5h-63v-183zM399 427q0 31 -10 51t-25 31.5t-33.5 16t-34.5 4.5h-78v-224h63q16 0 36.5 5.5t38.5 19.5t30.5 37.5t12.5 58.5z" />
    <glyph glyph-name="C.sc" horiz-adv-x="624" 
d="M61 280q0 79 26 133.5t69 89t97 50t111 15.5q60 0 113 -16t97 -44l1 -141h-19q0 51 -17.5 84t-44.5 52.5t-60 27t-64 7.5q-50 0 -90.5 -19t-69.5 -53t-45 -81.5t-16 -104.5t16 -104.5t45 -81.5t69.5 -53t90.5 -19q31 0 64 7.5t60 27t44.5 52.5t17.5 84h19l-1 -141
q-44 -28 -97 -44t-113 -16q-57 0 -111 15.5t-97 50t-69 89t-26 133.5z" />
    <glyph glyph-name="D.sc" horiz-adv-x="721" 
d="M53 18q30 0 47 4t25 13t10 22.5t2 33.5v378q0 21 -2.5 35t-11 22.5t-25 12t-45.5 3.5v18h234q31 0 70.5 -1.5t81 -9t81.5 -24.5t71 -48.5t50 -79t19 -117.5t-21.5 -117.5t-55.5 -79t-76 -48.5t-83 -24.5t-76.5 -9t-56.5 -1.5h-238v18zM292 28q24 0 54 1.5t61 9.5t61 23.5
t53 43.5t37 70.5t14 103.5t-17 103t-43.5 70t-59 43.5t-64 23.5t-59 9.5t-42.5 1.5h-69v-435q0 -14 3.5 -26.5t12 -21.5t22.5 -14.5t36 -5.5z" />
    <glyph glyph-name="E.sc" horiz-adv-x="580" 
d="M53 18q29 0 45.5 3.5t25 12t11 22.5t2.5 35v378q0 20 -1.5 34t-10 22.5t-25.5 12.5t-47 4v18h440l4 -117h-19q-5 32 -12.5 50t-20.5 26.5t-33.5 10.5t-53.5 2h-140v-225h123q22 0 35.5 3t21 11.5t9.5 22.5t2 35h19v-174h-19q0 22 -2 36.5t-9.5 23t-21 11.5t-35.5 3h-123
v-183q0 -33 15 -50t60 -17h106q24 0 42 3.5t31 14.5t22 31t14 52h19l-9 -130h-465v18z" />
    <glyph glyph-name="F.sc" horiz-adv-x="526" 
d="M53 0v18q29 0 45.5 3.5t25 12t11 22.5t2.5 35v378q0 20 -1.5 34t-10 22.5t-25.5 12.5t-47 4v18h440l4 -117h-19q-5 32 -12.5 50t-20.5 26.5t-33.5 10.5t-53.5 2h-140v-225h139q22 0 35.5 3t21 11.5t9.5 22.5t2 35h19v-174h-19q0 22 -2 36.5t-9.5 23t-21 11.5t-35.5 3
h-139v-188q0 -21 3 -35t13.5 -22.5t30.5 -12t54 -3.5v-18h-266z" />
    <glyph glyph-name="G.sc" horiz-adv-x="698" 
d="M595 69q-47 -34 -107.5 -55.5t-123.5 -21.5q-57 0 -111 15.5t-97 50t-69 89t-26 133.5t26 133.5t69 89t97 50t111 15.5q60 0 113 -16t97 -44l1 -141h-19q0 51 -17.5 84t-44.5 52.5t-60 27t-64 7.5q-50 0 -90.5 -19t-69.5 -53t-45 -81.5t-16 -104.5t16 -104.5t45 -81.5
t69.5 -53t90.5 -19q40 0 78 12.5t67 47.5v67q0 21 -3.5 35t-14 22.5t-30.5 12t-54 3.5v18h249v-18q-24 0 -37.5 -3.5t-20 -12t-8 -22.5t-1.5 -35v-80z" />
    <glyph glyph-name="H.sc" horiz-adv-x="775" 
d="M474 0v18q28 0 44.5 3.5t25 12t11 22.5t2.5 35v185h-339v-185q0 -21 2.5 -35t11 -22.5t25 -12t44.5 -3.5v-18h-248v18q28 0 45 3.5t25.5 12t11 22.5t2.5 35v378q0 19 -1.5 33t-9.5 23t-25 13t-48 4v18h248v-18q-30 0 -47 -4t-25 -13t-9.5 -23t-1.5 -33v-165h339v165
q0 19 -1.5 33t-9.5 23t-25 13t-47 4v18h248v-18q-31 0 -48 -4t-25 -13t-9.5 -23t-1.5 -33v-378q0 -21 2.5 -35t11 -22.5t25 -12t45.5 -3.5v-18h-248z" />
    <glyph glyph-name="I.sc" horiz-adv-x="355" 
d="M53 0v18q28 0 45 3.5t25.5 12t11 22.5t2.5 35v378q0 19 -1.5 33t-9.5 23t-25 13t-48 4v18h249v-18q-30 0 -47 -4t-25.5 -13t-10 -23t-1.5 -33v-378q0 -21 2.5 -35t11 -22.5t25 -12t45.5 -3.5v-18h-249z" />
    <glyph glyph-name="J.sc" horiz-adv-x="347" 
d="M218 28q0 -43 -13.5 -76.5t-35 -59.5t-48 -46.5t-53.5 -36.5l-10 13q32 22 55.5 66.5t23.5 125.5v455q0 19 -1.5 33t-9.5 23t-25 13t-48 4v18h249v-18q-30 0 -47 -4t-25.5 -13t-10 -23t-1.5 -33v-441z" />
    <glyph glyph-name="K.sc" horiz-adv-x="669" 
d="M263 250h-45v-159q0 -21 2.5 -35t10 -22.5t22.5 -12t40 -3.5v-18h-240v18q28 0 45 3.5t25.5 12t11 22.5t2.5 35v378q0 19 -1.5 33t-9.5 23t-25 13t-48 4v18h240v-18q-27 0 -42 -4t-22.5 -13t-9 -23t-1.5 -33v-194h23l224 218q8 9 11.5 18t-1 15.5t-17.5 11t-38 4.5v18
h197v-18q-20 0 -34 -3t-25.5 -9t-21.5 -15l-23 -21l-197 -186l234 -236q16 -17 29.5 -27.5t24.5 -16.5t21.5 -8t22.5 -2v-18h-149q-8 16 -25 37t-31 35z" />
    <glyph glyph-name="L.sc" horiz-adv-x="563" 
d="M320 542q-34 0 -54 -3.5t-30.5 -12t-14 -22.5t-3.5 -35v-373q0 -33 15 -50t60 -17h106q24 0 42 3.5t31 14.5t22 31t14 52h19l-9 -130h-465v18q29 0 45.5 3.5t25 12t11 22.5t2.5 35v378q0 20 -1.5 34t-10 22.5t-25.5 12.5t-47 4v18h267v-18z" />
    <glyph glyph-name="M.sc" horiz-adv-x="900" 
d="M271 0h-218v18q26 0 44.5 3t30 11t16.5 22t5 37v378q0 22 -3.5 36t-13.5 22.5t-29 11.5t-50 3v18h172l228 -454l236 454h158v-18q-27 0 -45 -3t-28.5 -11.5t-14.5 -22.5t-4 -36v-378q0 -23 4 -37t14.5 -22t28.5 -11t45 -3v-18h-254v18q26 0 42 3t25 11t12 22t3 37v365
l-239 -460h-16l-235 460v-365q0 -23 3 -37t12.5 -22t26.5 -11t44 -3v-18z" />
    <glyph glyph-name="N.sc" horiz-adv-x="778" 
d="M617 469q0 21 -3.5 35.5t-13 22.5t-25.5 11.5t-41 3.5v18h199v-18q-47 0 -63.5 -16.5t-16.5 -56.5v-473h-19l-447 464v-369q0 -22 3.5 -36t13.5 -22.5t29 -11.5t50 -3v-18h-217v18q27 0 43.5 3t26 11t13 22t3.5 37v378q0 40 -20.5 56.5t-78.5 16.5v18h157l407 -425v334z
" />
    <glyph glyph-name="O.sc" horiz-adv-x="736" 
d="M368 -8q-64 0 -120 20.5t-97.5 58t-65.5 90.5t-24 119t24 119t65.5 90.5t97.5 58t120 20.5t120 -20.5t97.5 -58t65.5 -90.5t24 -119t-24 -119t-65.5 -90.5t-97.5 -58t-120 -20.5zM368 22q46 0 86.5 20t69.5 55t46 82t17 101t-17 101t-46 82t-69.5 55t-86.5 20t-86 -20
t-69.5 -55t-46.5 -82t-17 -101t17 -101t46.5 -82t69.5 -55t86 -20z" />
    <glyph glyph-name="P.sc" horiz-adv-x="540" 
d="M218 225v-134q0 -21 3.5 -35t14 -22.5t30.5 -12t53 -3.5v-18h-266v18q29 0 45.5 4t25 12.5t11 22.5t2.5 34v378q0 19 -1.5 33t-9.5 23t-25 13t-48 4v18h213q51 0 95.5 -8.5t77.5 -28t52.5 -50.5t19.5 -77q0 -86 -69.5 -128.5t-192.5 -42.5h-31zM218 247h31q24 0 54 4.5
t56.5 20.5t45 45t18.5 79q0 42 -17.5 69t-44 42.5t-57.5 20.5t-58 4h-28v-285z" />
    <glyph glyph-name="Q.sc" horiz-adv-x="733" 
d="M675 280q0 -64 -22.5 -116t-62.5 -89t-93.5 -58.5t-115.5 -23.5q-11 -8 -24 -20t-25 -27q48 10 96.5 6t90 -15.5t71.5 -28.5t41 -33q4 -6 4.5 -15t-6 -18t-22.5 -15t-45 -5q-8 23 -32 44.5t-58.5 36.5t-76 20t-83.5 -5q-2 -3 -3.5 -6t-2.5 -6q-5 -11 -14.5 -11t-17 6
t-10.5 15t5 18q11 14 32 31t45 28q-60 3 -112 25t-90.5 59t-60.5 88.5t-22 114.5q0 66 24 119t65.5 90.5t97.5 58t120 20.5t120 -20.5t97.5 -58t65.5 -90.5t24 -119zM368 22q46 0 86.5 20t69.5 55t46 82t17 101t-17 101t-46 82t-69.5 55t-86.5 20t-86 -20t-69.5 -55
t-46.5 -82t-17 -101t17 -101t46.5 -82t69.5 -55t86 -20z" />
    <glyph glyph-name="R.sc" horiz-adv-x="650" 
d="M511 417q0 -51 -43 -93.5t-113 -65.5l177 -186q31 -35 53 -44.5t46 -9.5v-18h-149q-8 16 -23.5 37t-28.5 35l-151 159h-61v-140q0 -21 3 -35t13.5 -22.5t30 -12t52.5 -3.5v-18h-264v18q29 0 45.5 4t25 12.5t11 22.5t2.5 34v378q0 19 -1.5 33t-9.5 23t-25 13t-48 4v18h213
q64 0 110.5 -10.5t76.5 -29.5t44 -45.5t14 -57.5zM218 257h50q75 20 115.5 60t40.5 97q0 56 -43.5 87t-134.5 31h-28v-275z" />
    <glyph glyph-name="S.sc" horiz-adv-x="488" 
d="M392 442h-18q1 25 -8 43.5t-24 31t-34.5 18.5t-40.5 6t-42 -6t-37.5 -18t-27 -30.5t-10.5 -43.5q0 -32 20.5 -55t51.5 -42.5t66.5 -38t66.5 -41t51.5 -52t20.5 -69.5q0 -70 -51 -112t-144 -42q-58 0 -97.5 13t-70.5 31l6 107h19q3 -40 16.5 -64t33 -37.5t44 -18
t48.5 -4.5q29 0 50 8.5t35 22.5t21 31.5t7 36.5q0 34 -20.5 59t-51.5 46t-66.5 40t-66.5 42t-51.5 51.5t-20.5 68.5t17 67.5t45 44.5t64 24.5t73 7.5t71.5 -7t61.5 -20z" />
    <glyph glyph-name="T.sc" horiz-adv-x="627" 
d="M585 560l5 -117h-19q-5 32 -12.5 50t-20.5 26.5t-33.5 10.5t-53.5 2h-97v-441q0 -21 3 -35t13.5 -22.5t30.5 -12t54 -3.5v-18h-283v18q34 0 54 3.5t30.5 12t13.5 22.5t3 35v441h-97q-33 0 -53.5 -2t-33.5 -10.5t-20.5 -26.5t-12.5 -50h-19l5 117h543z" />
    </font>
</defs>
</svg>
